<?xml version="1.0" standalone="no"?>
<!DOCTYPE svg PUBLIC "-//W3C//DTD SVG 20010904//EN"
 "http://www.w3.org/TR/2001/REC-SVG-20010904/DTD/svg10.dtd">
<svg version="1.0" xmlns="http://www.w3.org/2000/svg"
 width="2948.000000pt" height="3380.000000pt" viewBox="0 0 2948.000000 3380.000000"
 preserveAspectRatio="xMidYMid meet">

<g transform="translate(0.000000,3380.000000) scale(0.100000,-0.100000)"
fill="#000000" stroke="none">
<path d="M23137 31023 c-4 -21 -2 -80 4 -131 14 -114 5 -133 -73 -156 -110
-32 -182 -100 -228 -216 -11 -28 -38 -124 -59 -213 -55 -228 -83 -298 -137
-346 -24 -21 -78 -53 -121 -71 -156 -67 -183 -96 -208 -225 -19 -101 -54 -140
-164 -186 -42 -17 -172 -76 -290 -131 -301 -140 -392 -174 -591 -224 -100 -25
-204 -58 -245 -78 -84 -41 -173 -117 -292 -251 -269 -304 -458 -459 -708 -580
-215 -104 -357 -135 -619 -135 -205 0 -250 -8 -442 -71 -116 -38 -139 -42
-224 -42 -84 0 -107 4 -200 37 -237 85 -211 79 -390 79 -91 0 -302 -2 -470 -4
-339 -5 -358 -9 -395 -72 -40 -66 -29 -318 20 -485 16 -52 139 -247 194 -305
14 -16 81 -55 147 -88 94 -46 132 -71 169 -110 50 -54 103 -158 131 -257 16
-57 16 -68 2 -139 -35 -176 -67 -223 -229 -343 -119 -88 -167 -104 -319 -104
-149 1 -243 21 -414 89 -186 73 -219 80 -406 79 -91 -1 -221 -8 -290 -17 -201
-26 -391 -37 -477 -27 -60 7 -100 19 -173 54 -177 84 -312 113 -674 146 -295
27 -385 45 -645 130 -226 74 -369 136 -400 176 -10 13 -22 45 -26 71 -6 41
-15 56 -64 103 -72 69 -228 181 -306 220 -33 16 -81 33 -106 36 -74 10 -196
-21 -353 -88 -248 -107 -352 -129 -486 -104 -45 9 -105 16 -134 16 -79 -1 -99
-24 -110 -130 -12 -125 -71 -306 -134 -409 -60 -99 -146 -194 -337 -373 -99
-92 -250 -234 -335 -314 -344 -324 -620 -523 -1135 -819 -299 -172 -519 -283
-845 -426 -792 -347 -875 -375 -1267 -433 -189 -28 -312 -91 -523 -270 -173
-145 -264 -185 -620 -265 -349 -79 -559 -131 -607 -150 -66 -26 -141 -71 -244
-146 -282 -207 -713 -404 -1102 -505 -203 -52 -303 -69 -480 -80 -153 -10
-211 -25 -222 -59 -9 -28 13 -121 44 -188 73 -155 154 -240 340 -353 201 -123
212 -128 292 -140 109 -16 161 -36 199 -75 32 -33 58 -44 169 -75 24 -6 54
-22 67 -35 23 -23 24 -29 24 -182 l0 -158 -46 -70 c-49 -76 -62 -111 -46 -127
5 -5 80 -14 165 -19 191 -11 219 -5 257 61 42 73 71 82 295 91 111 4 205 4
226 -2 25 -6 57 -30 100 -75 35 -36 84 -78 109 -92 44 -26 50 -27 215 -28 152
-1 186 -5 320 -34 95 -20 218 -57 335 -100 102 -37 228 -79 280 -93 l95 -25
257 12 c253 11 257 11 262 -9 17 -62 11 -71 -71 -101 -165 -58 -182 -65 -215
-87 -51 -35 -51 -85 2 -190 40 -81 40 -84 47 -222 l6 -141 -63 -54 c-93 -81
-197 -218 -327 -432 -120 -198 -191 -292 -348 -458 -104 -109 -143 -166 -126
-183 6 -6 75 -14 163 -18 221 -11 326 -44 469 -150 126 -93 193 -109 450 -109
166 0 365 -20 410 -40 20 -9 79 -78 79 -92 0 -2 -42 7 -93 19 -116 30 -309 41
-428 24 -133 -19 -224 -48 -373 -119 -163 -77 -196 -81 -291 -37 -55 25 -74
28 -230 35 -161 7 -172 6 -215 -14 -44 -21 -45 -23 -125 -199 l-80 -179 -140
-71 -139 -72 -42 -151 c-40 -143 -47 -158 -116 -263 l-73 -111 -308 -222 -308
-221 -30 -66 c-17 -36 -32 -79 -32 -96 -2 -26 4 -33 43 -52 108 -54 479 -79
918 -63 150 6 314 15 365 20 147 15 242 12 329 -11 84 -23 118 -50 118 -95 0
-27 -31 -63 -58 -66 -9 -1 -120 -2 -247 -2 -216 -1 -233 -2 -287 -24 -65 -26
-112 -74 -127 -129 -15 -52 -14 -61 8 -73 33 -17 268 -32 392 -25 l115 7 170
-115 170 -116 155 2 c84 1 160 -2 168 -7 18 -12 -17 -40 -136 -111 -128 -77
-162 -122 -133 -176 30 -55 148 -65 414 -35 230 26 325 87 345 223 l6 44 125
2 c138 3 172 14 209 66 52 73 67 190 32 247 -10 17 -35 52 -55 78 -52 69 -49
76 32 76 101 0 415 -48 427 -65 6 -8 33 -53 60 -101 54 -95 138 -193 196 -229
51 -33 98 -44 230 -54 74 -6 130 -15 153 -26 45 -21 98 -89 122 -153 9 -26 22
-52 28 -59 6 -6 78 -23 161 -38 230 -42 317 -29 355 53 12 26 19 31 38 27 12
-3 62 -1 110 5 48 6 118 11 155 11 40 0 86 7 108 16 47 18 91 68 87 96 -6 44
-318 94 -362 58 -9 -8 -21 -33 -27 -56 -11 -42 -12 -43 -55 -47 -51 -4 -60 10
-50 68 9 47 52 68 118 60 48 -7 51 -5 94 34 51 47 63 48 190 20 140 -31 183
-24 264 40 33 26 46 30 103 30 l64 0 129 -106 c71 -58 144 -112 163 -120 34
-14 34 -15 13 -29 -19 -14 -21 -22 -17 -103 l4 -87 -22 103 -22 103 -55 23
c-31 12 -85 45 -121 73 -95 72 -101 72 -216 11 -138 -72 -133 -66 -133 -163 0
-71 -3 -87 -25 -119 -30 -44 -31 -52 -7 -65 23 -14 12 -14 -27 0 -25 9 -31 16
-31 39 0 16 4 32 10 35 17 11 10 39 -13 56 -45 33 -65 32 -107 -1 -33 -26 -40
-38 -40 -66 0 -24 -5 -36 -17 -40 -35 -11 -48 -21 -48 -39 0 -23 93 -64 147
-65 32 0 40 -6 65 -42 34 -51 76 -67 123 -48 71 29 77 95 12 130 l-37 20 39
-3 c35 -2 44 -8 72 -47 61 -86 54 -111 -31 -118 -48 -4 -58 -8 -68 -29 -10
-22 -5 -29 47 -82 l58 -58 76 -7 c42 -3 96 -9 119 -12 39 -6 44 -4 60 23 15
27 19 29 43 20 34 -13 113 -1 142 22 18 16 23 31 26 92 l5 74 23 -69 c12 -37
24 -69 26 -70 2 -1 18 -13 37 -26 35 -24 61 -73 61 -114 0 -20 10 -29 55 -50
l55 -25 0 -50 c0 -53 38 -171 94 -295 37 -82 41 -84 191 -126 44 -12 83 -24
88 -27 4 -2 -13 -27 -38 -55 -25 -28 -45 -54 -45 -59 0 -12 58 -48 158 -98 75
-38 88 -41 162 -41 44 0 80 -4 80 -9 0 -5 -17 -39 -38 -74 l-37 -65 -55 29
c-60 31 -95 35 -135 17 -21 -10 -32 -8 -64 10 -53 30 -69 28 -87 -12 -13 -27
-25 -35 -57 -42 -22 -5 -42 -15 -45 -22 -2 -7 16 -33 41 -57 l44 -45 -54 -46
c-51 -44 -53 -48 -47 -83 8 -43 20 -53 56 -47 26 5 27 4 16 -20 -10 -22 -8
-29 27 -64 22 -22 46 -40 55 -40 9 0 47 29 85 63 39 35 85 72 103 81 68 35
172 30 172 -8 0 -15 -76 -66 -136 -91 -40 -17 -39 -7 -18 -135 5 -32 2 -38
-35 -68 -40 -32 -51 -55 -31 -67 5 -3 38 -12 72 -19 47 -10 72 -22 99 -47 19
-19 63 -47 97 -63 58 -28 62 -32 62 -63 0 -52 32 -76 134 -103 80 -21 90 -27
102 -54 12 -29 11 -33 -15 -60 l-28 -28 -119 8 -119 9 4 53 c3 53 3 54 -47
100 -39 36 -51 55 -54 82 l-3 35 -88 3 c-85 3 -87 2 -97 -23 -15 -39 -32 -30
-66 33 -30 57 -31 57 -80 60 -43 2 -53 -1 -81 -28 -19 -18 -33 -41 -33 -55 0
-25 -24 -55 -44 -55 -19 0 -36 22 -36 46 0 21 -30 34 -82 34 -11 0 -42 16 -69
35 -46 34 -48 39 -51 88 l-3 52 -65 -1 c-68 -1 -80 5 -80 44 0 21 -4 22 -84
22 l-84 0 -46 -74 c-37 -59 -53 -76 -76 -81 -17 -4 -99 -5 -183 -4 -147 3
-154 3 -197 -22 -39 -22 -45 -29 -43 -54 3 -41 29 -58 81 -52 38 4 42 3 42
-18 0 -12 16 -42 35 -66 30 -39 40 -45 82 -49 43 -4 48 -8 51 -31 3 -23 -2
-27 -57 -44 -93 -28 -121 -48 -121 -88 0 -29 -5 -36 -44 -55 -31 -14 -46 -28
-48 -44 -3 -20 -10 -23 -48 -26 -32 -2 -53 -11 -72 -30 -33 -30 -36 -23 -8 16
11 15 24 49 29 76 5 26 18 61 30 77 25 34 27 56 5 80 -12 13 -17 50 -22 146
l-7 128 -33 -3 c-73 -5 -76 -10 -69 -143 7 -116 6 -118 -17 -137 -41 -31 -134
-77 -142 -69 -5 4 -3 28 4 53 7 25 10 50 7 55 -4 5 -29 9 -57 9 -43 0 -54 -4
-78 -30 -17 -19 -38 -30 -54 -30 -37 0 -42 -23 -13 -62 33 -43 42 -75 27 -93
-18 -21 -34 -18 -45 8 -7 16 -20 23 -49 25 -50 4 -60 -6 -48 -51 8 -29 6 -43
-10 -74 -27 -52 -57 -82 -95 -98 -18 -8 -33 -19 -33 -24 0 -6 14 -26 31 -46
l31 -35 -16 -58 c-9 -32 -16 -61 -16 -64 0 -12 30 -17 59 -8 31 9 31 8 31 -30
0 -50 25 -68 107 -76 56 -6 69 -3 152 32 82 35 91 41 91 65 0 27 15 39 51 39
23 0 24 -24 4 -60 -34 -59 -3 -110 65 -110 48 0 48 0 15 -111 -14 -46 -23 -89
-21 -96 3 -7 29 -19 59 -28 93 -27 100 -43 98 -242 -1 -110 2 -161 12 -185 16
-39 67 -85 115 -105 30 -12 37 -12 59 3 20 13 38 15 87 9 59 -6 62 -5 90 24
31 33 30 61 -3 61 -23 0 -25 7 -41 129 -11 89 -22 111 -70 131 -34 14 -50 66
-50 161 0 57 -3 66 -32 96 l-32 33 26 0 c17 0 35 -10 50 -28 19 -23 36 -30 96
-40 131 -22 162 -46 162 -125 0 -41 21 -71 60 -87 37 -15 37 -23 5 -44 -28
-19 -31 -39 -14 -117 7 -32 21 -62 37 -78 33 -32 30 -61 -10 -117 -17 -23 -27
-47 -23 -53 3 -7 50 -34 103 -60 151 -77 149 -72 52 -112 -45 -18 -85 -40 -88
-47 -3 -8 25 -44 67 -86 39 -39 71 -75 71 -80 0 -5 -13 -24 -30 -43 -34 -39
-37 -58 -13 -108 16 -34 16 -36 -4 -57 -11 -13 -28 -38 -37 -55 -13 -26 -23
-33 -46 -33 -36 0 -64 -37 -64 -85 0 -44 19 -65 58 -65 39 0 56 15 56 52 0 39
26 37 83 -8 50 -39 75 -44 123 -24 28 12 34 11 62 -9 22 -15 31 -30 31 -49 -1
-60 9 -114 22 -126 8 -7 40 -20 72 -30 78 -23 105 -49 114 -111 l8 -50 68 -6
c37 -3 69 -8 72 -11 3 -3 -45 -8 -107 -12 -223 -13 -248 -17 -279 -43 -19 -17
-29 -34 -29 -53 0 -44 10 -59 50 -80 43 -22 50 -35 50 -96 0 -39 3 -46 26 -54
72 -28 528 4 592 41 18 10 39 19 45 19 7 0 3 -6 -8 -12 -28 -16 -35 -28 -35
-65 l0 -33 -64 0 c-44 0 -67 5 -76 15 -19 23 -78 18 -155 -14 -67 -27 -70 -29
-70 -62 l0 -34 71 -5 c68 -5 74 -7 135 -58 35 -28 79 -59 97 -68 20 -9 32 -22
32 -34 0 -27 -7 -25 -36 9 -14 17 -41 33 -66 39 -61 15 -264 26 -331 18 -50
-7 -59 -11 -72 -36 -8 -16 -15 -37 -15 -46 0 -28 -47 -89 -104 -134 -34 -27
-136 -81 -276 -145 -122 -57 -225 -107 -230 -111 -4 -5 -10 -35 -13 -66 -5
-53 -3 -59 19 -77 14 -11 59 -34 101 -51 l77 -32 188 27 c230 33 302 27 349
-32 10 -12 6 -11 -15 5 -61 47 -147 34 -201 -30 -19 -22 -32 -28 -63 -28 -21
0 -65 -9 -97 -20 -36 -12 -85 -20 -129 -20 -94 -1 -158 -34 -195 -102 -15 -25
-57 -82 -95 -125 -84 -95 -136 -171 -136 -197 0 -11 8 -28 17 -39 17 -18 17
-20 -6 -38 -13 -10 -31 -19 -40 -19 -9 0 -37 -16 -63 -35 -52 -38 -56 -51 -36
-117 15 -50 5 -60 -64 -62 l-53 -1 -9 -62 c-9 -64 -18 -76 -34 -47 -6 11 -20
14 -48 12 l-39 -3 -8 -74 c-4 -41 -6 -80 -3 -87 7 -18 77 -18 123 -2 29 10 35
10 46 -7 12 -15 22 -17 63 -12 45 5 42 -1 -8 -17 -19 -6 -33 -47 -25 -71 4 -8
28 -26 56 -39 34 -18 51 -33 53 -48 2 -14 31 -44 82 -82 66 -49 88 -60 128
-64 44 -4 48 -7 42 -26 -4 -11 -12 -23 -18 -25 -11 -4 -51 -45 -97 -100 -16
-18 -36 -31 -50 -31 -22 0 -22 1 -4 13 15 12 17 24 13 86 -3 39 -8 75 -12 78
-3 3 -41 8 -84 11 -61 3 -83 9 -106 27 -27 22 -28 24 -12 46 20 29 22 112 2
128 -26 21 -81 25 -99 6 -9 -9 -17 -22 -17 -30 0 -7 -10 -15 -22 -19 -36 -9
-106 -7 -113 4 -19 30 -104 -9 -130 -60 l-16 -30 -99 0 c-106 0 -129 -6 -175
-43 l-29 -25 15 -47 c8 -27 21 -51 29 -56 57 -28 151 -59 181 -59 33 0 38 -4
52 -38 14 -35 20 -39 73 -51 56 -13 58 -12 76 10 10 13 21 41 24 62 5 27 17
45 44 67 21 17 41 41 44 56 7 27 12 27 84 -3 33 -14 34 -16 28 -53 -5 -34 -3
-41 25 -64 33 -28 59 -32 90 -15 21 11 59 4 59 -12 0 -5 -7 -9 -15 -9 -8 0
-29 -13 -47 -28 -28 -24 -40 -28 -75 -24 -35 3 -43 0 -53 -18 -18 -34 -6 -50
40 -50 22 0 40 -4 40 -10 0 -5 -22 -10 -49 -10 -44 0 -50 3 -53 22 -3 20 -9
23 -48 23 -42 0 -46 -2 -66 -41 -35 -66 -38 -83 -19 -105 10 -10 33 -22 52
-25 44 -8 33 -18 -38 -33 -48 -10 -59 -17 -69 -41 -16 -38 -7 -50 41 -50 50 0
51 -16 0 -24 -21 -3 -44 -13 -51 -21 -7 -8 -18 -15 -25 -15 -7 0 -18 -7 -25
-15 -7 -8 -22 -15 -35 -15 -26 0 -60 -34 -52 -53 8 -21 76 -28 191 -21 105 7
176 0 176 -16 0 -5 -9 -12 -20 -15 -11 -3 -25 -16 -31 -27 -18 -33 10 -52 76
-52 53 0 55 -1 55 -26 0 -37 21 -61 60 -69 l34 -7 -37 -21 c-33 -20 -37 -27
-37 -62 0 -46 13 -56 79 -67 30 -5 46 -3 59 9 27 24 89 29 228 17 162 -13 177
-23 229 -151 8 -19 19 -25 55 -29 40 -4 45 -8 48 -32 2 -15 13 -35 25 -43 21
-15 21 -15 1 -15 -11 0 -46 7 -79 15 -67 18 -85 14 -85 -15 0 -21 -10 -26 -26
-11 -5 5 -60 24 -123 42 -107 30 -117 31 -154 18 -22 -8 -42 -20 -45 -27 -6
-20 100 -121 136 -128 22 -4 29 -10 25 -21 -5 -12 -18 -14 -63 -10 -55 5 -118
30 -170 69 -15 11 -51 22 -83 25 l-56 6 1 34 c1 25 -5 38 -23 51 -13 9 -37 28
-53 43 -27 24 -29 29 -16 44 7 9 26 23 42 31 15 8 28 21 28 29 0 20 -94 136
-132 162 -48 34 -126 32 -168 -3 -27 -23 -31 -32 -29 -73 1 -31 -9 -72 -31
-127 l-32 -80 45 -70 c37 -57 77 -135 77 -150 0 -2 -20 -4 -44 -4 -35 0 -47
-5 -60 -25 -30 -46 -17 -65 45 -65 34 0 45 -19 29 -49 -9 -18 -20 -21 -71 -21
-51 0 -77 -8 -178 -54 -272 -123 -345 -204 -267 -297 13 -15 26 -33 28 -39 2
-6 20 -15 40 -19 38 -9 58 0 58 26 0 7 7 13 17 13 15 0 15 -1 0 -18 -26 -28
-22 -67 8 -80 47 -22 120 -25 178 -8 30 9 69 16 85 16 17 0 34 5 38 11 4 7 49
31 100 55 51 24 95 48 99 54 9 15 25 12 25 -6 0 -12 10 -14 46 -12 43 3 50 7
91 59 42 54 44 59 34 94 -9 35 -8 39 20 62 22 19 29 33 29 59 0 36 -7 45 -81
108 l-34 28 44 -6 c40 -6 73 -20 113 -48 14 -10 33 -9 93 3 72 15 76 14 93 -4
9 -11 32 -26 50 -34 17 -7 32 -15 32 -18 0 -2 -12 -36 -27 -76 l-26 -72 22
-19 c21 -16 22 -21 11 -47 -6 -16 -10 -42 -8 -57 3 -27 6 -29 43 -28 22 0 63
4 91 8 l52 8 -5 -26 c-5 -22 -10 -26 -42 -26 -53 0 -100 -32 -99 -67 0 -15 -7
-46 -16 -68 -16 -37 -16 -40 0 -52 25 -18 99 -17 114 2 36 43 59 -15 40 -100
-11 -49 -11 -50 20 -77 42 -38 72 -36 107 9 27 32 36 37 87 41 40 3 61 1 66
-8 4 -7 28 -14 52 -17 44 -5 45 -5 52 27 10 51 7 228 -4 235 -31 19 31 54 133
75 39 8 70 22 92 41 24 21 51 33 95 41 74 13 156 73 184 136 23 52 18 65 -33
81 -59 17 -51 31 18 31 70 0 71 1 71 137 0 50 4 94 10 98 5 3 17 -9 26 -27 22
-43 15 -202 -15 -316 -12 -46 -19 -87 -16 -92 3 -5 22 -12 43 -16 67 -12 69
-22 7 -29 -33 -4 -67 -9 -76 -11 -23 -6 -62 -81 -55 -108 4 -15 -1 -28 -14
-39 -28 -23 -25 -36 11 -51 27 -11 32 -19 33 -49 1 -33 -1 -36 -34 -42 -19 -3
-43 -8 -52 -11 -16 -5 -18 2 -18 48 0 63 -13 86 -75 128 -38 26 -53 30 -109
30 -56 0 -74 -5 -131 -36 l-65 -36 6 -56 c10 -92 27 -116 129 -186 l93 -63
154 -4 153 -4 3 46 3 47 67 4 c64 5 69 4 99 -24 28 -27 35 -29 75 -23 95 15
177 72 163 114 -3 12 -18 28 -33 36 -27 16 -26 16 20 10 33 -4 68 0 116 14
l69 21 18 60 c14 48 16 65 7 85 -15 33 -55 33 -99 -1 l-34 -26 -35 21 c-19 12
-50 21 -68 21 -19 0 -39 7 -47 16 -8 10 -21 13 -36 9 -16 -4 -38 4 -73 28
l-50 34 78 -5 c63 -3 80 -1 91 12 18 21 115 22 165 1 33 -14 39 -14 74 4 50
26 76 55 106 121 31 66 43 135 27 154 -8 10 -5 15 13 24 19 8 27 23 36 69 31
154 30 153 90 153 50 0 141 46 249 128 105 78 117 82 262 82 83 0 100 3 123
21 32 25 62 81 71 133 6 30 15 41 42 54 l35 17 39 -43 c38 -40 42 -42 100 -42
48 0 68 5 97 25 56 38 72 34 72 -20 0 -36 4 -47 22 -56 13 -6 25 -13 27 -15 2
-2 -42 -87 -63 -120 -1 -1 -29 -5 -62 -9 l-62 -7 5 47 c4 33 1 55 -13 80 -18
34 -21 35 -76 35 l-57 0 -44 -82 c-72 -132 -72 -178 -1 -178 21 0 34 -5 34
-12 0 -40 -86 -122 -135 -130 -29 -5 -31 32 -5 119 12 41 19 80 16 88 -4 10
-20 15 -52 15 -42 0 -50 -4 -90 -47 -43 -47 -44 -49 -38 -97 6 -48 6 -49 -17
-42 -51 16 -64 13 -67 -19 -5 -40 -17 -53 -55 -57 -29 -3 -32 -7 -40 -48 l-9
-45 53 -47 c53 -47 56 -48 120 -48 53 0 72 4 93 21 24 19 35 21 87 15 79 -9
207 -42 236 -61 17 -12 21 -21 17 -43 -6 -33 5 -48 80 -106 52 -40 66 -46 108
-46 l48 0 0 50 0 50 55 0 c70 0 102 17 140 74 30 45 48 56 97 56 15 0 33 9 41
20 13 19 14 19 30 2 16 -18 15 -20 -23 -51 -22 -17 -40 -39 -40 -47 0 -8 16
-22 35 -31 40 -19 41 -24 18 -60 -17 -25 -16 -26 15 -54 18 -16 43 -29 56 -29
27 0 86 -44 86 -65 0 -25 25 -33 90 -26 61 6 66 8 92 46 19 28 27 53 28 82 0
41 -1 42 -65 75 -62 31 -65 34 -65 69 0 40 -39 99 -66 99 -8 0 -14 10 -14 24
0 59 -125 74 -154 18 l-13 -25 -7 39 c-14 70 -15 71 -108 67 -73 -3 -88 -1
-123 19 -29 17 -40 30 -40 48 0 48 97 43 170 -10 47 -33 159 -53 265 -48 64 3
65 4 88 43 27 47 25 115 -5 165 -21 37 -118 106 -182 130 -25 10 -73 34 -106
54 -32 20 -74 42 -92 48 -29 11 -33 16 -33 50 0 32 5 40 30 53 37 19 39 52 5
89 l-24 26 32 16 c68 35 87 72 45 91 -32 14 184 56 242 47 50 -8 60 2 60 62 0
36 3 42 24 46 20 4 26 0 31 -20 3 -14 16 -39 27 -55 l20 -28 -21 -23 c-23 -25
-28 -78 -8 -93 6 -6 38 -13 69 -16 47 -4 62 -11 83 -34 32 -37 68 -110 60
-123 -3 -5 -32 -17 -63 -26 -31 -9 -60 -22 -64 -28 -13 -19 -9 -66 6 -72 11
-4 11 -11 1 -42 -8 -22 -10 -53 -6 -77 6 -35 10 -40 43 -48 30 -7 37 -14 40
-35 3 -24 7 -27 43 -27 34 0 40 3 43 22 5 34 43 30 71 -8 20 -27 27 -30 69
-27 l47 3 3 51 c2 43 -2 60 -28 100 -46 73 -42 106 26 178 l55 58 58 -50 c31
-28 68 -52 82 -54 18 -2 25 -10 27 -30 5 -41 25 -52 61 -33 27 13 31 14 31 1
0 -8 8 -20 18 -25 15 -10 14 -13 -13 -33 -57 -41 -104 -98 -116 -138 -11 -37
-10 -42 12 -66 13 -14 53 -39 89 -57 57 -27 76 -31 149 -32 112 0 120 10 127
153 5 110 -5 144 -49 159 -20 6 -20 7 8 13 26 5 30 10 28 38 -2 54 -18 65 -94
60 l-66 -4 -7 89 c-7 88 -6 92 34 198 l41 109 -23 31 c-23 29 -24 30 -97 24
-41 -3 -102 -5 -137 -5 l-64 0 -19 -39 c-22 -42 -41 -51 -113 -51 -41 0 -46 2
-41 20 9 32 -15 50 -66 51 -45 0 -47 1 -84 60 -32 48 -37 62 -27 74 7 8 10 24
7 34 -9 36 21 31 46 -8 25 -38 26 -38 108 -46 90 -7 102 -2 116 54 6 23 8 24
89 18 51 -4 102 -14 132 -27 28 -12 61 -20 74 -18 21 3 23 9 26 65 4 75 16 86
94 81 46 -3 53 -6 58 -28 10 -45 55 -38 134 20 38 27 74 50 81 50 7 0 20 -11
29 -24 15 -24 15 -25 -37 -42 -64 -20 -77 -30 -77 -58 0 -13 -12 -28 -30 -38
-36 -20 -107 -127 -116 -174 -10 -54 3 -83 72 -158 68 -74 69 -79 43 -144 -18
-43 -9 -56 71 -98 50 -26 77 -34 118 -34 67 0 87 11 113 62 17 34 19 45 9 66
-13 30 -5 39 37 48 l32 6 -6 -70 c-6 -68 -5 -71 22 -96 39 -36 81 -45 177 -39
82 6 84 7 170 67 87 61 102 82 73 106 -19 16 -19 29 1 107 l16 62 -27 36 -27
35 28 10 c16 6 35 13 42 15 13 5 15 30 6 87 -6 33 -11 38 -64 57 -65 24 -80
37 -89 84 -8 37 -34 45 -92 28 -53 -16 -89 -48 -89 -79 0 -35 -8 -46 -47 -65
-35 -19 -51 -63 -34 -96 6 -11 27 -33 47 -49 l35 -29 -34 -22 c-47 -29 -67
-27 -67 4 0 29 -19 39 -93 50 -45 7 -58 17 -37 30 24 15 9 43 -32 61 l-43 18
52 6 c72 8 93 29 93 96 0 29 -4 64 -9 77 -10 25 -55 47 -97 47 -30 0 -31 12
-2 25 13 6 24 19 26 30 5 26 41 65 61 65 9 0 21 -10 26 -22 14 -32 68 -37 88
-8 15 21 41 19 50 -4 9 -22 57 -29 83 -11 26 17 64 84 64 113 0 11 7 25 15 32
17 14 19 43 5 69 -7 14 -4 21 15 31 31 17 44 6 21 -19 -14 -15 -15 -23 -5 -45
10 -21 10 -34 0 -61 -10 -29 -10 -40 5 -71 16 -33 16 -38 1 -70 -15 -31 -15
-36 2 -76 l18 -43 137 -43 c113 -36 140 -49 158 -73 12 -16 30 -31 39 -34 28
-9 59 12 59 40 0 35 14 38 62 14 41 -21 104 -29 126 -15 5 3 13 32 17 63 10
79 17 90 69 97 59 9 83 -5 107 -60 19 -43 21 -44 65 -44 63 0 82 13 95 66 21
83 80 87 120 7 l27 -52 -82 -3 -81 -3 0 -45 c0 -40 3 -46 30 -60 17 -8 73 -17
132 -20 56 -3 106 -9 111 -15 5 -5 7 -31 4 -56 -3 -40 -8 -48 -35 -60 -29 -13
-32 -18 -32 -59 0 -43 2 -46 44 -66 24 -12 50 -33 58 -47 20 -39 46 -49 104
-41 67 9 89 31 89 88 0 27 6 48 15 56 11 9 15 26 13 54 -2 33 -7 41 -28 46
-22 6 -20 8 17 14 24 4 45 12 49 17 11 19 63 10 75 -13 33 -63 68 -95 111
-101 38 -5 46 -2 80 29 29 26 44 33 62 28 18 -4 32 2 57 25 37 36 50 35 64 -4
9 -25 6 -30 -25 -56 -23 -19 -45 -29 -68 -29 -45 0 -68 -14 -76 -46 -9 -35 6
-50 64 -64 l50 -12 0 -43 c0 -26 6 -47 15 -55 14 -11 13 -14 -1 -24 -23 -17
-14 -58 16 -73 14 -7 54 -13 90 -13 54 0 72 5 103 26 23 15 40 36 43 52 4 19
17 32 45 45 29 14 39 25 39 42 0 20 -7 25 -35 31 -19 3 -35 9 -35 13 0 3 20
18 45 33 34 21 47 36 52 60 6 29 7 30 14 10 7 -19 17 -22 74 -24 36 -1 75 -2
88 -2 19 -1 22 4 22 39 0 38 -2 40 -32 43 -18 2 -33 7 -33 11 0 5 18 36 41 70
29 44 39 67 34 82 -8 23 -60 49 -100 49 -14 0 -25 2 -25 5 0 3 19 29 43 58 23
29 49 67 56 84 12 29 11 35 -18 76 -16 24 -44 50 -61 57 -25 10 -30 18 -30 46
0 31 2 33 37 36 31 2 39 8 47 31 9 24 6 31 -17 54 -38 38 -135 45 -195 14 -43
-22 -50 -38 -32 -71 7 -13 5 -21 -6 -31 -9 -7 -27 -34 -40 -61 -27 -52 -55
-63 -74 -28 -18 35 -72 27 -110 -16 -48 -55 -40 -86 38 -149 l64 -50 -32 -3
c-17 -2 -97 13 -177 33 -185 47 -243 41 -243 -26 0 -22 -5 -29 -19 -29 -11 0
-26 -2 -33 -5 -9 -4 -22 10 -36 40 -21 43 -24 45 -63 45 -38 0 -41 2 -35 23
26 89 29 118 17 143 l-11 26 72 -3 72 -4 23 34 c13 19 23 49 23 68 0 35 -21
95 -42 121 -7 8 -11 29 -10 46 3 28 -2 35 -33 51 -29 16 -32 21 -18 27 31 12
98 9 118 -6 11 -7 36 -16 56 -20 28 -5 39 -2 54 14 24 27 55 26 55 -1 0 -12 8
-23 19 -26 14 -4 21 -15 23 -41 4 -43 25 -52 140 -54 91 -1 118 14 118 66 -1
39 -16 66 -58 101 -41 35 -87 101 -96 140 l-7 30 23 -26 c37 -43 69 -57 146
-65 56 -5 75 -11 83 -25 15 -28 54 -24 78 9 17 23 22 25 31 12 14 -22 12 -34
-10 -60 -11 -13 -20 -29 -20 -36 0 -18 33 -34 72 -34 18 0 42 -7 52 -15 26
-20 128 -20 167 0 27 15 33 14 75 -4 45 -20 45 -20 107 -1 34 11 88 20 119 20
49 0 58 -3 63 -21 7 -20 11 -20 63 -13 92 14 147 9 198 -17 68 -35 76 -53 39
-84 -29 -24 -29 -25 -11 -40 29 -22 88 -19 103 4 7 10 36 27 65 36 70 23 98
41 98 65 0 29 18 34 75 20 50 -12 55 -11 84 9 46 33 43 71 -9 105 -22 14 -40
31 -40 36 0 13 27 13 35 0 12 -20 105 -60 139 -60 40 0 87 16 98 33 16 25 7
45 -33 72 -39 25 -40 28 -25 43 13 13 43 18 129 22 99 5 118 9 159 34 65 38
106 78 114 112 4 16 24 55 46 86 39 59 46 86 26 106 -8 8 -5 14 15 21 24 9 27
16 27 60 l0 50 38 6 c72 12 80 15 128 55 27 22 71 47 99 56 81 27 105 58 65
85 -17 13 -18 18 -8 62 10 41 9 52 -5 76 -19 32 -14 41 20 41 17 0 23 6 23 23
0 19 -9 28 -41 40 -49 19 -43 37 11 37 52 0 68 8 86 41 l15 29 37 -16 c20 -9
42 -18 48 -21 19 -7 80 54 97 96 9 21 20 90 26 153 6 63 16 130 22 147 11 31
9 35 -25 70 -20 20 -36 41 -36 47 0 6 12 21 26 35 27 24 84 132 84 157 0 8 14
44 30 82 24 54 30 83 30 135 0 61 4 75 46 151 l45 84 -14 117 -14 118 38 40
c30 31 39 49 39 75 0 29 8 42 47 76 l48 42 3 100 4 101 -43 26 c-34 22 -50 26
-86 22 -53 -6 -90 -37 -99 -83 -3 -17 -18 -43 -32 -57 -42 -38 -182 -106 -235
-113 -57 -8 -127 15 -156 52 -17 22 -18 29 -7 67 10 36 19 45 65 68 30 15 57
33 62 41 14 21 11 116 -3 125 -7 4 -31 10 -52 13 l-39 5 -19 80 c-15 69 -23
84 -55 111 l-36 32 31 43 c37 50 39 71 11 124 -24 47 -21 111 12 260 19 85 23
93 73 145 50 51 54 60 60 115 4 33 18 106 32 162 l26 103 -21 43 c-12 24 -21
51 -21 60 0 10 -17 36 -38 60 -21 23 -41 50 -45 59 -3 10 0 50 8 90 14 77 12
74 114 156 45 36 53 58 70 187 19 137 -7 202 -133 334 -46 47 -85 93 -88 101
-3 8 1 56 8 105 19 125 18 158 -7 189 -20 25 -20 28 -5 45 21 24 20 47 -5 87
-19 31 -19 35 -5 63 26 50 21 95 -15 125 -17 14 -37 26 -44 26 -21 0 -106 117
-151 207 -17 37 -33 55 -50 59 -24 6 -24 8 -18 84 6 64 3 88 -15 143 -27 80
-53 115 -88 119 -20 2 -29 10 -35 34 -9 35 -42 54 -93 54 -32 0 -35 3 -35 28
0 15 -11 43 -25 62 -14 19 -25 44 -25 56 0 16 -26 38 -109 93 l-109 73 16 28
c15 25 15 30 0 52 -9 14 -61 55 -115 91 -132 88 -138 96 -157 196 -9 46 -16
85 -16 86 0 2 -45 27 -100 56 -55 29 -106 59 -112 67 -8 9 -11 41 -9 83 1 38
0 78 -4 88 -8 25 -109 107 -265 216 -69 47 -208 157 -309 243 -142 122 -188
167 -205 202 -18 39 -31 50 -98 85 -95 49 -157 108 -210 200 -31 53 -86 115
-228 255 l-187 185 -18 67 c-18 72 -26 83 -66 93 -21 5 -25 11 -21 33 3 21 -9
42 -56 97 -32 39 -75 83 -95 97 -32 25 -35 33 -42 95 l-7 68 -139 152 -139
152 0 60 0 59 -69 62 c-67 60 -70 64 -77 118 -8 70 -43 123 -116 182 -98 78
-133 93 -203 91 -56 -2 -73 3 -142 37 -43 22 -159 75 -258 117 -210 91 -747
353 -920 450 -108 61 -292 178 -415 265 -58 41 -170 97 -470 237 -399 185
-616 312 -738 434 -114 113 -143 193 -102 286 22 52 82 115 252 265 130 116
163 218 124 390 -62 270 -29 459 100 578 72 65 214 134 330 161 416 94 520
135 709 278 82 63 259 102 545 121 90 6 193 17 229 25 87 21 182 73 270 149
131 114 294 178 722 286 335 84 743 203 866 252 100 40 176 79 483 251 178
100 275 140 378 156 125 19 280 88 452 201 169 111 228 180 355 410 71 129
109 178 152 196 47 20 55 18 114 -23 47 -33 61 -38 109 -37 67 0 167 45 362
162 163 98 254 144 344 174 63 21 84 23 235 20 165 -2 166 -2 205 24 21 15 65
56 98 91 60 66 100 93 136 93 18 0 20 6 20 66 0 80 -23 186 -60 273 l-28 66 9
160 c13 214 79 623 116 708 46 108 34 221 -30 287 -41 42 -75 56 -200 81 -134
26 -184 52 -215 109 -44 83 -14 169 124 360 42 58 89 129 106 158 24 41 40 57
72 70 191 76 359 223 550 481 207 281 264 338 393 397 280 129 297 142 379
310 83 171 121 196 427 283 181 52 252 78 370 137 112 57 236 94 312 94 78 0
186 -33 261 -79 137 -85 149 -91 191 -91 110 0 184 80 163 176 -11 50 -58 95
-106 103 l-39 6 -36 160 c-21 88 -44 174 -53 192 -17 36 -64 63 -140 82 -80
20 -126 47 -126 76 0 38 -143 178 -213 210 -88 38 -104 76 -67 156 11 24 20
54 20 66 0 33 -57 84 -162 147 -117 70 -131 83 -219 208 -147 211 -138 201
-259 264 -63 33 -124 72 -141 91 -27 32 -28 35 -15 66 7 18 30 59 50 92 47 76
46 110 -4 140 -30 17 -56 21 -177 23 l-142 4 -10 31 c-5 18 -15 58 -21 89 -21
107 -80 138 -265 138 -52 0 -97 4 -100 10 -3 6 -14 10 -24 10 -13 0 -20 -10
-24 -37z m315 -53 c30 -14 44 -42 58 -119 6 -30 18 -68 28 -85 l18 -31 130 0
c129 -1 204 -15 204 -38 0 -7 -21 -46 -45 -87 -61 -102 -62 -142 -2 -197 23
-21 88 -62 144 -91 l102 -52 115 -164 c122 -172 124 -175 281 -269 33 -19 73
-49 88 -65 l28 -29 -21 -47 c-41 -97 -15 -161 86 -211 79 -39 194 -155 194
-196 0 -25 8 -33 58 -58 32 -16 78 -34 102 -40 72 -19 100 -32 112 -54 6 -12
30 -102 52 -202 l42 -180 42 -1 c99 -2 133 -113 50 -164 -56 -34 -95 -27 -189
35 -135 89 -242 121 -369 112 -85 -6 -169 -34 -355 -121 -76 -35 -185 -74
-300 -107 -217 -61 -325 -109 -378 -168 -21 -23 -60 -88 -87 -145 -58 -121
-107 -172 -208 -218 -231 -104 -253 -117 -327 -191 -39 -39 -131 -153 -205
-251 -210 -282 -375 -432 -548 -497 -56 -21 -66 -29 -87 -69 -12 -25 -62 -99
-109 -165 -103 -142 -154 -241 -162 -311 -14 -112 66 -208 195 -235 230 -47
269 -68 291 -160 13 -55 8 -91 -25 -169 -34 -78 -94 -460 -110 -698 l-13 -193
28 -62 c31 -70 57 -170 62 -237 2 -41 0 -45 -21 -48 -14 -2 -66 -44 -121 -98
-59 -58 -110 -98 -130 -104 -20 -6 -62 -5 -114 1 -193 25 -327 -18 -632 -201
-154 -93 -264 -147 -320 -156 -34 -5 -46 -1 -94 32 -45 31 -64 38 -101 37 -87
-1 -136 -46 -228 -208 -28 -49 -54 -96 -58 -102 -6 -9 -36 5 -110 49 -137 82
-219 150 -369 308 -163 170 -179 202 -179 356 0 110 0 112 40 190 32 62 54 90
111 138 91 79 114 111 114 163 0 62 -32 94 -133 132 -90 34 -103 44 -165 137
-81 121 -132 143 -282 125 -116 -14 -139 -8 -245 59 -44 28 -98 55 -120 61
l-40 11 28 24 c17 14 41 24 60 24 155 2 478 21 499 29 16 6 37 25 49 43 24 39
21 80 -12 189 -39 127 -10 198 145 367 58 63 117 139 136 173 28 53 32 71 32
133 0 53 -5 83 -20 112 -49 96 -123 122 -275 94 -45 -9 -63 -8 -94 5 -71 30
-70 57 2 138 74 83 105 146 105 214 0 70 -17 108 -94 212 -77 104 -96 140 -96
181 0 77 59 144 185 211 82 43 128 78 148 114 7 11 14 78 17 149 l5 129 99 58
c219 125 320 213 691 602 168 175 188 187 447 251 195 49 288 85 574 217 109
51 242 111 295 134 53 23 112 54 132 69 44 34 73 93 82 167 10 91 29 111 162
175 198 94 226 136 303 462 66 277 114 348 260 392 99 30 115 63 99 208 -5 46
-7 86 -5 90 7 12 239 -4 268 -18z m-3462 -2912 c0 -139 -20 -171 -151 -239
-102 -53 -152 -98 -185 -165 -22 -46 -26 -63 -21 -108 6 -65 19 -91 92 -187
31 -41 65 -91 76 -111 39 -76 17 -157 -65 -247 -62 -68 -76 -91 -76 -132 0
-47 37 -93 87 -110 24 -8 70 -9 145 -4 126 8 157 0 187 -49 31 -49 36 -106 16
-165 -19 -58 -55 -107 -173 -233 -143 -155 -174 -255 -128 -407 31 -102 32
-113 5 -137 -18 -16 -47 -19 -257 -26 -130 -5 -252 -11 -270 -14 -34 -5 -112
-67 -112 -89 0 -6 -24 -17 -54 -24 -174 -39 -307 -199 -371 -446 -14 -57 -34
-108 -45 -119 -17 -18 -24 -19 -70 -8 -85 20 -168 15 -228 -13 -105 -49 -157
-105 -282 -303 -102 -164 -434 -628 -489 -685 -92 -96 -166 -111 -344 -68
-110 26 -220 28 -285 3 -80 -31 -139 -78 -287 -228 -124 -127 -149 -147 -218
-180 -126 -59 -210 -59 -277 2 -47 42 -73 108 -89 219 -35 240 -57 280 -229
409 -111 84 -186 200 -223 344 -25 99 -26 213 -1 235 17 15 119 47 151 47 29
0 177 79 222 118 25 23 61 69 79 104 28 53 35 76 38 144 5 98 -7 142 -56 196
-62 69 -123 91 -297 108 -168 16 -208 31 -274 99 -69 71 -86 81 -149 81 -37 0
-70 -10 -143 -46 -177 -87 -307 -126 -477 -145 -226 -24 -455 40 -634 178 -83
63 -124 124 -221 324 -108 222 -139 258 -294 330 -159 74 -207 130 -184 216
15 56 61 105 185 198 61 46 133 106 161 134 27 28 53 51 57 51 4 0 12 -27 19
-60 7 -39 20 -68 36 -84 42 -43 201 -113 393 -176 294 -97 352 -108 699 -140
343 -32 505 -70 676 -159 l70 -36 205 0 c144 1 247 7 345 20 88 12 201 19 305
20 184 0 199 -3 400 -82 149 -59 274 -85 420 -86 133 -2 192 13 285 68 86 52
216 164 242 210 30 52 61 151 74 236 13 86 -3 155 -65 284 -62 128 -111 173
-261 245 -66 32 -130 69 -141 82 -12 12 -56 74 -97 135 -66 99 -78 123 -96
202 -40 169 -44 321 -11 393 22 47 44 49 810 52 l175 0 120 -45 c161 -61 214
-73 315 -72 85 0 95 3 345 81 72 22 104 26 315 32 253 8 331 19 468 69 115 43
112 44 112 -41z m-6531 -883 c52 -18 165 -90 254 -162 l69 -55 -64 -65 c-34
-35 -98 -89 -140 -119 -150 -106 -210 -186 -212 -279 -1 -101 65 -173 217
-235 132 -55 175 -104 286 -334 76 -156 100 -197 148 -248 71 -74 149 -128
257 -178 123 -57 192 -72 356 -77 167 -6 281 10 423 57 48 17 91 30 95 30 14
0 93 -109 117 -162 47 -101 29 -155 -75 -223 -107 -71 -129 -136 -111 -328 12
-127 2 -192 -36 -238 -37 -44 -83 -64 -218 -94 -206 -46 -311 -103 -533 -289
-377 -315 -722 -670 -1047 -1076 -194 -243 -218 -261 -395 -299 -164 -35 -208
-55 -413 -190 -240 -157 -300 -177 -512 -167 -198 8 -305 -13 -358 -72 -18
-19 -19 -19 -140 18 -67 21 -165 54 -218 74 -230 86 -259 107 -289 205 -54
183 -168 244 -505 271 -338 27 -647 100 -930 220 -138 58 -195 92 -244 145
-50 54 -61 81 -61 144 0 55 21 119 79 244 79 170 90 255 45 345 -55 111 -152
150 -419 168 -67 4 -93 9 -80 15 11 4 72 28 135 52 108 42 498 211 850 369
183 82 406 200 707 374 491 285 787 507 1173 879 86 82 218 208 293 278 75 70
166 164 202 209 113 142 182 302 212 493 8 55 19 107 23 115 10 22 71 24 170
6 138 -26 267 -2 473 88 235 102 328 122 416 91z m2025 -1624 c75 -76 127 -98
258 -112 150 -16 239 -36 281 -65 75 -51 100 -154 62 -264 -36 -107 -173 -210
-320 -240 -92 -18 -141 -43 -161 -81 -24 -48 -14 -206 20 -314 46 -146 114
-238 255 -346 130 -100 149 -134 176 -309 31 -202 63 -271 147 -323 94 -59
235 -42 365 42 34 22 126 104 205 183 214 215 265 236 477 192 223 -46 304
-33 404 68 59 60 413 552 507 705 115 189 195 269 297 299 50 15 60 15 118 0
79 -20 98 -20 135 -1 38 20 58 59 85 170 33 133 78 218 155 296 84 85 152 113
253 106 54 -3 78 -11 120 -37 29 -19 76 -47 106 -63 l54 -30 129 7 c168 8 179
3 258 -114 64 -95 87 -113 198 -155 115 -43 114 -82 -2 -174 -115 -92 -176
-211 -184 -361 -5 -100 13 -186 55 -258 36 -62 278 -309 374 -382 42 -31 117
-81 167 -110 l91 -52 -29 -43 c-98 -143 -413 -340 -618 -386 -48 -11 -107 -24
-132 -30 -66 -15 -201 -81 -433 -213 -113 -64 -245 -134 -294 -155 -148 -64
-541 -181 -948 -281 -395 -97 -566 -168 -718 -294 -144 -121 -215 -143 -532
-165 -285 -20 -419 -57 -538 -148 -135 -103 -294 -166 -561 -223 -82 -17 -172
-41 -200 -52 -215 -84 -338 -205 -376 -367 -16 -70 -7 -302 15 -391 44 -175
12 -256 -158 -397 l-89 -73 -88 0 c-166 0 -468 -49 -603 -97 -65 -24 -84 -26
-201 -25 -143 2 -192 -11 -242 -65 -52 -56 -106 -189 -123 -301 -6 -44 -8 -47
-36 -45 -20 2 -46 19 -84 57 -70 69 -95 78 -185 70 -67 -6 -74 -5 -102 19 -17
14 -45 54 -63 87 -60 113 -116 160 -189 160 -52 0 -87 -28 -120 -99 -42 -87
-59 -93 -272 -88 -190 3 -226 12 -237 55 -10 41 22 86 89 123 153 86 198 149
198 274 0 92 -8 112 -77 203 -49 64 -57 81 -61 126 -8 101 50 181 151 206 56
15 103 63 111 112 3 18 7 76 10 128 10 181 53 261 171 320 l70 35 155 -1 155
0 156 -52 c185 -61 268 -73 334 -48 65 25 85 56 85 129 0 54 -6 71 -60 172
-36 67 -60 125 -60 143 0 19 12 47 33 74 33 44 54 56 229 138 116 54 150 102
127 184 -14 51 -51 83 -118 102 -127 37 -140 57 -116 180 21 106 10 152 -49
209 -84 81 -230 133 -404 144 l-102 6 97 110 c266 302 680 695 940 892 97 73
224 130 353 158 193 42 246 72 288 163 25 54 25 58 18 219 -8 207 -1 230 96
293 78 51 109 94 116 159 6 68 -19 136 -83 226 l-54 75 67 35 c42 21 82 34
107 35 37 0 47 -6 99 -59z m-6639 -1401 c242 -16 320 -36 377 -97 59 -62 63
-140 14 -258 -18 -44 -51 -120 -72 -170 -35 -81 -39 -99 -39 -175 0 -75 3 -91
27 -132 40 -67 99 -113 223 -173 292 -141 619 -226 1002 -260 265 -24 341 -45
419 -117 34 -32 48 -55 64 -105 27 -88 47 -119 99 -154 54 -35 310 -137 444
-175 53 -15 97 -31 97 -36 0 -20 -104 -216 -128 -241 -74 -79 -189 -103 -409
-88 -312 22 -471 -23 -834 -234 -262 -154 -354 -187 -624 -229 -88 -14 -194
-37 -235 -51 -109 -40 -271 -124 -422 -222 -73 -47 -179 -114 -235 -148 -102
-63 -102 -63 -165 -58 -35 3 -164 0 -288 -6 l-226 -11 -92 26 c-51 14 -172 54
-268 90 -160 58 -284 92 -464 125 -36 7 -126 12 -200 11 -180 -2 -198 4 -285
93 -108 110 -99 108 -359 103 -183 -3 -228 -7 -261 -21 -50 -23 -83 -53 -100
-94 -17 -41 -46 -47 -201 -38 -142 8 -137 2 -74 95 l40 59 0 168 c0 225 -9
241 -164 283 -62 16 -89 30 -122 60 -45 41 -92 59 -220 80 -60 10 -89 22 -185
82 -258 159 -292 188 -372 320 -40 66 -83 190 -72 207 10 18 78 31 159 31 427
0 1175 271 1607 582 182 131 240 157 489 216 118 29 296 70 395 93 335 76 431
118 607 266 230 195 331 242 603 278 66 8 145 22 175 30 30 7 66 12 80 10 14
-2 102 -9 195 -15z m4820 -986 c87 -17 199 -71 245 -119 38 -39 40 -51 25
-192 -4 -39 -5 -82 -1 -96 10 -41 55 -76 126 -97 78 -23 106 -44 115 -81 11
-44 -35 -83 -150 -130 -137 -56 -183 -91 -226 -173 -32 -60 -23 -115 38 -222
68 -119 82 -164 59 -199 -39 -59 -125 -57 -310 6 -147 50 -242 68 -362 69
-216 0 -338 -62 -406 -207 -26 -55 -31 -80 -38 -192 -10 -162 -20 -185 -94
-206 -123 -36 -193 -136 -184 -264 4 -61 27 -106 93 -189 96 -120 55 -266 -95
-342 -107 -54 -150 -105 -150 -179 0 -49 35 -94 88 -112 25 -9 99 -13 227 -14
231 0 249 6 301 101 42 77 49 84 82 84 35 0 80 -41 117 -105 83 -147 112 -167
239 -163 l86 3 52 -57 c51 -54 110 -84 149 -76 17 4 50 -131 37 -154 -4 -10
-26 -22 -47 -28 -68 -18 -86 -39 -132 -158 -7 -17 -14 -22 -27 -17 -9 4 -69
24 -132 45 -63 21 -169 64 -235 96 l-120 57 -200 7 c-228 7 -227 7 -373 101
-116 76 -164 92 -246 87 -50 -3 -71 -10 -100 -31 -44 -34 -66 -74 -66 -122 0
-50 20 -84 82 -140 62 -56 88 -91 88 -123 0 -37 -36 -97 -84 -139 -49 -43
-232 -138 -343 -177 l-72 -25 -32 45 c-53 73 -163 149 -386 266 -113 60 -163
102 -163 140 0 11 20 43 45 70 36 41 45 57 45 88 0 60 -23 72 -144 79 -117 7
-123 10 -295 151 -55 45 -97 72 -120 77 -20 3 -97 1 -171 -6 -74 -6 -167 -11
-207 -11 -190 0 -425 46 -589 115 -133 56 -162 61 -261 46 -94 -13 -144 -34
-185 -78 -56 -58 -74 -153 -42 -215 62 -119 20 -201 -167 -329 -101 -70 -192
-161 -219 -221 -39 -86 -18 -205 62 -342 22 -38 55 -85 74 -106 28 -31 36 -50
49 -125 21 -122 20 -207 -3 -235 l-19 -23 -46 65 c-32 44 -58 70 -84 81 -59
26 -179 39 -433 47 -278 9 -301 14 -420 100 -152 110 -264 147 -475 158 l-130
7 100 105 c163 171 236 265 350 455 131 217 246 369 338 444 l69 56 -6 160
c-7 159 -7 160 -46 240 -67 140 -71 135 138 206 156 54 164 59 156 108 l-6 38
83 48 c46 27 160 97 253 157 321 209 443 260 719 302 245 37 341 75 631 244
179 104 298 158 413 189 94 25 110 26 378 27 l280 1 59 29 c84 41 128 90 182
203 63 132 103 186 162 214 44 22 59 23 257 25 274 2 310 12 540 165 212 140
250 157 417 194 182 41 224 71 382 269 62 78 119 146 127 153 29 23 158 22
284 -3z m1223 -2631 c-114 -121 -95 -278 52 -423 139 -137 360 -266 805 -470
283 -130 348 -165 509 -275 83 -56 212 -137 286 -180 170 -97 751 -384 930
-460 74 -32 187 -82 251 -112 l116 -55 -2 -201 c-1 -111 -5 -215 -9 -232 -14
-52 -313 -285 -367 -285 -54 0 -187 -41 -275 -85 -178 -89 -324 -96 -509 -25
-97 37 -120 43 -195 44 -73 1 -93 -3 -144 -27 -86 -40 -150 -37 -245 10 l-74
36 -103 -27 c-173 -44 -240 -49 -358 -25 -148 30 -230 12 -309 -68 l-37 -36
-63 11 c-38 6 -102 28 -153 54 l-89 43 -125 0 c-105 0 -137 -4 -199 -24 -71
-23 -78 -24 -155 -12 -156 25 -192 25 -245 2 -58 -25 -123 -27 -145 -6 -9 10
-34 15 -70 15 l-55 0 -38 -57 c-38 -57 -40 -59 -227 -151 -154 -76 -197 -102
-240 -145 -70 -70 -90 -115 -81 -181 7 -60 -6 -80 -50 -74 -24 3 -31 13 -59
88 -67 175 -146 304 -238 384 -29 25 -101 71 -161 102 -170 89 -197 136 -153
264 50 141 33 194 -85 265 -87 53 -100 91 -53 152 41 54 90 79 227 118 219 61
267 96 267 194 0 31 4 61 8 67 13 20 46 31 187 64 77 18 146 39 153 45 12 10
11 18 -2 43 -36 71 -28 165 20 230 34 43 69 60 155 72 125 18 174 63 173 158
0 64 -22 115 -86 200 l-39 53 21 63 c24 73 39 89 98 107 50 14 82 50 82 89 0
14 -9 60 -20 101 -11 41 -20 91 -20 111 0 52 53 213 89 270 46 72 74 82 216
80 81 -2 136 2 170 12 28 8 82 24 120 35 119 36 382 77 509 80 l60 1 -26 -27z
m-5221 -279 c129 -51 258 -86 384 -105 101 -15 417 -16 513 -1 88 14 106 7
222 -90 49 -42 111 -89 138 -107 47 -29 56 -31 143 -31 115 0 124 -10 64 -75
-97 -106 -58 -194 130 -289 165 -84 280 -157 338 -214 55 -54 56 -55 31 -63
-39 -11 -90 -10 -162 5 -93 20 -159 54 -274 141 -150 114 -186 129 -315 130
-96 0 -109 -2 -142 -25 -54 -37 -81 -97 -74 -169 9 -107 62 -178 217 -296 52
-40 103 -81 113 -92 17 -20 16 -22 -38 -72 -121 -110 -248 -157 -400 -148
-141 8 -240 50 -443 186 -299 200 -413 221 -702 126 -288 -95 -380 -63 -498
173 -36 74 -47 107 -50 156 -7 106 41 168 214 282 169 111 224 183 224 291 0
40 -8 74 -25 110 -21 45 -22 57 -13 85 26 75 62 106 148 124 98 22 132 17 257
-32z m2673 -292 c30 -15 91 -51 135 -80 109 -70 163 -82 355 -81 85 0 169 -4
185 -9 17 -6 82 -35 146 -65 64 -30 169 -72 235 -92 110 -35 123 -42 166 -87
57 -59 100 -144 100 -195 0 -55 -42 -89 -119 -98 -119 -13 -174 -44 -219 -121
-31 -52 -44 -161 -26 -213 12 -35 30 -27 -171 -77 -133 -33 -157 -54 -157
-141 0 -49 -4 -58 -31 -84 -29 -27 -108 -56 -279 -103 -118 -32 -210 -122
-210 -203 0 -61 22 -94 92 -138 67 -43 98 -78 98 -110 0 -13 -11 -53 -25 -89
-34 -91 -33 -149 4 -208 34 -54 56 -70 181 -134 135 -69 227 -162 298 -302 28
-57 52 -110 52 -118 0 -11 -9 -13 -37 -9 -263 37 -534 49 -763 37 -293 -17
-360 -47 -521 -230 -45 -51 -46 -52 -102 -52 l-57 0 0 56 c0 51 -3 60 -34 88
-44 42 -95 56 -224 62 -59 3 -117 7 -129 10 -13 2 -41 29 -64 60 -64 87 -70
88 -343 75 -259 -13 -466 -32 -669 -61 -240 -35 -238 -35 -213 89 22 109 16
164 -24 220 -41 56 -116 91 -290 136 -177 45 -231 67 -270 111 -40 46 -58 115
-69 269 -17 220 -74 351 -215 491 l-82 81 19 39 c15 33 17 55 12 139 -3 55 -8
115 -12 134 -5 32 -5 33 18 20 45 -24 182 -15 294 21 343 108 400 100 703
-102 75 -50 170 -106 210 -125 253 -118 489 -93 686 74 119 99 114 134 -36
249 -162 124 -218 195 -218 278 0 85 53 128 154 128 87 -1 158 -31 267 -113
183 -139 263 -170 429 -170 133 0 238 28 405 110 148 73 223 126 263 187 66
99 51 172 -58 279 -81 79 -90 112 -42 158 56 54 107 56 202 9z m-3600 -1286
c234 -42 343 -111 448 -282 61 -98 82 -174 97 -346 12 -139 18 -168 43 -222
46 -99 100 -130 322 -186 168 -42 224 -65 259 -106 48 -54 49 -66 20 -221 -12
-69 -12 -74 7 -100 35 -46 73 -48 292 -19 236 31 478 53 704 62 189 8 194 6
248 -68 49 -68 61 -72 205 -79 82 -4 143 -12 167 -22 46 -19 72 -58 64 -92 -6
-23 -11 -25 -65 -25 -49 0 -65 -4 -90 -26 -56 -47 -58 -99 -16 -317 20 -105
19 -145 -6 -210 -17 -44 -31 -61 -70 -88 -115 -78 -125 -80 -259 -49 -128 29
-158 27 -209 -16 -38 -33 -49 -37 -104 -38 -117 -3 -142 -36 -139 -178 l2 -98
-32 -20 c-40 -24 -129 -27 -226 -5 -37 8 -92 18 -122 22 l-55 8 -28 60 c-71
147 -124 181 -313 195 -104 8 -138 15 -180 35 -71 35 -140 112 -214 239 -35
59 -73 112 -84 117 -32 13 -298 50 -412 56 -119 7 -144 -2 -144 -50 0 -33 22
-76 72 -139 41 -52 48 -83 32 -147 -28 -109 -64 -131 -219 -131 -66 0 -97 4
-113 16 -12 8 -26 13 -31 10 -5 -3 -12 -37 -16 -76 -8 -79 -31 -121 -85 -158
-52 -35 -119 -50 -300 -68 -198 -19 -290 -9 -290 30 0 18 51 61 104 88 22 11
77 46 121 77 44 31 93 62 108 69 19 8 27 18 25 30 -5 26 -183 51 -323 45
l-110 -5 -165 113 -164 113 -231 1 c-126 1 -240 6 -252 11 -22 9 -22 10 -5 43
43 85 127 106 387 97 203 -6 247 -1 291 37 51 44 37 143 -26 189 -14 10 -63
28 -110 39 -92 24 -173 23 -440 -2 -69 -7 -287 -12 -485 -12 -373 0 -507 10
-632 48 l-53 16 16 37 c9 20 21 50 28 65 8 20 97 90 317 248 l306 219 81 123
c77 116 83 129 121 267 23 80 44 146 48 148 5 2 67 33 138 70 l130 67 81 179
c69 154 84 180 110 190 21 10 71 11 189 6 143 -6 166 -10 218 -34 43 -19 74
-26 121 -26 56 0 75 6 173 54 137 67 205 92 318 116 108 22 296 25 405 6z
m9306 -170 c116 -86 154 -140 154 -216 0 -35 6 -44 70 -102 l70 -63 0 -59 0
-59 102 -111 c209 -227 188 -197 188 -268 l0 -64 49 -36 c70 -52 136 -140 136
-181 0 -27 6 -35 40 -52 35 -19 41 -27 54 -80 14 -59 18 -63 206 -250 159
-158 200 -204 240 -273 54 -95 118 -153 219 -201 54 -25 66 -36 79 -69 21 -52
320 -312 516 -450 75 -53 164 -118 198 -146 l63 -51 0 -87 c0 -65 4 -90 16
-102 16 -17 127 -83 179 -107 26 -13 31 -22 46 -97 20 -101 34 -118 172 -209
53 -36 97 -67 97 -69 0 -3 -7 -18 -15 -34 -8 -16 -13 -35 -10 -42 3 -7 53 -44
111 -82 82 -54 108 -77 120 -105 8 -19 21 -42 29 -51 7 -8 15 -35 17 -60 l3
-45 58 -5 c53 -5 58 -7 75 -39 11 -23 28 -38 52 -45 31 -10 38 -18 58 -76 21
-56 23 -77 19 -152 -6 -91 3 -118 39 -118 13 0 42 -47 33 -53 -2 -1 -44 -15
-94 -31 -182 -57 -317 -153 -343 -243 -12 -42 -22 -48 -62 -44 -8 2 -61 33
-117 71 -99 66 -177 100 -232 100 -48 0 -104 -22 -134 -51 l-29 -30 -169 31
c-250 45 -267 42 -299 -38 -16 -42 -70 -78 -135 -92 -77 -16 -106 -3 -126 54
-22 61 -35 75 -88 99 -55 24 -122 16 -157 -18 -19 -19 -24 -35 -24 -75 0 -92
-58 -121 -175 -86 -26 8 -71 30 -99 49 -120 79 -128 82 -276 82 l-136 0 -64
42 c-121 78 -152 85 -286 57 -118 -25 -171 -4 -183 74 -6 35 -8 37 -41 35 -19
-2 -122 -10 -229 -18 -106 -9 -196 -13 -199 -10 -14 14 18 39 77 60 35 13 73
33 84 44 22 22 27 75 9 93 -6 6 -52 12 -104 13 -74 2 -112 9 -184 34 -112 38
-168 40 -233 6 -43 -21 -51 -22 -61 -10 -7 8 -28 15 -46 15 -28 0 -46 -11 -97
-58 -74 -69 -137 -97 -198 -89 -56 7 -80 34 -90 98 -5 30 -17 65 -27 79 -46
62 -155 91 -183 50 -11 -15 -32 -22 -87 -29 -40 -5 -79 -15 -87 -21 -20 -16
-19 -54 1 -71 8 -7 25 -30 36 -52 21 -42 19 -96 -5 -115 -7 -6 -60 -10 -122
-10 -96 1 -120 -2 -184 -25 -133 -48 -197 -34 -281 62 l-49 58 50 49 c119 117
118 223 -2 366 -45 52 -36 75 72 181 67 67 91 98 100 129 13 52 4 108 -27 153
l-24 36 61 39 c33 21 82 46 110 55 60 20 64 42 16 90 -42 42 -75 51 -277 75
-245 29 -243 28 -365 156 -89 93 -90 94 -138 94 -56 0 -107 -24 -159 -74 -20
-20 -44 -36 -53 -36 -28 0 -52 18 -59 44 -8 34 18 114 49 146 40 41 30 63 -30
72 -28 4 -65 10 -83 13 l-34 6 61 64 c56 58 61 67 61 107 0 23 -7 65 -15 91
-22 73 -9 92 100 142 130 61 166 107 167 211 1 82 -25 106 -127 119 -98 12
-104 15 -125 56 -26 50 -51 65 -136 85 -142 32 -145 33 -160 69 -8 19 -14 57
-14 85 0 71 -22 107 -78 133 -64 29 -200 31 -255 3 -22 -11 -46 -16 -60 -12
-12 4 -59 11 -105 15 -46 5 -87 12 -92 17 -6 6 -3 34 5 69 18 76 19 151 2 158
-7 2 -28 -1 -47 -7 -33 -11 -53 -33 -92 -105 -32 -58 -96 -33 -148 58 -116
205 -115 204 -243 211 l-91 5 -10 34 c-6 22 -6 36 0 38 35 12 80 51 106 93 33
53 56 62 92 35 31 -23 147 -20 207 6 48 21 50 21 144 4 110 -19 179 -16 285
15 57 16 94 20 155 18 70 -4 93 -10 185 -52 90 -42 116 -49 186 -54 80 -5 82
-4 100 22 9 15 40 41 68 57 61 34 119 38 229 13 92 -21 197 -14 345 24 l109
29 60 -33 c47 -27 76 -35 134 -40 69 -6 79 -4 129 22 43 23 71 30 130 32 70 3
83 0 195 -44 113 -45 125 -48 210 -47 144 2 214 17 321 73 90 46 235 90 297
90 41 0 358 247 378 295 7 19 13 106 16 235 2 113 6 211 8 218 3 7 22 12 49
12 36 0 54 -8 102 -44z m-4263 -1098 c7 -4 39 -8 72 -8 83 -1 136 -15 157 -42
9 -13 39 -63 64 -111 52 -96 85 -131 141 -146 66 -19 110 3 145 72 23 45 35
42 19 -4 -16 -47 -14 -125 5 -143 18 -19 35 -23 127 -31 38 -3 86 -13 107 -21
37 -15 40 -15 70 7 54 40 212 36 255 -7 10 -10 15 -35 15 -72 1 -110 51 -173
149 -187 25 -3 69 -12 96 -20 43 -12 55 -21 74 -55 31 -56 58 -70 147 -79 90
-8 109 -24 99 -81 -13 -69 -34 -92 -134 -140 -115 -56 -141 -83 -141 -149 0
-27 7 -67 15 -91 19 -53 12 -67 -67 -141 -53 -50 -59 -60 -56 -90 3 -36 6 -37
110 -54 l37 -6 -19 -42 c-12 -26 -20 -65 -20 -100 0 -51 4 -62 29 -88 24 -24
38 -29 76 -29 53 0 79 12 112 50 26 31 97 63 122 55 9 -3 52 -43 95 -90 112
-123 137 -133 388 -160 134 -15 239 -38 237 -53 0 -4 -26 -19 -57 -34 -68 -33
-151 -93 -159 -115 -4 -10 5 -24 25 -40 36 -28 58 -88 48 -129 -5 -17 -43 -63
-96 -114 -129 -126 -138 -171 -56 -271 101 -123 90 -188 -53 -318 -61 -55 -88
-87 -109 -132 l-27 -59 -45 0 c-59 0 -104 -28 -131 -82 -26 -52 -24 -50 -124
-88 -44 -17 -89 -39 -100 -49 -36 -33 -49 -35 -205 -41 -196 -8 -234 -25 -266
-122 -19 -58 -38 -72 -172 -124 -103 -40 -148 -72 -168 -119 -7 -16 -28 -45
-48 -64 l-36 -35 -132 22 c-73 12 -141 22 -152 22 -10 0 -49 29 -86 63 -83 79
-145 110 -228 115 l-63 4 -62 -65 -62 -65 -135 -12 c-135 -11 -281 -36 -375
-64 -27 -9 -50 -14 -51 -13 -1 1 -8 18 -16 37 -13 32 -19 36 -119 65 l-104 30
-5 48 -5 47 -85 42 c-59 30 -89 51 -98 70 -10 22 -21 28 -67 33 l-55 7 26 31
c22 27 25 38 21 77 -3 25 -8 54 -11 65 -5 17 8 28 79 68 89 50 90 52 79 119
-6 34 -10 37 -56 49 -100 23 -183 -5 -286 -97 -57 -51 -65 -55 -79 -42 -13 14
-13 19 2 48 24 47 14 62 -40 59 -24 -2 -47 -1 -50 2 -2 3 22 28 55 55 33 27
60 56 60 65 0 8 -13 28 -29 43 l-29 27 23 23 c12 12 24 28 26 35 4 10 15 8 49
-9 41 -21 45 -21 71 -6 37 22 51 20 119 -14 33 -16 67 -30 77 -30 20 0 128
181 128 215 0 18 -9 21 -108 27 -102 7 -112 10 -197 54 -50 25 -90 49 -90 53
0 7 101 108 152 151 43 36 108 158 108 201 0 25 -8 33 -60 59 -33 17 -60 34
-60 39 0 4 10 16 21 27 12 10 30 38 41 62 17 38 22 42 56 42 20 0 53 -3 73 -6
36 -6 37 -7 32 -45 -3 -21 -3 -49 1 -63 8 -31 52 -56 98 -56 30 0 36 -4 47
-36 17 -47 81 -110 120 -119 20 -4 42 -1 62 9 22 11 37 12 55 6 14 -6 47 -10
74 -10 40 0 55 5 83 30 41 35 57 37 83 9 33 -37 70 -49 145 -49 62 0 88 7 203
51 217 86 245 104 231 151 -4 10 -20 25 -37 34 -16 8 -27 18 -25 21 3 3 45 19
94 37 101 36 110 49 64 102 -17 19 -31 44 -31 55 0 11 -7 22 -16 26 -17 6
-135 -20 -187 -42 -16 -7 -40 -10 -54 -7 -26 5 -25 6 21 46 l48 41 -21 47
c-11 25 -35 64 -54 85 -28 31 -36 51 -46 112 -6 41 -14 78 -17 83 -3 4 -75 8
-161 8 l-156 0 -43 -47 c-43 -47 -65 -110 -50 -148 11 -29 -12 -15 -24 15 -7
17 -21 35 -31 40 -29 16 -84 11 -110 -9 -13 -10 -33 -21 -44 -25 -15 -4 -27
-27 -44 -81 -39 -128 -80 -141 -217 -70 -47 25 -94 45 -104 45 -19 0 -70 -53
-70 -72 0 -16 -84 -2 -133 23 -23 12 -75 44 -115 71 -93 63 -130 78 -187 78
-35 0 -52 -6 -70 -25 -14 -13 -25 -33 -25 -43 0 -15 -9 -22 -37 -27 -21 -3
-57 -17 -80 -30 l-42 -23 -50 48 c-37 35 -53 61 -64 101 -20 70 -35 163 -42
272 -6 101 0 109 65 83 22 -9 71 -19 108 -22 63 -6 72 -4 125 24 53 28 64 31
120 25 78 -7 92 6 93 86 0 31 3 62 7 68 13 20 101 44 185 50 l83 6 -3 45 c-3
42 -6 46 -37 57 -19 6 -36 16 -38 21 -2 8 140 75 159 74 4 0 8 -15 10 -32 l3
-33 65 0 65 0 3 52 c2 29 9 56 17 63 16 13 20 77 7 97 -4 6 -28 21 -54 32 -37
16 -47 26 -53 51 -9 40 5 51 100 81 39 12 75 29 82 37 13 15 34 75 52 148 10
38 15 42 81 69 38 15 79 38 91 51 18 19 33 24 76 24 78 0 98 23 89 103 -5 52
-3 66 18 101 34 58 93 102 226 168 l115 58 18 -42 c10 -23 23 -46 30 -50z
m-793 -247 c96 -12 178 -21 181 -21 4 0 10 -7 13 -16 10 -26 -17 -48 -104 -85
-70 -30 -80 -38 -86 -64 -3 -16 -15 -60 -26 -96 l-21 -67 -60 -18 c-75 -23
-147 -68 -147 -92 0 -10 7 -40 16 -67 15 -43 22 -50 65 -68 51 -22 61 -41 32
-63 -12 -8 -18 -26 -18 -50 0 -21 -5 -39 -12 -41 -7 -3 -13 2 -13 10 0 8 -10
27 -21 42 -27 33 -42 31 -178 -27 -105 -45 -114 -55 -90 -99 5 -11 24 -28 40
-38 l29 -18 -67 -6 c-73 -7 -166 -46 -179 -75 -4 -9 -10 -41 -13 -71 l-6 -54
-72 -1 c-59 -1 -77 -5 -104 -25 -18 -13 -44 -24 -58 -24 -14 0 -80 24 -146 52
-107 46 -134 63 -255 161 -118 97 -139 110 -172 110 -21 0 -38 2 -38 5 0 2 9
27 20 55 26 66 25 109 -6 275 -26 141 -26 193 1 215 17 14 63 16 195 6 115 -9
136 0 208 89 97 121 196 171 371 185 156 13 527 3 721 -19z m-1395 -1057 c23
-18 65 -44 95 -58 l55 -25 22 -118 c25 -130 39 -296 29 -336 -5 -21 -14 -27
-50 -32 -33 -5 -51 -3 -68 9 -34 24 -46 20 -65 -20 -17 -34 -19 -36 -56 -30
-21 4 -65 9 -97 13 -49 5 -64 11 -90 38 l-31 32 39 7 c112 17 116 111 9 233
-24 27 -36 33 -68 33 -40 0 -48 7 -28 27 6 6 14 52 17 103 l7 92 90 47 c86 45
91 46 120 33 17 -8 48 -30 70 -48z m-550 -6 c75 -17 92 -24 84 -34 -18 -22
-69 -32 -176 -37 -102 -4 -103 -4 -103 19 0 13 5 35 12 49 15 32 54 33 183 3z
m77 -228 c-3 -32 0 -55 8 -65 18 -22 8 -28 -31 -17 -33 8 -34 10 -32 57 1 34
7 53 19 62 33 24 41 16 36 -37z m129 -121 c54 -24 59 -33 29 -49 -29 -15 -58
-4 -75 30 -25 48 -23 48 46 19z m2489 9 c0 -7 4 -41 9 -76 8 -51 15 -67 39
-87 16 -14 37 -41 46 -60 l17 -35 -41 -38 c-43 -42 -49 -65 -23 -94 18 -20
110 -26 141 -8 9 5 40 16 69 24 l52 15 21 -36 c11 -20 20 -37 18 -38 -2 -1
-25 -10 -53 -19 -82 -27 -115 -51 -115 -86 0 -23 7 -33 30 -45 17 -9 28 -20
25 -25 -8 -13 -305 -127 -350 -134 -52 -8 -98 6 -141 43 -44 40 -83 40 -126 3
-47 -41 -65 -45 -121 -26 -47 16 -52 16 -82 -1 -30 -15 -35 -15 -62 -1 -37 19
-65 60 -73 106 -5 35 -5 35 -68 40 -37 3 -66 11 -71 18 -5 8 -4 33 1 57 15 72
2 85 -87 85 -41 0 -75 2 -75 6 0 3 11 22 25 42 14 20 25 46 25 58 0 12 7 27
15 34 12 10 25 5 73 -24 101 -61 196 -69 245 -20 23 23 67 121 67 150 0 8 9
14 20 14 10 0 24 9 30 20 7 12 21 20 38 20 21 0 31 -8 47 -38 17 -31 26 -37
57 -40 67 -6 98 29 62 69 -21 23 -14 53 23 102 l28 36 133 1 c99 0 132 -3 132
-12z m-1393 -180 c15 -7 67 -38 114 -69 96 -64 137 -84 197 -94 l42 -7 -29
-41 c-15 -23 -34 -59 -40 -79 -7 -20 -28 -51 -47 -67 -19 -17 -34 -39 -34 -49
0 -23 33 -54 88 -81 36 -19 42 -25 36 -44 -19 -63 -66 -130 -112 -162 -31 -21
-37 -22 -75 -10 -23 7 -81 25 -128 39 l-86 26 -33 77 c-54 129 -81 215 -87
282 l-6 64 -49 21 c-26 11 -48 26 -48 33 0 24 47 61 91 73 87 22 94 26 97 51
2 13 5 30 7 37 6 15 66 16 102 0z m4533 -1133 c39 -20 60 -53 60 -93 0 -91 74
-150 175 -139 68 7 139 44 195 101 48 50 75 58 85 26 9 -27 26 -25 88 10 67
38 112 38 203 4 51 -20 94 -28 164 -31 52 -2 101 -6 109 -9 25 -8 -8 -32 -75
-54 -74 -25 -107 -58 -102 -104 5 -53 30 -57 224 -41 244 21 237 22 257 -20
34 -72 102 -92 233 -68 110 19 146 14 216 -34 102 -69 128 -76 247 -68 71 4
116 3 136 -5 51 -19 10 -31 -86 -24 -119 9 -169 -18 -169 -93 0 -41 -34 -89
-78 -112 -22 -11 -93 -38 -158 -61 -214 -74 -236 -102 -232 -295 l3 -124 -29
-30 c-38 -39 -80 -51 -184 -51 l-83 0 -17 33 c-53 100 -171 169 -292 170 -124
0 -172 -55 -120 -138 22 -36 18 -45 -35 -65 -41 -16 -104 3 -155 47 l-41 35
-80 -22 c-45 -12 -106 -23 -135 -25 -69 -4 -101 -25 -127 -83 -33 -74 -29
-137 12 -200 31 -49 33 -55 18 -69 -14 -14 -21 -11 -79 34 -83 66 -98 73 -156
73 -56 0 -117 -28 -196 -91 -32 -26 -55 -37 -65 -33 -68 30 -131 6 -131 -51 0
-43 30 -65 96 -73 54 -6 70 -30 60 -86 -6 -30 -11 -36 -31 -36 -28 0 -52 21
-77 68 -19 36 -58 50 -93 34 -17 -8 -29 -27 -40 -65 -9 -30 -24 -62 -33 -70
-16 -15 -23 -15 -66 -2 -87 26 -126 13 -126 -44 0 -48 39 -76 132 -95 91 -18
125 -41 133 -90 3 -17 -1 -112 -8 -210 -8 -99 -11 -194 -7 -213 4 -18 22 -55
39 -81 45 -71 42 -79 -31 -89 -55 -7 -62 -11 -71 -36 -14 -44 16 -112 66 -148
46 -33 123 -59 177 -59 30 0 39 -5 48 -25 13 -28 67 -65 95 -65 32 0 71 27
105 73 44 58 101 91 145 82 57 -13 62 -24 22 -60 -47 -44 -45 -69 10 -121 66
-61 59 -87 -11 -39 -55 37 -106 31 -146 -19 -23 -28 -22 -69 2 -134 l20 -53
-44 -47 c-29 -31 -48 -64 -57 -97 l-14 -50 -136 -67 c-129 -64 -139 -67 -170
-56 -35 12 -112 14 -289 8 -117 -5 -152 6 -189 59 -27 38 -88 61 -160 61 l-59
0 -69 69 c-38 38 -92 80 -119 93 l-49 23 -5 122 c-6 146 -15 162 -110 211 -85
43 -147 44 -213 2 -26 -16 -47 -26 -47 -22 0 4 14 48 31 97 16 50 33 117 36
150 l5 60 58 23 c31 12 62 22 68 22 36 0 78 107 67 171 -7 38 -8 39 -49 39
-24 0 -65 -7 -92 -15 -27 -8 -50 -15 -51 -15 -1 0 4 13 10 29 13 37 -4 83 -39
102 -34 17 -89 15 -121 -6 -40 -27 -94 -20 -193 24 -50 22 -106 43 -124 47
l-34 6 20 44 c37 84 15 119 -140 230 -108 77 -162 122 -162 135 0 3 27 16 61
28 97 36 120 94 65 166 -72 94 -10 198 98 167 96 -28 150 -35 193 -23 88 24
94 61 24 152 -64 85 -166 180 -279 259 -63 44 -86 66 -74 69 33 6 104 74 125
120 24 50 46 64 190 122 99 40 132 68 154 131 26 74 42 81 210 89 171 9 195
13 232 45 15 13 63 37 106 53 99 38 122 54 139 94 24 57 50 72 124 72 l66 0 8
44 c7 41 16 59 53 106 15 19 17 18 70 -42 99 -111 175 -126 344 -72 89 28 103
30 186 24 83 -6 92 -5 117 15 53 41 57 141 9 208 -11 17 -21 32 -21 35 0 3 29
8 65 12 40 4 73 14 87 25 28 24 41 24 78 5z m4718 -341 c41 -71 73 -105 109
-121 44 -18 50 -36 29 -91 -16 -44 -16 -47 4 -86 19 -40 19 -40 0 -58 -26 -25
-25 -40 6 -78 24 -28 26 -36 20 -88 -3 -31 -9 -94 -12 -138 l-7 -82 92 -97
c137 -145 150 -178 127 -329 -16 -107 -21 -116 -96 -167 -63 -43 -78 -75 -86
-182 -6 -76 -4 -89 14 -119 11 -18 30 -39 41 -45 11 -7 23 -29 27 -50 4 -21
13 -47 20 -59 12 -17 12 -28 -1 -71 -8 -28 -22 -95 -30 -149 l-15 -98 -54 -56
c-52 -54 -54 -57 -75 -160 -31 -155 -38 -246 -19 -268 32 -35 31 -60 -1 -99
-41 -50 -40 -78 7 -122 33 -31 41 -47 57 -120 10 -45 24 -84 29 -86 6 -2 28
-6 49 -10 34 -5 37 -9 37 -38 0 -29 -6 -34 -49 -53 -59 -26 -82 -59 -89 -125
-6 -65 8 -90 72 -126 44 -24 61 -28 126 -27 70 2 82 5 171 53 111 59 146 88
154 128 14 63 50 86 104 63 31 -12 31 -13 31 -87 0 -79 0 -79 -74 -140 -20
-16 -26 -31 -26 -61 0 -33 -6 -45 -40 -76 -35 -32 -40 -42 -36 -69 3 -18 10
-74 17 -125 l11 -93 -51 -89 c-47 -82 -50 -93 -43 -128 10 -41 -1 -91 -36
-177 -11 -27 -28 -72 -38 -100 -10 -27 -30 -62 -44 -77 l-27 -27 -94 31 c-125
40 -194 37 -260 -10 -48 -35 -110 -49 -190 -44 l-46 3 5 52 c3 43 -1 58 -20
87 -46 67 -145 100 -299 100 -227 -1 -407 -86 -443 -209 -15 -52 -45 -77 -134
-113 -77 -30 -141 -28 -222 7 -50 21 -80 27 -131 27 -78 0 -123 -18 -249 -97
-48 -30 -107 -62 -131 -71 -62 -22 -155 -21 -284 5 -151 31 -249 30 -348 -3
-43 -14 -90 -26 -105 -26 -51 0 -106 22 -139 55 -28 28 -33 40 -33 83 0 34 -6
57 -19 74 -19 24 -19 28 -5 84 9 32 20 67 26 77 13 25 68 57 98 57 36 0 84
-32 110 -75 l23 -37 61 4 c71 4 139 35 197 89 47 44 52 82 14 127 -14 17 -25
32 -25 34 0 3 17 10 38 16 21 7 47 20 56 31 23 25 17 63 -11 76 -13 5 -23 12
-23 15 0 4 32 22 71 41 87 41 120 84 127 163 4 51 3 54 -37 94 l-41 40 0 87
c0 109 -14 136 -90 173 -48 23 -67 27 -145 27 -76 -1 -100 -5 -155 -29 -234
-102 -217 -97 -315 -90 -114 8 -125 0 -95 -71 34 -80 26 -114 -40 -154 -57
-34 -68 -29 -72 32 l-3 52 -53 3 c-108 6 -286 -114 -327 -221 -18 -48 -18 -48
4 -70 20 -20 32 -22 139 -23 125 -1 186 -14 202 -44 16 -30 -14 -38 -120 -33
-113 7 -134 -1 -147 -54 -7 -31 -13 -39 -36 -41 -36 -4 -55 -41 -39 -76 15
-34 50 -55 119 -73 75 -19 103 -37 103 -68 0 -17 -9 -29 -30 -40 -41 -21 -80
-19 -142 10 -71 33 -125 33 -140 0 -18 -40 6 -79 76 -124 63 -40 99 -74 109
-103 7 -20 -37 -38 -95 -38 -34 0 -47 8 -96 54 -31 29 -67 58 -79 65 -37 19
-105 13 -153 -13 -88 -48 -116 -59 -162 -64 -46 -4 -137 8 -213 29 l-39 11 24
13 c14 7 51 16 83 20 80 9 112 38 111 97 -1 70 -34 117 -168 242 -96 90 -132
131 -151 172 -37 79 -47 81 -235 43 l-158 -31 -32 23 c-28 21 -41 24 -113 21
-105 -3 -130 11 -125 71 l3 42 -53 3 c-47 3 -54 6 -68 34 -15 29 -15 31 6 45
26 18 59 87 60 123 0 14 -9 40 -20 57 -16 28 -24 32 -47 27 -39 -8 -60 19 -65
79 l-3 47 105 49 c125 58 164 91 174 146 5 27 22 55 52 87 50 53 56 88 28 158
-33 83 13 125 84 76 65 -45 122 -30 122 31 0 31 -8 44 -47 80 l-47 44 37 30
c44 36 47 66 13 99 -32 29 -95 41 -149 27 -32 -8 -58 -27 -109 -81 -63 -65
-68 -69 -92 -58 -14 6 -34 28 -44 48 l-19 38 -69 0 c-57 1 -77 6 -116 29 -49
28 -84 77 -74 103 4 9 21 14 52 14 88 0 109 57 53 145 -50 78 -50 82 -35 285
14 188 12 235 -15 278 -19 30 -81 59 -147 67 -50 7 -104 36 -91 50 4 3 35 -1
70 -10 60 -16 63 -16 88 3 28 20 57 71 66 115 8 39 31 33 55 -13 11 -22 33
-46 50 -55 37 -19 104 -20 120 0 7 8 13 46 14 84 1 81 -15 107 -73 116 -70 12
-81 16 -81 30 0 20 44 20 60 0 19 -23 39 -18 84 18 63 51 128 93 163 105 46
15 88 0 158 -58 33 -28 70 -53 83 -57 32 -8 68 14 83 49 13 33 6 56 -38 121
-25 36 -26 40 -14 92 18 79 36 97 102 101 30 1 86 11 126 22 63 17 74 18 84 5
7 -8 32 -26 56 -40 38 -22 52 -25 113 -21 56 3 74 8 95 28 29 27 33 66 9 111
-20 39 -7 56 49 64 96 14 233 -58 271 -143 25 -56 54 -66 179 -60 119 5 173
28 210 87 19 32 21 47 19 158 -4 177 5 188 209 259 192 67 246 109 257 199 6
61 23 69 128 60 75 -6 88 -5 120 14 l36 21 59 -36 c121 -75 240 -84 307 -22
17 17 22 32 22 73 0 64 15 85 65 91 59 7 98 -21 120 -86 24 -71 46 -83 143
-79 101 5 164 40 202 112 14 26 30 49 35 51 6 2 94 -11 195 -30 222 -40 250
-42 250 -14 0 25 34 47 87 56 58 9 127 -16 217 -81 97 -70 127 -85 170 -85 54
0 65 9 98 77 30 65 84 116 168 159 38 19 227 83 248 84 7 0 25 -21 40 -46z
m-9768 -298 c0 -38 22 -48 84 -41 l56 7 0 -34 c0 -20 9 -46 20 -60 31 -40 113
-88 148 -88 21 0 32 -5 32 -14 0 -16 65 -76 82 -76 18 0 78 41 88 60 6 10 10
27 10 36 0 25 30 54 56 54 16 0 30 -14 53 -55 l31 -55 54 0 c47 0 55 3 58 20
2 12 6 21 11 20 4 0 24 0 46 0 34 0 39 -3 44 -27 8 -35 13 -41 61 -77 l38 -29
-7 -62 c-4 -37 -2 -65 3 -69 6 -3 79 -11 163 -18 l153 -11 30 35 c26 29 47 40
122 61 116 34 238 54 387 65 l118 9 70 69 69 68 47 -12 c60 -16 144 -73 191
-129 21 -24 45 -43 56 -43 11 0 65 -7 121 -16 93 -16 103 -20 145 -58 25 -23
89 -72 143 -110 97 -69 225 -194 260 -255 l18 -31 -26 -10 c-39 -15 -75 -12
-140 10 -32 11 -71 20 -87 20 -39 0 -104 -34 -124 -65 -22 -34 -21 -127 1
-161 21 -32 17 -36 -21 -25 -17 5 -78 9 -137 9 l-106 0 -12 -36 c-13 -39 -6
-148 12 -201 7 -19 24 -38 43 -47 76 -39 106 -88 106 -173 0 -49 6 -72 35
-128 20 -37 42 -92 50 -121 12 -48 12 -54 -3 -59 -41 -13 -67 -30 -84 -58 -17
-26 -19 -42 -13 -118 l6 -88 -59 -62 c-73 -76 -86 -100 -78 -142 9 -44 58 -87
159 -135 45 -22 101 -56 125 -75 34 -28 52 -35 85 -35 74 0 87 24 80 141 -6
95 2 108 48 85 20 -10 25 -21 30 -71 8 -82 15 -94 73 -122 28 -13 66 -35 85
-48 33 -24 84 -32 108 -17 6 4 24 32 40 62 21 40 35 56 56 61 15 4 51 22 78
40 60 38 96 40 169 8 81 -35 90 -52 90 -183 0 -128 8 -147 74 -176 40 -18 156
-114 156 -130 0 -4 -9 -10 -20 -13 -29 -7 -26 -64 7 -131 30 -63 23 -86 -28
-86 -23 0 -29 4 -29 23 0 66 -77 121 -170 121 -79 0 -134 -31 -163 -92 -26
-54 -54 -72 -119 -72 -55 0 -94 13 -126 43 -25 23 -65 26 -154 12 -44 -7 -49
-5 -78 23 -28 29 -30 35 -30 109 0 101 -13 145 -57 194 -26 28 -51 44 -90 55
-63 18 -81 16 -243 -31 -268 -79 -553 -140 -614 -132 -50 7 -68 26 -114 117
-31 62 -45 79 -82 100 -43 24 -52 25 -220 25 -260 0 -312 -22 -416 -180 -98
-149 -189 -210 -330 -224 -70 -7 -78 -10 -111 -44 -23 -25 -39 -35 -47 -29 -6
5 -40 13 -76 16 -68 8 -80 16 -80 54 0 34 -56 86 -115 106 -27 10 -57 21 -65
24 -10 3 -4 8 18 15 22 7 34 18 39 35 7 28 -9 42 -49 42 -23 0 -28 4 -28 24 0
28 -14 45 -65 76 -32 20 -40 21 -84 10 -48 -11 -50 -11 -100 23 -28 20 -56 37
-62 39 -15 5 10 55 45 87 32 30 32 41 4 90 l-22 38 37 43 c20 24 37 51 37 59
0 9 -29 45 -65 81 l-66 66 93 41 c127 55 125 61 -27 140 -66 34 -124 64 -129
66 -5 1 -2 14 7 28 9 13 21 46 28 73 12 49 12 50 -19 75 -20 18 -35 42 -42 73
-12 47 -12 49 19 83 44 51 41 70 -18 99 -46 24 -49 28 -55 73 -15 104 -35 121
-173 149 -59 12 -85 23 -108 45 -27 25 -39 29 -87 29 -45 0 -63 -5 -84 -23
-33 -28 -28 -51 13 -61 51 -13 73 -43 73 -102 0 -103 30 -194 65 -194 36 0 48
-28 64 -143 l17 -116 -49 6 c-30 4 -57 1 -72 -7 -20 -11 -28 -10 -56 6 -69 40
-73 56 -71 232 2 97 -2 170 -8 188 -18 46 -60 84 -102 90 -21 4 -38 11 -38 16
0 5 12 49 26 97 15 49 24 96 21 104 -4 10 -25 18 -54 22 -69 9 -76 13 -68 33
22 51 28 92 18 115 -11 24 -15 25 -75 20 -85 -6 -88 -8 -88 -43 0 -28 -5 -33
-66 -60 -64 -29 -114 -36 -161 -24 -23 6 -33 34 -12 34 6 0 22 9 36 20 l26 20
14 -20 c12 -17 24 -20 56 -18 l42 3 9 59 10 59 -39 34 c-38 33 -41 34 -120 31
l-80 -3 -5 -47 c-6 -47 -15 -67 -26 -56 -3 3 0 25 6 48 13 47 8 70 -15 70 -19
0 -20 19 0 26 25 10 95 126 95 159 l0 30 19 -24 c21 -27 51 -25 94 9 34 27 42
68 22 116 l-15 37 32 28 c49 42 57 38 60 -33 3 -56 5 -63 25 -66 23 -3 123 44
191 90 l42 29 -4 122 -5 122 12 -117 c7 -64 17 -122 24 -129 9 -9 6 -20 -13
-48 -14 -22 -24 -50 -24 -72 0 -25 -9 -48 -30 -74 -16 -21 -30 -43 -30 -50 0
-15 65 -75 81 -75 5 0 13 10 18 23 14 36 32 46 91 49 52 3 55 5 60 32 4 22 17
37 50 56 39 22 45 31 48 62 3 36 4 37 80 63 109 36 106 33 98 100 -3 32 -9 62
-12 67 -3 5 -26 8 -50 7 -59 -4 -102 34 -106 95 l-3 41 -57 -3 c-32 -1 -58 0
-58 3 0 2 10 10 23 17 15 9 73 13 197 13 96 1 184 4 195 8 11 4 39 39 63 77
l44 70 49 0 c45 0 49 -2 49 -24z m-1155 -912 c29 -19 36 -74 10 -74 -8 0 -15
6 -15 14 0 32 -65 31 -104 -3 -18 -15 -19 -15 -13 18 4 18 7 40 7 47 0 20 84
18 115 -2z m3838 -238 c40 -12 33 -22 -25 -41 -148 -48 -135 -83 92 -247 63
-46 121 -95 129 -110 15 -25 13 -30 -21 -96 -20 -39 -40 -91 -43 -116 -9 -59
-24 -77 -64 -79 -34 -2 -34 -1 -48 58 -7 32 -29 88 -48 122 -29 53 -35 74 -35
125 0 87 -28 140 -96 184 -59 38 -74 69 -74 159 l0 51 103 -1 c56 -1 114 -5
130 -9z m353 -621 c120 -52 179 -58 245 -24 38 19 42 19 65 4 33 -21 30 -38
-12 -80 -67 -67 -28 -81 118 -43 48 12 90 19 94 16 22 -23 -32 -128 -57 -112
-6 3 -18 -1 -27 -9 -9 -8 -28 -18 -42 -22 -57 -16 -70 -32 -70 -85 0 -58 -72
-295 -99 -325 -11 -11 -28 -39 -40 -62 -12 -24 -28 -43 -36 -43 -9 0 -38 16
-66 35 -28 19 -57 35 -64 35 -29 0 -45 31 -45 86 0 48 -4 60 -29 85 -37 37
-99 41 -132 8 -19 -19 -21 -30 -17 -112 l3 -92 -28 -3 c-19 -2 -39 7 -70 32
-24 20 -78 52 -120 71 -88 41 -137 79 -137 107 0 11 27 48 59 82 73 75 83 100
75 181 -12 114 8 138 125 148 96 8 119 31 136 130 5 33 9 37 37 37 16 0 77
-20 134 -45z m-3144 -950 c-2 -14 -8 -22 -13 -19 -5 3 -5 14 1 25 14 26 18 24
12 -6z m1855 2 c23 -12 41 -36 66 -90 39 -82 80 -123 134 -133 63 -12 341 44
632 128 184 53 209 55 268 18 55 -33 67 -62 73 -181 5 -103 7 -110 35 -139 42
-44 91 -56 160 -41 54 12 56 12 102 -18 54 -36 94 -45 169 -39 63 5 101 29
126 77 35 68 88 99 153 87 47 -9 95 -51 95 -84 0 -38 27 -62 71 -62 101 0 135
71 77 165 -31 51 -25 63 38 71 92 11 129 1 183 -49 69 -65 97 -71 281 -63 160
6 218 -1 253 -32 9 -8 17 -22 17 -31 0 -9 5 -33 11 -53 10 -40 48 -68 89 -68
43 0 37 -66 -10 -110 -16 -15 -50 -33 -76 -39 -70 -18 -100 -36 -125 -78 -28
-46 -31 -49 -145 -94 -112 -44 -212 -109 -281 -183 -54 -56 -55 -57 -167 -71
-35 -5 -57 -15 -78 -35 -26 -27 -28 -33 -28 -114 l0 -86 -40 -25 c-72 -46 -82
-83 -55 -212 8 -33 5 -37 -74 -104 -19 -16 -31 -36 -31 -51 0 -25 37 -66 78
-88 61 -31 154 -140 119 -140 -7 0 -21 -6 -31 -13 -16 -12 -16 -16 4 -69 21
-56 35 -68 87 -68 16 0 23 -8 28 -30 10 -46 -3 -68 -55 -95 -26 -13 -58 -37
-70 -52 -19 -24 -21 -36 -16 -88 l6 -60 -70 -36 -69 -36 -33 35 c-79 82 -188
124 -323 125 -105 1 -162 -19 -230 -82 -79 -73 -178 -76 -499 -19 -230 41
-289 41 -391 -1 -156 -63 -251 -75 -306 -38 -50 34 -63 81 -44 163 20 87 19
130 -6 184 -36 80 -88 120 -156 120 -76 0 -129 -55 -160 -162 -17 -60 -21 -63
-78 -59 -40 3 -105 33 -125 58 -11 14 -23 48 -26 76 -13 94 -98 156 -239 171
-70 8 -158 -3 -273 -34 -93 -25 -89 -20 -112 -165 -10 -60 -47 -163 -93 -254
-19 -39 -66 -45 -197 -25 -177 26 -165 29 -165 -36 l0 -55 -116 -3 -115 -3
-65 138 c-74 159 -117 219 -183 253 -25 14 -46 28 -46 31 0 4 24 34 54 67 29
33 56 71 60 86 10 39 71 66 150 66 36 0 92 9 128 20 34 11 87 20 116 20 46 0
54 3 62 24 13 35 73 69 108 61 27 -6 82 -66 111 -123 9 -17 19 -22 39 -20 25
3 27 6 25 48 -5 94 -48 162 -128 196 -54 24 -163 22 -346 -6 l-146 -22 -79 34
c-74 32 -79 37 -77 63 1 16 4 34 7 40 2 6 106 58 231 115 211 98 232 109 295
170 51 49 71 76 81 110 21 75 16 73 184 68 191 -7 216 -16 251 -93 43 -93 75
-68 91 72 l6 51 -44 22 c-24 13 -78 49 -119 81 -52 40 -85 59 -105 60 l-30 0
33 17 c28 14 37 14 65 3 43 -19 107 -25 173 -16 l54 6 0 46 c0 34 4 46 18 50
66 17 127 50 130 69 3 19 -3 22 -50 27 -89 11 -129 8 -163 -13 -47 -29 -288
-55 -487 -51 l-68 1 0 30 c0 52 -26 98 -64 117 -38 18 -46 42 -22 62 9 8 91
18 202 26 165 12 190 16 203 33 9 11 25 23 37 26 11 3 30 20 42 36 19 25 29
30 65 30 63 0 155 27 207 60 61 39 130 112 175 185 49 78 72 103 117 126 63
32 107 38 268 36 123 -2 161 -6 187 -20z m5819 -372 c28 -8 61 -26 75 -41 22
-23 24 -33 21 -105 -3 -87 9 -123 54 -158 23 -18 26 -26 21 -62 -7 -53 -36
-83 -119 -125 -89 -45 -115 -92 -63 -116 33 -15 32 -24 -5 -31 -36 -8 -70 -40
-70 -66 0 -11 11 -33 25 -49 14 -17 25 -36 25 -43 0 -30 -114 -101 -180 -113
-32 -5 -37 -3 -53 24 -47 79 -139 108 -217 68 -54 -28 -85 -72 -100 -142 -11
-52 -12 -54 -50 -60 -25 -4 -55 -20 -83 -44 -40 -35 -52 -39 -116 -45 -38 -3
-91 -15 -117 -27 -26 -11 -48 -19 -48 -18 -18 51 -50 87 -107 124 -114 74
-115 95 -1 49 73 -30 113 -31 169 -6 46 21 63 45 63 89 0 57 -35 84 -151 116
-74 21 -93 41 -45 50 32 6 35 10 42 51 7 51 -3 48 142 45 106 -2 132 10 132
62 0 80 -57 107 -226 108 -66 0 -124 3 -127 6 -13 13 39 87 86 125 57 45 140
86 182 91 30 3 30 2 35 -52 l5 -55 46 1 c57 0 117 31 147 75 24 34 26 89 7
146 -7 22 -5 22 76 20 78 -2 90 1 169 37 190 87 258 100 356 71z m-2808 -403
c15 -33 22 -37 60 -40 33 -3 42 -7 42 -22 0 -68 60 -106 154 -95 61 6 122 -6
112 -23 -2 -4 -1 -14 3 -21 7 -10 45 -5 187 23 99 20 182 36 186 36 3 0 17
-24 31 -52 18 -41 54 -81 154 -176 132 -124 172 -179 158 -222 -7 -21 -54 -40
-99 -40 -43 0 -99 -32 -110 -63 -14 -39 13 -63 93 -81 164 -37 262 -30 346 26
31 20 64 33 96 36 48 4 49 4 103 -51 91 -91 154 -97 313 -32 50 21 112 39 143
42 85 7 94 10 146 53 27 22 56 40 64 40 31 0 60 -30 60 -63 0 -142 136 -227
295 -182 189 53 171 52 333 22 166 -30 265 -34 338 -12 27 8 97 44 154 80 165
103 217 112 345 58 62 -26 150 -35 194 -19 17 6 22 5 19 -5 -5 -16 -20 -24
-92 -50 -103 -37 -135 -97 -76 -140 14 -10 129 -56 256 -101 l231 -83 41 -51
c67 -85 170 -141 277 -151 l63 -6 -3 -61 -3 -61 -66 -24 c-59 -21 -67 -22 -81
-8 -37 38 -106 33 -148 -11 -14 -15 -31 -48 -38 -75 -15 -60 -48 -88 -136
-117 -110 -36 -202 -89 -261 -151 l-54 -56 -52 10 c-78 14 -202 2 -297 -30
-97 -32 -111 -54 -57 -88 47 -30 58 -53 33 -71 -15 -11 -47 -14 -146 -12 -116
3 -130 1 -156 -18 -30 -23 -38 -43 -29 -79 6 -24 35 -39 105 -54 61 -13 69
-24 38 -55 -31 -31 -52 -32 -118 -9 -46 17 -50 17 -78 0 -37 -22 -124 -23
-141 -2 -7 8 -23 15 -36 15 -22 0 -24 4 -24 55 0 42 -5 60 -20 75 -25 25 -37
25 -77 0 -18 -10 -35 -16 -37 -11 -3 5 -42 11 -86 13 -75 4 -83 7 -115 38 -55
53 -44 99 25 101 66 2 85 12 85 44 l0 30 -75 1 c-73 1 -180 -27 -217 -57 -27
-23 -7 -88 33 -109 13 -8 26 -26 30 -44 9 -44 56 -115 109 -165 25 -23 45 -50
45 -61 0 -23 -45 -34 -102 -25 -35 6 -39 9 -22 17 26 14 44 38 44 60 0 15 -9
18 -59 18 -52 0 -61 3 -75 25 -21 33 -79 35 -112 4 -20 -19 -24 -19 -46 -6
-12 8 -39 18 -59 21 -39 7 -179 -10 -192 -23 -14 -14 14 -58 49 -77 19 -10 34
-21 34 -25 0 -3 -48 -9 -107 -12 -126 -6 -188 -25 -232 -71 -28 -29 -32 -39
-29 -77 2 -36 7 -45 25 -47 35 -5 103 17 103 34 0 31 221 104 264 88 32 -12
45 -121 16 -139 -4 -2 -63 2 -131 10 -67 9 -129 13 -136 10 -10 -3 -13 -21
-11 -62 3 -51 6 -58 25 -61 12 -2 36 4 53 13 51 26 57 9 30 -89 -12 -46 -19
-89 -16 -95 4 -6 29 -11 56 -11 44 0 51 -3 64 -28 8 -16 11 -34 6 -42 -4 -8
-10 -32 -14 -52 -6 -31 -11 -38 -31 -38 -13 0 -30 -3 -38 -6 -12 -4 -16 3 -19
28 l-3 33 -65 1 c-39 1 -79 8 -97 18 -22 11 -58 16 -118 16 -85 0 -125 10
-125 31 0 8 28 9 90 4 80 -6 91 -5 96 10 4 10 0 29 -10 44 -9 14 -30 52 -46
84 l-30 57 -69 0 c-78 0 -84 -5 -101 -72 -17 -67 -56 -75 -81 -17 -6 17 -26
41 -43 53 -27 20 -40 22 -103 18 -69 -4 -73 -6 -91 -36 -10 -18 -21 -53 -24
-79 -3 -27 -8 -50 -11 -53 -3 -3 -27 5 -54 17 -26 13 -56 26 -65 30 -22 10
-68 -26 -68 -53 0 -18 -3 -17 -34 10 -24 21 -72 42 -156 68 -79 26 -125 45
-132 57 -6 13 -6 34 3 66 10 39 9 52 -4 77 -11 22 -12 35 -5 48 6 10 8 36 5
57 -4 29 -1 42 14 55 29 26 20 54 -24 71 -44 18 -76 12 -114 -21 -26 -23 -27
-26 -16 -57 11 -29 10 -34 -8 -47 -15 -10 -19 -21 -14 -39 4 -16 -2 -36 -16
-59 l-21 -35 -22 20 c-28 27 -99 38 -116 19 -12 -12 -16 -12 -32 4 -42 42
-126 6 -150 -63 -11 -32 -40 -38 -64 -14 -9 9 -34 15 -60 15 -37 0 -54 -7 -98
-40 -29 -22 -56 -40 -59 -40 -3 0 -17 11 -31 25 -14 14 -36 25 -49 25 -25 0
-25 0 -20 83 7 110 -9 141 -113 222 -45 34 -101 90 -129 128 -56 75 -72 88
-159 129 -97 47 -108 61 -100 129 8 75 -3 93 -84 132 -53 25 -74 42 -100 81
-18 27 -31 57 -30 65 2 9 40 34 85 56 45 22 84 43 87 46 4 3 -1 22 -9 42 -32
76 -19 105 63 146 61 31 78 74 60 150 -13 56 -13 56 -54 59 -32 2 -44 8 -52
28 -9 19 -9 24 1 24 7 0 21 6 31 13 18 13 18 15 -3 63 -27 59 -69 105 -138
150 -66 43 -72 54 -42 73 13 9 37 28 53 44 l29 28 -7 99 -7 98 27 19 c15 10
40 30 55 45 28 25 29 31 29 111 0 62 4 88 15 97 8 6 46 16 85 21 88 11 102 18
170 89 71 74 148 122 262 166 114 44 129 54 157 104 18 32 31 42 69 54 26 7
51 11 55 9 4 -2 15 -21 25 -41z m4675 -462 c93 -29 111 -54 103 -141 -8 -79
-9 -79 127 -79 93 0 126 9 191 54 51 34 105 34 213 -1 73 -24 82 -29 77 -47
-5 -15 3 -28 31 -51 l37 -32 -11 -71 c-6 -39 -11 -87 -11 -106 0 -59 -21 -136
-44 -163 -23 -26 -23 -26 -65 -10 -62 25 -79 22 -98 -17 -13 -28 -24 -36 -54
-41 -21 -4 -47 -4 -57 -1 -11 4 -24 0 -32 -9 -17 -21 -5 -126 21 -176 16 -33
18 -45 8 -89 -6 -27 -9 -56 -7 -62 3 -8 -23 -26 -61 -45 -76 -36 -81 -34 -112
38 -29 67 -70 86 -148 69 -61 -14 -108 -17 -118 -6 -4 3 1 31 11 61 9 30 15
59 11 64 -3 5 -36 9 -73 9 -122 0 -238 58 -309 154 -19 27 -36 48 -37 48 -11
0 -482 172 -488 178 -13 13 22 37 90 62 67 24 102 58 102 96 0 18 11 29 43 45
60 31 86 57 98 103 30 113 182 183 400 185 71 1 115 -4 162 -19z m-8312 -766
c31 -9 73 -29 92 -45 29 -24 37 -38 46 -91 18 -105 94 -158 226 -158 62 0 85
11 85 40 0 9 7 39 15 67 33 112 115 147 180 78 41 -43 59 -94 51 -148 -3 -23
-9 -76 -12 -117 -5 -68 -4 -78 18 -110 28 -42 99 -80 148 -80 50 0 185 34 253
64 91 41 113 41 352 1 240 -41 400 -50 468 -26 21 7 58 31 83 52 63 54 95 69
167 76 107 10 248 -39 313 -109 18 -18 48 -64 67 -103 42 -84 73 -115 151
-149 l59 -26 -6 -57 c-9 -89 7 -113 113 -168 63 -32 100 -59 127 -91 85 -103
120 -137 176 -177 32 -22 65 -53 73 -68 23 -46 14 -189 -12 -189 -7 0 -29 -9
-48 -21 -34 -20 -36 -24 -36 -75 l0 -55 -29 16 c-38 19 -155 37 -222 33 -51
-3 -55 -5 -64 -35 -15 -45 -18 -46 -77 -39 -49 6 -56 11 -78 46 -26 43 -38 46
-91 29 -48 -16 -64 -33 -51 -55 7 -12 6 -25 -1 -41 -9 -20 -4 -33 39 -96 58
-87 69 -97 106 -97 26 0 28 -2 18 -21 -20 -37 3 -49 97 -49 98 0 145 16 167
58 15 29 17 29 122 36 66 4 111 3 117 -3 6 -6 -3 -44 -28 -108 -20 -54 -37
-105 -37 -113 1 -8 4 -48 8 -87 l7 -73 -38 -16 c-39 -16 -51 -12 -57 21 -2 15
-12 21 -38 23 -24 3 -53 20 -103 63 -37 32 -74 59 -82 59 -8 0 -21 -15 -30
-33 -8 -18 -38 -55 -65 -82 -47 -46 -50 -53 -50 -99 0 -36 8 -63 30 -103 32
-56 39 -93 17 -93 -7 0 -24 14 -36 31 -23 31 -25 31 -87 26 -35 -2 -67 -1 -70
4 -3 5 -16 9 -29 9 -48 0 -44 70 6 95 38 20 37 43 -3 59 l-31 14 29 6 c16 4
44 15 62 26 28 17 32 25 32 61 0 47 -8 65 -61 135 -37 49 -42 52 -95 57 -31 3
-59 8 -62 12 -3 3 9 20 26 38 40 41 40 54 1 87 -22 18 -33 38 -38 65 l-6 40
-65 -4 c-36 -2 -69 -6 -74 -8 -4 -3 -5 -26 -2 -52 l6 -46 -67 -2 c-38 0 -111
-12 -163 -25 -84 -21 -97 -27 -109 -52 -10 -22 -11 -34 -3 -47 9 -15 6 -21
-24 -38 -57 -34 -56 -54 6 -91 12 -8 10 -13 -13 -32 -26 -22 -28 -27 -25 -88
l3 -65 82 -40 c45 -22 90 -48 100 -57 10 -8 36 -21 58 -28 50 -16 99 -45 147
-88 44 -39 57 -87 37 -134 l-13 -31 -102 6 c-77 3 -112 10 -141 25 -113 61
-124 65 -190 59 -79 -6 -93 -17 -93 -72 0 -36 5 -48 30 -68 48 -41 111 -60
179 -55 45 3 62 1 66 -10 11 -30 4 -41 -32 -48 -51 -9 -55 -11 -102 -71 l-41
-52 -77 -3 -78 -3 -3 -47 c-2 -33 -7 -48 -17 -48 -25 0 -120 85 -117 105 7 37
-9 65 -48 85 -47 24 -178 56 -268 66 -55 6 -67 4 -92 -15 -46 -34 -115 -29
-163 12 -45 38 -43 64 6 69 23 2 35 10 45 31 10 21 18 27 30 21 10 -4 28 -7
42 -8 24 -1 25 1 25 69 0 59 4 75 24 103 23 30 51 43 51 23 0 -5 -7 -28 -15
-51 -32 -91 -5 -177 53 -164 70 15 109 36 140 76 65 85 66 168 2 168 -40 0
-39 16 6 96 31 55 40 64 64 64 36 0 44 -22 35 -94 -5 -40 -4 -54 7 -58 7 -3
53 -3 103 1 l89 6 48 83 c26 46 48 90 48 97 0 8 -13 22 -30 32 -27 15 -30 23
-30 64 0 44 -2 47 -31 53 -53 10 -69 7 -114 -24 -64 -44 -95 -40 -142 15 -44
53 -71 57 -143 22 -42 -21 -45 -26 -52 -71 -4 -26 -18 -65 -31 -85 l-25 -38
-132 -6 c-72 -4 -141 -12 -153 -18 -11 -7 -58 -40 -104 -75 -104 -79 -163
-109 -230 -117 -84 -10 -89 -14 -109 -122 -18 -95 -18 -96 -58 -118 -50 -28
-53 -39 -20 -70 l26 -25 -16 -50 c-22 -64 -54 -112 -88 -131 -22 -13 -33 -13
-61 -3 -18 7 -65 12 -104 12 -56 0 -73 -4 -87 -19 -14 -15 -27 -18 -54 -14
-62 8 -195 32 -198 36 -2 1 6 45 16 97 22 108 26 224 8 282 -13 43 -58 88 -89
88 -31 0 -52 -62 -46 -137 8 -103 5 -108 -65 -119 -72 -11 -87 -27 -67 -69 12
-25 38 -45 72 -58 16 -5 -6 -36 -50 -71 -32 -25 -64 -39 -106 -47 -39 -8 -71
-22 -91 -40 -22 -19 -59 -34 -116 -48 -91 -23 -122 -40 -148 -83 -15 -25 -15
-28 1 -46 13 -14 17 -38 17 -106 0 -86 0 -87 -22 -75 -15 8 -49 10 -107 5 -88
-6 -87 -6 -126 -61 -22 -32 -35 -2 -35 85 0 88 -16 120 -59 120 -15 0 -36 -7
-47 -15 -33 -25 -43 -19 -37 23 8 51 19 62 67 62 56 0 63 7 77 70 10 48 10 55
-7 67 -21 15 -62 16 -123 2 -24 -5 -45 -8 -48 -6 -2 3 4 21 13 41 17 35 17 36
-5 60 l-23 24 22 60 c30 82 25 113 -20 124 -19 5 -47 23 -62 40 l-26 30 -77
-17 -77 -17 -47 25 c-27 15 -80 31 -131 38 -59 9 -90 19 -104 34 -11 11 -38
25 -59 30 -34 9 -41 16 -60 65 -13 31 -37 76 -55 102 -18 26 -32 55 -32 65 0
10 14 49 30 88 21 49 28 79 24 101 -5 25 -1 34 20 47 48 32 90 14 153 -67 l37
-48 -21 -16 c-24 -20 -43 -54 -43 -78 0 -10 23 -40 52 -66 45 -43 51 -54 52
-91 l1 -42 72 -6 c45 -3 79 -11 90 -21 30 -26 119 -67 162 -74 22 -4 60 -3 84
0 42 6 46 10 62 52 22 59 16 74 -34 74 -31 0 -49 7 -76 31 -20 18 -33 34 -31
37 3 2 51 -8 107 -23 72 -20 112 -37 136 -58 39 -34 58 -30 68 12 7 35 6 35
72 21 26 -5 80 -11 119 -14 40 -3 91 -10 113 -16 23 -6 46 -8 51 -5 18 11 11
45 -15 70 -19 20 -34 25 -76 25 -68 0 -107 23 -115 70 -8 42 -18 50 -65 50
-34 0 -38 4 -62 53 -41 82 -70 105 -152 117 -39 5 -128 10 -199 10 -105 0
-133 -3 -147 -16 -12 -11 -27 -14 -44 -10 -33 8 -32 20 6 47 26 18 43 21 114
20 156 -3 192 38 112 127 -28 30 -48 28 -120 -12 -54 -30 -68 -34 -110 -29
-67 8 -59 27 35 88 43 28 77 57 78 65 0 8 -14 35 -30 60 -38 57 -40 102 -5
118 30 14 32 37 5 54 -16 10 -20 24 -20 63 0 64 -26 108 -80 135 l-41 21 21
29 c16 23 34 32 93 45 86 19 109 33 141 84 13 21 38 44 55 51 20 8 33 22 37
39 3 14 10 38 16 53 17 47 6 58 -60 58 -55 0 -64 3 -130 52 -52 37 -72 58 -72
73 0 17 -14 30 -57 53 -48 25 -54 32 -38 37 52 17 65 26 71 51 11 44 -6 59
-66 57 -36 -2 -57 2 -68 13 -15 16 -36 15 -121 -2 -32 -6 -34 -5 -28 17 4 13
7 33 7 44 0 18 1 18 15 -2 13 -18 22 -21 48 -16 44 8 48 13 55 74 l7 54 48 5
c26 3 55 13 64 23 18 18 22 64 10 114 -8 30 -6 33 36 57 24 14 51 26 59 26 23
0 68 49 68 74 0 12 -7 32 -16 44 -15 21 -13 25 21 72 20 28 45 50 54 50 28 0
106 -57 135 -98 14 -21 53 -98 87 -172 34 -74 67 -138 73 -142 6 -5 76 -7 156
-5 l145 2 3 54 3 53 32 -6 c18 -3 85 -9 149 -12 133 -8 157 0 183 59 68 156
85 202 94 267 17 111 13 106 99 128 132 35 209 39 293 16z m8508 -280 c12 -15
21 -32 21 -40 0 -7 11 -26 25 -42 14 -17 22 -33 17 -36 -4 -2 -33 -8 -63 -12
-30 -4 -60 -11 -66 -17 -7 -5 -13 -31 -13 -58 0 -43 -3 -49 -21 -49 -24 0 -59
-17 -59 -30 0 -4 11 -22 25 -38 l24 -29 -33 -49 c-18 -27 -38 -66 -45 -86 -10
-29 -26 -46 -76 -77 -62 -39 -68 -41 -147 -41 -103 0 -146 -12 -182 -49 -31
-33 -27 -53 19 -89 33 -26 32 -32 -9 -32 -22 0 -52 12 -87 36 -49 33 -56 35
-99 27 -41 -7 -45 -11 -48 -40 -3 -26 4 -37 42 -69 35 -29 43 -40 32 -46 -8
-5 -26 -4 -41 2 -14 5 -38 10 -53 10 -37 0 -92 -35 -92 -59 0 -15 -14 -24 -57
-38 l-57 -19 -16 30 c-8 17 -37 44 -64 61 -45 27 -58 30 -152 33 -73 3 -106 8
-115 18 -8 9 -33 14 -75 14 -60 0 -64 1 -64 23 0 35 -40 66 -100 77 -62 12
-80 24 -61 43 8 8 52 12 146 12 120 0 136 2 162 21 40 30 43 77 8 114 l-27 29
53 16 c78 24 197 30 269 15 l60 -13 59 65 c67 72 133 111 258 152 102 34 135
63 157 138 23 82 85 118 106 63 5 -14 16 -25 23 -25 15 0 123 37 202 68 48 20
125 38 172 41 13 0 30 -10 42 -25z m-2425 -566 c12 -45 7 -50 -25 -27 -30 21
-31 23 -13 36 25 18 31 17 38 -9z m-7910 -144 c21 -8 12 -48 -20 -91 -13 -17
-24 -36 -24 -42 0 -6 18 -20 40 -31 56 -28 50 -33 -12 -11 -107 39 -148 36
-148 -10 0 -10 -20 -38 -45 -62 -26 -26 -45 -54 -45 -67 0 -41 -17 -59 -47
-51 -25 7 -28 13 -28 47 l0 39 -75 5 c-92 7 -190 48 -190 79 0 39 36 51 157
51 l113 0 20 40 c25 49 52 65 82 49 14 -8 45 -9 91 -5 107 10 120 15 114 42
-5 27 -5 26 17 18z m204 -252 c2 -19 1 -41 -3 -49 -5 -14 -8 -13 -26 3 -20 18
-20 18 -89 -10 -26 -10 -41 9 -44 55 l-2 44 80 -5 81 -5 3 -33z m7069 -46
c-27 -13 -55 -33 -63 -45 -17 -24 -34 -28 -34 -8 0 30 74 75 125 76 11 0 -1
-10 -28 -23z m1086 -53 c18 -10 4 -22 -30 -25 l-38 -3 -3 -63 c-3 -70 5 -87
46 -96 34 -7 66 -50 58 -79 -3 -12 -28 -48 -57 -80 l-52 -59 16 -34 c15 -31
20 -34 61 -34 25 0 48 -4 51 -10 3 -5 -8 -31 -26 -56 -17 -25 -33 -63 -36 -85
-5 -36 -23 -56 -23 -25 0 16 -21 26 -59 26 -34 0 -51 -17 -51 -51 0 -21 -8
-31 -37 -46 -50 -26 -83 -84 -65 -113 11 -18 10 -20 -17 -20 -63 0 -81 -27
-36 -56 38 -25 16 -44 -53 -44 -53 0 -54 1 -39 18 26 28 21 59 -10 74 -18 9
-28 21 -28 38 -3 68 -4 68 -52 83 l-48 15 36 1 c28 1 47 11 83 44 51 48 57 73
29 132 -16 33 -20 35 -64 35 -39 0 -51 -5 -67 -25 -11 -14 -26 -23 -34 -20
-21 8 -64 -11 -89 -39 -34 -39 -80 -15 -113 61 -9 20 -23 33 -38 35 -17 2 -23
9 -23 28 0 22 6 26 53 34 l53 10 -6 33 c-5 26 -2 35 11 40 9 3 75 -9 146 -27
194 -49 308 -51 308 -4 0 17 -49 69 -115 120 l-39 31 17 26 c19 29 37 35 37
13 0 -24 18 -28 81 -21 41 5 59 11 59 21 0 23 36 87 60 107 18 15 21 26 17 52
-5 30 -2 35 21 44 24 8 85 5 105 -6z m-1028 -113 c-3 -5 -10 -10 -16 -10 -5 0
-9 5 -9 10 0 6 7 10 16 10 8 0 12 -4 9 -10z m-7349 -95 c45 0 77 -5 87 -14 31
-25 15 -101 -21 -101 -10 0 -27 -6 -37 -14 -18 -13 -18 -15 -2 -39 15 -23 15
-26 -4 -43 -51 -46 -44 -84 17 -84 25 0 38 -7 50 -25 15 -23 15 -27 -2 -52
l-19 -28 -3 23 c-3 17 -17 30 -49 44 -39 17 -62 20 -145 16 l-99 -4 27 21 c16
11 49 25 74 30 44 10 45 11 44 50 -1 23 -8 43 -18 51 -15 10 -12 13 20 21 28
6 40 15 47 37 14 42 -5 76 -42 76 -39 0 -45 13 -25 52 l18 33 6 -25 c6 -24 10
-25 76 -25z m184 -30 c16 -30 18 -134 3 -147 -18 -15 -5 -95 24 -146 14 -24
23 -45 21 -46 -1 -1 -23 -15 -48 -30 -25 -16 -55 -38 -67 -49 -32 -29 -28 -10
8 43 23 35 29 52 25 75 -7 32 -52 85 -73 85 -11 0 -10 5 2 24 9 14 15 31 13
38 -2 8 10 26 26 39 23 20 30 36 34 77 3 36 0 57 -9 69 -13 15 -12 15 8 3 12
-8 27 -24 33 -35z m5403 -77 c14 -7 17 -19 15 -56 l-3 -47 -50 -5 c-70 -8 -95
-24 -95 -60 0 -26 6 -33 39 -46 28 -11 38 -20 34 -32 -2 -10 0 -30 6 -45 9
-23 16 -27 48 -27 68 0 83 -9 80 -44 -2 -30 -1 -31 45 -34 50 -3 64 2 141 51
39 25 47 36 45 56 -2 19 -10 27 -28 29 -27 4 -90 47 -90 62 0 4 15 18 33 29
35 21 57 57 57 91 0 13 12 25 37 35 41 17 39 18 61 -27 12 -23 35 -42 77 -64
40 -20 61 -37 63 -51 4 -27 -17 -32 -107 -25 -69 5 -71 4 -80 -22 -20 -50 9
-76 83 -76 63 0 70 -16 56 -122 -8 -56 -8 -84 -1 -91 7 -7 -9 -25 -55 -57 -59
-43 -71 -48 -141 -54 -64 -6 -82 -4 -110 11 l-34 18 3 85 3 85 -55 -1 c-54 -1
-140 -34 -140 -53 0 -5 8 -23 17 -39 14 -25 15 -35 5 -56 -10 -23 -17 -26 -61
-26 -41 0 -107 25 -149 56 -2 1 4 16 12 33 29 56 21 80 -55 165 -66 73 -71 82
-65 114 8 51 69 138 110 157 24 12 36 24 38 43 6 49 145 76 211 40z m1740
-235 c-13 -2 -33 -2 -45 0 -13 2 -3 4 22 4 25 0 35 -2 23 -4z m-1326 -29 c-3
-3 -12 -4 -19 -1 -8 3 -5 6 6 6 11 1 17 -2 13 -5z m1422 -59 c2 -2 -4 -11 -13
-20 -10 -11 -16 -34 -16 -64 0 -46 -1 -49 -31 -55 -52 -10 -60 -7 -70 23 -7
20 -24 36 -55 50 -24 12 -44 26 -44 31 0 31 202 61 229 35z m-7039 -105 c12
-22 9 -25 -44 -33 -52 -9 -60 4 -19 29 47 29 50 29 63 4z m4706 -269 c-25 -28
-17 -63 19 -80 65 -30 68 -37 61 -134 -3 -49 -8 -93 -12 -98 -9 -15 -99 -10
-150 7 -26 9 -64 27 -85 41 -55 36 -50 47 94 174 37 32 48 48 44 65 -3 15 3
25 17 32 30 15 31 14 12 -7z m-5213 -394 c8 -13 17 -34 19 -48 3 -22 8 -24 61
-27 49 -3 66 -9 105 -39 66 -50 68 -57 27 -89 -34 -26 -35 -29 -29 -71 5 -37
2 -49 -21 -83 -31 -45 -52 -51 -57 -17 -3 19 -9 22 -43 22 -31 0 -42 -5 -51
-23 -16 -32 -189 -114 -287 -136 -91 -21 -153 -15 -141 12 4 9 9 34 12 55 l4
37 -51 0 c-38 0 -55 -5 -69 -20 -19 -20 -19 -20 -46 19 -24 34 -26 42 -14 61
21 34 136 106 258 160 93 41 122 50 171 50 46 0 63 5 85 23 23 20 27 32 28 80
1 62 14 72 39 34z m94 -23 c-3 -3 -12 -4 -19 -1 -8 3 -5 6 6 6 11 1 17 -2 13
-5z m4043 -94 c0 -5 -4 -10 -9 -10 -6 0 -13 5 -16 10 -3 6 1 10 9 10 9 0 16
-4 16 -10z m73 -78 c25 -22 21 -32 -16 -32 -46 0 -79 -25 -75 -58 3 -26 6 -27
79 -33 53 -4 88 -14 117 -30 46 -26 49 -36 27 -78 -18 -36 -83 -51 -102 -23
-32 44 -69 72 -107 80 -28 6 -40 13 -37 23 2 8 6 30 9 51 3 30 0 37 -17 43
-29 9 -26 19 17 53 40 33 70 34 105 4z m-2341 -264 l53 -33 -36 -6 c-20 -3
-49 -14 -65 -25 -16 -11 -53 -30 -81 -42 -55 -22 -71 -17 -65 21 2 10 -2 25
-8 33 -10 11 -9 19 3 38 12 18 30 26 74 33 32 6 61 11 65 12 4 0 31 -14 60
-31z m130 -65 c15 -13 24 -15 46 -7 22 9 33 7 56 -10 39 -27 85 -25 126 4 28
20 33 21 27 6 -4 -10 -10 -29 -13 -42 -8 -32 -88 -57 -155 -48 -42 6 -49 11
-82 60 -36 55 -38 67 -5 37z m-567 -46 l50 -32 3 -73 c3 -85 7 -88 85 -75 48
8 54 8 50 -7 -2 -9 3 -22 11 -29 9 -8 16 -22 16 -33 0 -18 -6 -19 -122 -12
l-123 7 -74 51 c-84 58 -107 85 -114 139 -6 37 -5 38 51 67 74 38 106 38 167
-3z m524 -6 c11 -15 25 -39 30 -53 l9 -25 -74 15 c-73 15 -75 14 -97 -7 -26
-24 -97 -30 -97 -8 0 21 14 34 60 54 25 12 54 28 65 37 33 26 81 20 104 -13z
m-16 -117 c40 -9 80 -21 90 -26 28 -14 4 -35 -61 -54 l-56 -16 -27 33 -27 33
-56 -10 c-60 -11 -119 -7 -110 7 3 5 33 9 68 9 50 0 67 4 81 20 22 24 11 23
98 4z"/>
<path d="M13103 8500 c-40 -9 -72 -30 -145 -92 -77 -68 -161 -91 -257 -72 -28
6 -32 10 -26 31 12 48 -41 93 -108 93 -41 0 -64 -23 -106 -107 -28 -57 -34
-63 -86 -82 -31 -12 -67 -21 -81 -21 -65 0 -84 -42 -84 -186 0 -138 0 -138
187 -142 143 -4 149 -4 166 -28 16 -21 17 -29 6 -59 -21 -56 -7 -62 162 -71
l147 -7 12 37 12 36 66 1 c37 1 96 4 132 8 55 5 69 3 93 -14 21 -15 44 -20 87
-20 50 1 65 6 116 39 32 22 89 69 126 105 72 71 82 97 52 139 -14 20 -14 24 0
44 26 37 21 103 -12 139 -59 66 -192 40 -200 -39 -2 -18 -7 -32 -12 -32 -14 0
-19 28 -13 78 7 60 -7 89 -53 108 -22 9 -34 21 -34 33 0 32 -11 51 -39 65 -38
19 -72 24 -108 16z m78 -59 c18 -14 24 -30 24 -58 0 -37 1 -38 40 -43 l40 -5
-3 -67 c-3 -61 -1 -70 22 -93 27 -27 74 -33 94 -13 7 7 12 27 12 45 0 56 71
73 116 28 28 -28 26 -49 -7 -97 -24 -34 -24 -50 1 -66 11 -7 20 -19 20 -26 0
-19 -127 -133 -188 -169 -55 -33 -115 -32 -141 2 -15 18 -22 19 -91 11 -41 -5
-114 -9 -161 -10 -91 0 -101 -5 -112 -50 -6 -25 -7 -26 -84 -19 -43 4 -92 8
-110 8 -31 1 -32 2 -26 36 4 28 0 43 -22 75 l-28 40 -143 0 c-78 0 -149 3
-158 6 -13 5 -16 23 -16 93 0 123 2 127 61 134 27 4 73 19 102 34 45 24 57 37
87 98 38 76 64 91 105 61 20 -14 19 -15 -8 -25 -38 -15 -31 -31 28 -61 42 -21
64 -25 135 -25 102 1 147 19 234 93 95 82 136 96 177 63z"/>
<path d="M25161 15829 c-205 -20 -347 -94 -409 -213 -23 -44 -27 -63 -27 -138
0 -80 2 -90 30 -130 21 -30 48 -52 90 -73 55 -28 68 -30 160 -29 210 3 339 80
421 251 48 103 43 263 -10 311 -26 25 -134 34 -255 21z m202 -48 c36 -14 50
-60 45 -144 -8 -121 -84 -244 -181 -291 -167 -81 -361 -69 -429 27 -34 48 -33
164 2 227 63 111 245 185 472 189 37 0 78 -3 91 -8z"/>
<path d="M10667 15803 c-4 -3 -7 -14 -7 -24 0 -12 -6 -16 -20 -12 -24 6 -70
-21 -70 -42 0 -19 111 -75 147 -75 35 0 95 36 91 54 -4 17 -106 106 -122 106
-7 0 -16 -3 -19 -7z m63 -88 c10 -13 9 -15 -8 -15 -15 0 -20 5 -16 15 4 8 7
15 9 15 1 0 8 -7 15 -15z"/>
<path d="M11077 15383 c-4 -3 -7 -19 -7 -34 0 -20 8 -33 30 -46 17 -9 30 -25
30 -34 0 -32 22 -37 130 -28 58 4 111 8 118 8 6 1 12 10 12 21 0 26 -44 48
-114 56 -45 6 -55 10 -58 27 -2 13 -13 24 -28 28 -33 9 -105 11 -113 2z m93
-53 c0 -5 -2 -10 -4 -10 -3 0 -8 5 -11 10 -3 6 -1 10 4 10 6 0 11 -4 11 -10z"/>
<path d="M11451 15324 c-27 -35 -35 -64 -22 -77 7 -7 44 -13 84 -15 61 -2 78
1 112 20 34 20 40 29 43 61 l3 37 -63 0 c-36 0 -69 -5 -76 -12 -9 -9 -18 -9
-36 0 -22 10 -28 8 -45 -14z"/>
<path d="M11711 15236 c-23 -35 -45 -80 -48 -100 -9 -59 24 -64 260 -40 39 5
62 12 70 25 7 10 25 23 40 28 52 20 29 53 -67 97 -65 30 -148 54 -187 54 -20
0 -34 -13 -68 -64z m160 -7 c35 -12 74 -26 87 -33 22 -12 22 -13 4 -29 -19
-17 -124 -36 -199 -37 -33 0 -43 4 -43 16 0 21 60 104 75 104 6 0 41 -9 76
-21z"/>
<path d="M11245 15119 c-3 -8 -6 -31 -8 -52 l-2 -39 60 -19 c33 -10 75 -19 93
-19 26 0 35 -5 42 -26 9 -22 15 -25 52 -22 42 3 43 4 52 46 9 41 8 45 -28 81
-32 33 -45 39 -94 44 -31 3 -81 9 -109 13 -40 5 -54 4 -58 -7z m150 -54 c30
-4 59 -15 73 -28 23 -21 30 -47 12 -47 -5 0 -10 9 -10 20 0 16 -7 20 -32 20
-42 0 -148 30 -148 42 0 5 12 7 28 4 15 -2 50 -8 77 -11z"/>
<path d="M25795 15016 c-69 -31 -115 -110 -115 -199 0 -61 20 -96 73 -125 27
-14 56 -16 171 -15 157 3 186 12 186 63 0 16 18 63 40 105 27 51 40 89 40 115
0 73 8 70 -189 70 -125 -1 -185 -5 -206 -14z m324 -32 c27 -6 30 -9 25 -33 -4
-14 -20 -48 -36 -74 -16 -27 -33 -69 -37 -93 -5 -25 -11 -47 -14 -50 -3 -3
-63 -6 -134 -7 -141 -2 -174 8 -193 59 -14 37 6 106 45 151 27 32 40 38 86 44
74 9 220 10 258 3z"/>
<path d="M11548 14551 c-7 -10 -28 -22 -46 -26 -18 -4 -36 -13 -39 -21 -8 -22
6 -64 22 -64 18 0 19 -12 3 -28 -14 -14 6 -42 31 -42 9 0 35 -9 56 -20 50 -25
62 -21 71 27 9 49 20 63 54 63 36 0 52 21 48 61 -3 31 -5 33 -78 50 -95 23
-106 23 -122 0z m97 -44 c49 -13 49 -14 20 -21 -37 -10 -55 -24 -55 -45 0 -27
-15 -41 -37 -35 -29 8 -38 74 -11 82 10 2 18 11 18 18 0 17 2 17 65 1z"/>
<path d="M11916 14551 c-4 -6 -2 -28 3 -48 18 -62 15 -70 -31 -85 -43 -14 -43
-15 -46 -67 -2 -29 2 -58 8 -65 5 -7 41 -16 78 -20 63 -7 68 -6 87 18 19 23
23 24 62 13 47 -12 93 1 93 28 0 9 12 20 26 25 22 9 25 15 22 52 -3 38 -7 45
-43 65 -38 22 -179 76 -229 89 -13 3 -27 1 -30 -5z m182 -103 c39 -16 72 -33
72 -38 0 -4 -14 -23 -31 -41 l-31 -33 -43 17 -44 16 -25 -30 c-23 -26 -29 -29
-66 -23 -32 5 -40 11 -40 28 0 17 11 26 51 40 l51 19 -7 44 c-8 52 -12 52 113
1z"/>
<path d="M10381 14527 c-16 -20 -62 -167 -56 -178 4 -5 24 -9 46 -9 27 0 39
-4 39 -14 0 -30 77 -36 125 -10 17 9 42 23 58 31 35 19 35 47 -2 84 -23 22
-39 29 -69 29 -35 0 -41 4 -52 30 -19 46 -65 65 -89 37z m53 -76 c13 -24 24
-30 66 -36 27 -4 52 -11 55 -16 7 -11 -54 -49 -78 -49 -11 0 -21 9 -24 20 -4
14 -14 20 -34 20 -18 0 -29 5 -29 14 0 16 20 76 26 76 2 0 10 -13 18 -29z"/>
<path d="M10997 14512 c-22 -25 -14 -46 29 -73 19 -11 39 -30 45 -41 8 -15 17
-18 37 -13 15 3 47 9 72 13 45 7 45 7 48 50 4 51 -12 61 -57 37 -29 -15 -31
-15 -31 4 0 14 -9 20 -37 25 -21 4 -50 9 -64 12 -17 3 -31 -1 -42 -14z"/>
<path d="M10276 8029 c-19 -15 -50 -24 -98 -29 -38 -4 -73 -12 -78 -16 -13
-16 -30 -76 -30 -111 0 -32 4 -36 56 -60 75 -34 128 -39 199 -19 l57 17 -6 40
c-4 25 -1 52 9 75 8 20 15 52 15 70 0 28 -5 36 -26 44 -39 15 -69 12 -98 -11z
m74 -41 c0 -7 -7 -33 -15 -57 -9 -24 -13 -52 -10 -62 13 -39 -77 -51 -155 -21
-48 19 -56 34 -41 74 8 22 17 26 70 31 37 3 74 13 94 26 37 24 57 27 57 9z"/>
<path d="M19785 7877 c-25 -12 -35 -24 -35 -41 0 -40 11 -56 37 -56 20 0 24
-4 18 -17 -19 -45 -18 -64 4 -70 14 -3 21 -13 21 -29 0 -27 26 -44 68 -44 40
0 55 21 60 85 3 42 8 54 23 58 36 10 18 97 -20 97 -10 0 -24 6 -30 14 -19 22
-106 24 -146 3z m105 -42 c7 -8 20 -15 30 -15 27 0 32 -12 10 -27 -15 -11 -20
-26 -20 -63 0 -27 -4 -52 -10 -55 -6 -4 -10 6 -10 24 0 20 -6 32 -18 35 -14 5
-17 14 -14 41 4 29 0 36 -22 46 -19 9 -23 15 -14 21 21 13 54 9 68 -7z"/>
<path d="M10366 7731 c-10 -11 -31 -25 -47 -31 -43 -18 -38 -47 14 -70 23 -11
52 -20 65 -20 27 0 27 -2 0 -50 -34 -58 -19 -67 78 -45 62 14 84 24 117 54 49
46 45 68 -13 77 -35 6 -40 10 -40 33 0 14 -4 31 -8 37 -25 38 -136 48 -166 15z
m113 -37 c9 -3 11 -14 7 -39 -6 -32 -5 -35 26 -43 44 -11 42 -24 -8 -38 l-41
-12 4 43 c5 38 3 43 -18 48 -13 4 -34 7 -46 7 -27 0 -29 7 -7 32 16 17 34 17
83 2z"/>
<path d="M10094 7470 c-12 -4 -24 -16 -28 -25 -3 -9 -10 -14 -15 -10 -14 8
-71 -17 -108 -49 -23 -20 -33 -36 -33 -56 0 -27 -3 -29 -47 -32 -42 -3 -49 -6
-58 -31 -8 -24 -6 -31 10 -43 36 -27 91 -35 156 -25 61 10 63 10 127 -26 95
-53 132 -88 132 -126 0 -17 7 -39 17 -49 18 -20 19 -20 -62 -22 -34 -1 -40 -4
-40 -22 0 -25 87 -124 109 -124 9 0 16 -6 16 -14 0 -23 25 -36 79 -43 43 -5
51 -3 51 11 0 27 19 18 41 -19 20 -34 23 -35 78 -35 56 0 59 1 77 35 l19 35
-40 77 c-34 65 -40 87 -40 138 0 53 -3 61 -25 72 -37 19 -77 16 -100 -7 -15
-15 -20 -16 -20 -6 0 8 -3 21 -6 30 -5 13 2 16 40 16 48 0 66 16 66 59 0 12 9
30 21 42 11 11 19 30 17 42 -6 46 -145 85 -199 56 -17 -9 -19 -17 -13 -55 7
-52 -8 -59 -31 -14 -18 34 -19 79 -4 114 28 60 -30 117 -117 115 -27 0 -58 -4
-70 -9z m131 -60 c14 -15 14 -22 5 -41 -35 -64 19 -199 79 -199 47 0 65 21 59
68 -7 46 6 55 54 39 l28 -9 -22 -17 c-20 -17 -21 -19 -5 -42 25 -35 22 -39
-27 -39 -54 0 -96 -15 -96 -33 0 -8 9 -25 19 -39 11 -13 21 -37 23 -53 3 -28
6 -30 51 -33 42 -3 49 0 54 18 3 11 12 20 20 18 10 -2 16 -19 18 -56 2 -39 13
-74 39 -124 29 -55 34 -73 25 -84 -19 -23 -47 -16 -65 15 -28 47 -107 70 -120
36 -10 -26 -22 -16 -20 18 1 31 0 32 -40 29 -30 -1 -46 3 -59 18 -17 19 -17
20 8 29 14 6 42 7 61 4 27 -4 37 -2 42 10 8 22 -11 53 -46 74 -23 13 -30 24
-30 49 0 41 -66 102 -169 158 l-72 38 -64 -12 c-35 -7 -70 -10 -77 -8 -7 3 4
8 25 12 35 7 37 9 37 46 0 35 5 43 40 66 28 18 47 24 64 20 31 -8 56 2 56 20
0 34 76 36 105 4z"/>
<path d="M17577 7233 c-20 -16 -39 -36 -43 -46 -7 -22 12 -47 37 -47 11 0 23
-10 28 -24 10 -25 30 -36 66 -36 30 0 92 -39 98 -62 4 -14 16 -18 51 -18 40 0
48 4 58 25 6 14 26 34 45 45 18 10 33 25 33 31 0 21 -86 94 -149 127 -48 26
-70 32 -123 32 -55 0 -70 -4 -101 -27z m207 -53 c28 -16 62 -38 74 -48 l24
-19 -31 -30 c-27 -27 -31 -29 -31 -12 0 15 -7 19 -31 19 -17 0 -42 9 -56 20
-14 11 -38 20 -53 20 -20 0 -29 6 -33 21 -3 11 -15 23 -26 26 -17 4 -19 8 -10
19 7 9 32 14 67 14 43 0 66 -7 106 -30z"/>
<path d="M18609 7089 c-42 -45 -45 -68 -14 -128 26 -49 28 -51 74 -53 95 -4
111 -1 136 26 46 49 24 106 -40 106 -32 0 -34 2 -37 38 -3 36 -4 37 -46 40
-37 3 -47 -1 -73 -29z m71 -37 c0 -35 29 -62 67 -62 35 0 36 0 18 -20 -32 -35
-102 -24 -129 20 -16 28 -16 31 0 55 19 29 44 33 44 7z"/>
<path d="M9840 7081 c-38 -12 -85 -38 -99 -55 -10 -12 -34 -16 -105 -16 l-91
0 -30 -42 c-21 -30 -29 -53 -29 -80 2 -45 16 -64 61 -83 31 -13 33 -17 33 -59
0 -42 3 -48 43 -77 65 -48 117 -69 175 -69 49 0 57 3 93 39 22 22 54 45 70 51
29 12 47 49 35 69 -4 5 -20 13 -38 16 -17 4 -50 25 -74 47 -50 46 -110 61
-136 34 -14 -14 -16 -13 -20 14 l-4 29 97 -2 c93 -2 100 -1 124 23 16 16 27
41 31 72 6 46 6 46 -35 72 -42 27 -59 30 -101 17z m65 -53 c30 -13 31 -20 8
-60 l-18 -30 -117 7 c-107 7 -118 6 -125 -11 -3 -10 1 -30 10 -46 9 -17 17
-40 17 -53 0 -33 26 -55 66 -55 27 0 34 4 34 20 0 30 24 24 65 -15 21 -19 46
-37 56 -40 26 -9 24 -22 -6 -29 -14 -4 -25 -12 -25 -18 0 -48 -84 -63 -154
-28 -74 37 -90 54 -88 95 3 42 -14 67 -58 85 -37 16 -43 43 -16 82 19 29 27
33 66 33 131 1 160 5 160 20 0 9 19 25 43 35 50 23 49 23 82 8z"/>
<path d="M10413 6670 c-4 -14 -14 -20 -34 -20 -18 0 -37 -10 -54 -27 -30 -33
-32 -49 -5 -63 13 -7 20 -21 20 -40 0 -43 26 -52 142 -48 98 3 100 3 129 36
16 18 29 40 29 50 0 23 -50 52 -89 52 -29 0 -31 2 -31 40 l0 40 -51 0 c-42 0
-52 -3 -56 -20z m57 -48 c0 -35 29 -61 65 -60 44 2 56 -9 31 -28 -13 -9 -46
-14 -97 -14 -71 0 -77 2 -82 23 -2 12 -8 30 -12 40 -6 14 -2 17 30 17 28 0 38
5 42 20 7 25 23 26 23 2z"/>
<path d="M9927 6563 c-4 -3 -7 -52 -7 -108 0 -88 3 -104 20 -123 12 -12 25
-22 31 -22 6 0 7 -4 4 -10 -10 -16 11 -44 52 -73 52 -36 95 -28 201 37 83 51
96 69 65 91 -14 11 -13 13 10 19 59 14 36 98 -33 116 -33 9 -40 15 -40 35 0
26 -3 27 -84 40 -28 5 -43 2 -57 -11 -18 -16 -20 -16 -37 -1 -19 17 -111 24
-125 10z m101 -58 c36 -30 52 -31 79 -6 27 25 69 17 77 -15 5 -17 17 -26 46
-34 51 -14 66 -35 19 -27 -124 22 -128 21 -140 -9 -8 -23 -7 -36 5 -62 20 -40
38 -48 82 -34 19 5 34 9 34 7 0 -3 -90 -55 -95 -55 -2 0 -5 9 -8 19 -6 25 -46
50 -104 65 -41 11 -48 16 -54 43 -9 47 1 133 17 133 7 0 26 -11 42 -25z m175
-126 c7 0 3 -4 -8 -9 -29 -13 -35 -12 -35 6 0 11 5 14 16 10 9 -3 21 -6 27 -7z"/>
<path d="M15715 6399 c-32 -29 -34 -34 -29 -72 10 -66 16 -69 111 -62 l83 7
-11 -31 c-15 -43 -1 -57 67 -65 63 -7 92 -20 183 -82 57 -40 67 -43 105 -37
46 7 89 43 84 70 -2 10 -26 32 -53 50 -71 46 -85 60 -85 88 0 36 -65 68 -121
59 -28 -5 -43 -13 -46 -24 -3 -10 -17 -20 -31 -22 -26 -4 -27 -2 -24 33 l4 38
-81 40 c-44 23 -89 41 -100 41 -11 0 -36 -14 -56 -31z m116 -45 c28 -14 49
-27 47 -28 -1 -2 -33 -7 -70 -11 -61 -6 -68 -5 -68 11 0 15 26 54 37 54 2 0
26 -12 54 -26z m271 -87 c9 -7 20 -25 23 -39 8 -31 23 -45 84 -81 l45 -26 -27
-12 c-25 -11 -31 -9 -70 19 -53 41 -111 72 -162 88 -35 11 -37 13 -12 13 15 1
35 9 46 20 17 17 37 29 51 30 3 0 13 -5 22 -12z"/>
<path d="M14035 6100 c-75 -36 -89 -36 -109 -5 -21 32 -80 35 -96 6 -5 -11
-22 -21 -37 -23 -21 -2 -29 -10 -35 -36 -6 -23 -5 -38 2 -47 7 -8 9 -18 6 -24
-3 -5 -2 -21 4 -35 8 -21 16 -26 46 -26 24 0 49 -9 70 -25 39 -30 74 -31 134
-4 39 17 57 19 126 14 81 -7 81 -7 101 21 32 46 63 111 63 135 0 11 -9 34 -21
50 -20 28 -22 29 -107 28 -74 0 -96 -5 -147 -29z m216 -34 c9 -18 7 -31 -10
-64 -11 -22 -26 -44 -33 -49 -7 -4 -49 -8 -93 -8 -56 0 -94 -6 -126 -19 l-45
-19 -42 28 c-34 22 -41 32 -36 50 4 16 -1 27 -17 39 -18 12 -20 16 -7 16 9 0
21 7 26 17 8 14 12 13 27 -10 24 -37 71 -35 160 8 53 25 84 34 128 34 51 1 59
-2 68 -23z"/>
<path d="M13558 6020 c-19 -12 -34 -87 -24 -126 12 -48 49 -74 106 -74 75 0
95 24 86 103 -8 78 -36 107 -104 107 -26 0 -55 -5 -64 -10z m106 -62 c9 -12
16 -37 16 -55 0 -32 -2 -33 -40 -33 -29 0 -42 5 -50 19 -11 22 -14 74 -3 84
15 16 62 6 77 -15z"/>
<path d="M13474 5756 c-56 -18 -106 -56 -101 -78 4 -12 -2 -18 -21 -20 -36 -4
-72 -60 -72 -110 0 -32 4 -40 26 -48 45 -18 86 -11 149 25 l63 35 45 -16 c61
-20 90 -16 97 16 5 20 15 27 50 36 l45 11 0 49 0 49 -63 3 c-55 3 -64 6 -72
26 -13 36 -73 45 -146 22z m104 -68 c4 -32 21 -40 61 -28 33 9 74 3 65 -11 -3
-5 -14 -9 -26 -9 -11 0 -32 -13 -46 -28 -25 -26 -30 -27 -64 -18 -37 11 -60
26 -40 26 17 0 15 35 -2 49 -8 7 -27 16 -43 20 l-28 8 35 11 c57 17 85 11 88
-20z m-88 -82 c0 -3 -24 -18 -54 -35 -83 -48 -127 -39 -96 20 9 16 22 19 80
19 39 0 70 -2 70 -4z"/>
<path d="M9900 5673 c-33 -6 -50 -21 -50 -44 0 -19 6 -22 94 -39 60 -12 62
-20 15 -44 -30 -15 -33 -29 -12 -55 16 -19 33 -24 128 -32 128 -11 158 -7 185
28 44 57 18 86 -79 87 -66 1 -70 2 -75 27 -3 15 -12 34 -21 42 -30 30 -111 43
-185 30z m239 -143 c68 0 98 -11 64 -25 -10 -3 -57 -3 -105 1 l-87 7 22 27
c20 24 23 25 29 8 6 -15 19 -18 77 -18z"/>
<path d="M11907 5301 c-52 -8 -67 -21 -67 -63 0 -45 -10 -58 -69 -87 -70 -36
-86 -54 -102 -114 -16 -67 2 -87 81 -87 67 0 116 16 188 60 44 27 62 32 110
32 50 -1 59 -4 77 -28 61 -84 67 -87 128 -80 55 7 57 9 67 44 13 47 13 88 0
113 -8 14 -7 25 5 41 24 35 18 55 -20 74 -28 13 -50 15 -100 10 -51 -5 -65 -4
-65 7 0 17 -36 50 -77 71 -33 17 -73 18 -156 7z m150 -60 c21 -13 33 -29 35
-48 2 -24 8 -28 36 -31 18 -2 54 1 80 7 60 12 80 0 57 -36 -14 -21 -14 -26 1
-52 12 -20 15 -39 10 -65 -6 -32 -10 -36 -36 -36 -24 0 -35 9 -62 49 -36 56
-47 61 -139 61 -56 0 -73 -4 -121 -34 -31 -18 -71 -38 -89 -45 -32 -11 -119
-15 -119 -6 0 3 6 21 14 40 11 26 29 41 73 64 72 36 81 46 85 96 2 32 8 40 28
46 50 14 114 9 147 -10z"/>
<path d="M12982 5260 c-28 -20 -44 -41 -51 -67 -23 -82 -12 -104 81 -158 l48
-27 60 41 c33 23 64 41 68 41 16 0 42 36 42 59 0 17 -10 26 -40 38 -28 11 -42
24 -47 41 -4 16 -20 30 -50 43 -58 25 -63 24 -111 -11z m88 -35 c16 -8 32 -24
35 -35 4 -12 18 -26 31 -32 13 -6 24 -14 24 -17 0 -3 -24 -21 -52 -40 l-51
-33 -31 18 c-17 10 -37 25 -44 33 -18 24 -6 73 26 98 32 27 26 26 62 8z"/>
<path d="M10980 4084 c-81 -10 -243 -49 -398 -94 -230 -69 -330 -89 -505 -101
-321 -21 -482 -75 -832 -279 -82 -48 -181 -104 -218 -124 -92 -51 -131 -87
-163 -152 -24 -49 -26 -62 -22 -142 3 -73 9 -96 33 -142 75 -138 220 -176 502
-134 116 18 290 16 601 -6 187 -13 339 -2 400 29 22 11 60 43 83 71 58 69 119
96 286 127 174 32 279 70 393 141 176 112 412 319 449 396 60 123 -11 268
-167 342 -110 52 -314 84 -442 68z m242 -58 c147 -28 252 -83 303 -156 25 -37
30 -53 30 -105 0 -78 -16 -100 -166 -233 -260 -230 -401 -303 -675 -351 -149
-27 -227 -63 -285 -131 -23 -27 -60 -59 -83 -70 -65 -31 -203 -35 -491 -15
-252 18 -406 16 -515 -5 -80 -16 -227 -14 -283 3 -114 36 -170 121 -169 258 1
97 49 159 177 229 33 18 134 76 225 129 328 189 511 248 829 265 147 8 216 23
491 101 333 96 453 111 612 81z"/>
</g>
</svg>
