<?xml version="1.0" encoding="UTF-8" standalone="no"?>
<svg
   version="1.1"
   width="1658px"
   height="1253px"
   style="shape-rendering:geometricPrecision; text-rendering:geometricPrecision; image-rendering:optimizeQuality; fill-rule:evenodd; clip-rule:evenodd"
   id="svg29"
   sodipodi:docname="1722347523213_2.svg"
   inkscape:version="1.3.2 (091e20e, 2023-11-25, custom)"
   xmlns:inkscape="http://www.inkscape.org/namespaces/inkscape"
   xmlns:sodipodi="http://sodipodi.sourceforge.net/DTD/sodipodi-0.dtd"
   xmlns="http://www.w3.org/2000/svg"
   xmlns:svg="http://www.w3.org/2000/svg">
  <defs
     id="defs29" />
  <sodipodi:namedview
     id="namedview29"
     pagecolor="#505050"
     bordercolor="#eeeeee"
     borderopacity="1"
     inkscape:showpageshadow="0"
     inkscape:pageopacity="0"
     inkscape:pagecheckerboard="0"
     inkscape:deskcolor="#505050"
     inkscape:zoom="0.59776536"
     inkscape:cx="728.54673"
     inkscape:cy="925.9486"
     inkscape:window-width="1680"
     inkscape:window-height="987"
     inkscape:window-x="-8"
     inkscape:window-y="-8"
     inkscape:window-maximized="1"
     inkscape:current-layer="svg29" />
  <g
     id="g1" />
  <g
     id="g2">
    <path
       id="path2"
       style="opacity:1"
       d="m 706.5,187.5 c 4.346,-0.166 8.679,0.001 13,0.5 7.9,2.047 15.9,3.713 24,5 11.003,0.111 22.003,0.111 33,0 16.56,5.561 27.393,16.727 32.5,33.5 0.22,7.212 1.553,14.212 4,21 7.164,9.495 16.331,16.328 27.5,20.5 6.022,0.575 12.022,0.409 18,-0.5 0.611,7.332 0.778,14.665 0.5,22 -5.14,4.135 -9.14,9.135 -12,15 -0.333,8.667 -0.667,17.333 -1,26 -4.333,5 -8.667,10 -13,15 -2.527,3.721 -4.527,7.721 -6,12 -0.404,11.38 -0.071,22.713 1,34 -8.392,7.779 -18.225,12.779 -29.5,15 -4.471,-0.657 -8.805,-1.824 -13,-3.5 -10.509,-2.164 -19.009,1.002 -25.5,9.5 -5.063,8.398 -10.896,16.231 -17.5,23.5 -6.265,4.599 -12.598,4.599 -19,0 -7.003,-6.327 -15.003,-10.994 -24,-14 -21.391,-5.43 -43.057,-9.43 -65,-12 2.541,-4.275 4.708,-8.775 6.5,-13.5 10.015,-7.036 14.348,-16.702 13,-29 8.382,-10.048 16.382,-20.381 24,-31 2.726,-5.913 3.06,-11.913 1,-18 -5,-3.667 -10,-7.333 -15,-11 -4.581,-16.828 -12.081,-32.162 -22.5,-46 5.758,-7.596 10.924,-15.596 15.5,-24 3.214,-10.977 7.214,-21.643 12,-32 10.965,-9.368 23.465,-15.368 37.5,-18 z m -2,-4 c 6.009,-0.166 12.009,0.001 18,0.5 15.739,5.136 31.739,6.302 48,3.5 20.839,2.682 34.672,14.016 41.5,34 1.415,6.996 2.749,13.996 4,21 7.332,11.827 17.832,19.16 31.5,22 5.047,-0.876 10.047,-1.876 15,-3 0.584,10 0.75,20 0.5,30 -2.387,2.877 -5.054,5.544 -8,8 -1.861,2.388 -3.194,5.054 -4,8 -0.602,5.849 -0.435,11.682 0.5,17.5 -0.065,2.591 -0.565,5.091 -1.5,7.5 -4,4.667 -8,9.333 -12,14 -4.867,5.932 -7.367,12.765 -7.5,20.5 1.454,8.792 1.954,17.626 1.5,26.5 -9.059,8.952 -19.893,14.952 -32.5,18 -6.421,-1.974 -12.921,-3.64 -19.5,-5 -7.688,0.846 -13.688,4.513 -18,11 -4.841,8.832 -11.007,16.665 -18.5,23.5 -5.07,2.424 -10.403,3.091 -16,2 -6.936,-3.94 -13.603,-8.273 -20,-13 -16.767,-6.488 -34.101,-10.821 -52,-13 -9.621,-1.405 -19.287,-2.238 -29,-2.5 -0.157,-1.373 0.01,-2.707 0.5,-4 2.667,-1.333 4.667,-3.333 6,-6 1.333,-3.333 2.667,-6.667 4,-10 3.703,-3.367 7.036,-7.034 10,-11 0.89,-6.049 1.89,-12.049 3,-18 6.621,-8.956 13.621,-17.623 21,-26 2.708,-3.955 4.541,-8.288 5.5,-13 -0.243,-3.651 -1.91,-6.484 -5,-8.5 -3.919,-1.54 -7.419,-3.707 -10.5,-6.5 -5.364,-17.395 -13.364,-33.395 -24,-48 -0.667,-1.333 -0.667,-2.667 0,-4 4.58,-6.16 8.914,-12.493 13,-19 5.151,-12.269 10.151,-24.602 15,-37 11.256,-10.544 24.423,-17.211 39.5,-20 z" />
  </g>
  <g
     id="g3" />
  <g
     id="g4">
    <path
       id="path4"
       style="opacity:1"
       d="m 778.5,423.5 c -2.333,-0.667 -4.667,-1.333 -7,-2 1.81,-3.325 4.644,-4.991 8.5,-5 4.367,0.467 8.534,1.633 12.5,3.5 18.033,-0.261 33.533,-6.761 46.5,-19.5 2.499,-4.162 3.666,-8.662 3.5,-13.5 -1.608,-9.112 -2.108,-18.278 -1.5,-27.5 4.238,-6.908 9.238,-13.241 15,-19 1.861,-2.388 3.194,-5.054 4,-8 0.333,-8.333 0.667,-16.667 1,-25 6.014,-4.331 10.014,-9.998 12,-17 -0.341,-10.901 -0.175,-21.735 0.5,-32.5 4,-0.667 8,-0.667 12,0 8.446,4.224 17.113,7.891 26,11 7.766,0.804 15.432,0.304 23,-1.5 3.295,-0.205 6.295,0.628 9,2.5 5.333,0.667 10.667,0.667 16,0 2.388,-0.303 4.555,-1.137 6.5,-2.5 1.053,-4.591 1.886,-9.258 2.5,-14 1.333,-0.667 2.667,-1.333 4,-2 1.827,2 3.494,4.167 5,6.5 18.283,5.007 31.45,-1.159 39.5,-18.5 5.49,-4.176 10.49,-3.509 15,2 3.19,5.054 5.86,10.388 8,16 0.79,11.128 2.45,22.128 5,33 3.2,6.203 7.53,11.536 13,16 0.67,5.333 0.67,10.667 0,16 -4.68,5.365 -8.35,11.365 -11,18 -14.09,13.536 -25.76,28.87 -35,46 -1.49,4.911 -1.83,9.911 -1,15 2.94,6.7 5.44,13.533 7.5,20.5 -0.82,4.838 -3.32,8.672 -7.5,11.5 -2.25,3.507 -4.25,7.173 -6,11 2.33,28.029 -4.67,53.362 -21,76 -10.627,12.962 -21.627,25.629 -33,38 -11.848,14.87 -18.181,31.87 -19,51 -0.943,10.982 -1.443,21.982 -1.5,33 -3.554,0.35 -6.888,-0.316 -10,-2 -2.188,-3.022 -4.855,-5.522 -8,-7.5 -4.917,-1.582 -9.917,-2.749 -15,-3.5 0.075,-8.487 -1.758,-16.487 -5.5,-24 -1.214,-1.549 -2.714,-2.715 -4.5,-3.5 -8.938,-1.548 -17.938,-1.881 -27,-1 -8.357,1.372 -14.857,5.539 -19.5,12.5 -3.255,5.508 -6.255,11.175 -9,17 -5,4.333 -10,8.667 -15,13 -7.42,19.433 -4.086,36.767 10,52 0.483,0.948 0.649,1.948 0.5,3 -7.919,1.918 -15.419,4.918 -22.5,9 -3.275,-13.39 -9.775,-24.89 -19.5,-34.5 -1.87,-1.366 -3.87,-2.533 -6,-3.5 -1.141,-1.921 -1.308,-3.921 -0.5,-6 2.221,-6.11 5.221,-11.777 9,-17 2.335,-8.35 4.669,-16.683 7,-25 3.754,-5.758 8.254,-10.925 13.5,-15.5 11.486,-9.242 23.153,-18.242 35,-27 10.466,-7.568 22.132,-11.735 35,-12.5 8.319,1.394 16.652,2.227 25,2.5 10.988,-5.09 20.488,-12.256 28.5,-21.5 5.049,-7.29 6.715,-15.29 5,-24 -1.439,-3.103 -3.273,-5.936 -5.5,-8.5 -5.394,-3.027 -10.727,-6.027 -16,-9 -1.688,-8.632 -3.855,-17.132 -6.5,-25.5 -1.873,-2.209 -4.04,-4.042 -6.5,-5.5 -6.599,-1.658 -13.265,-2.992 -20,-4 -5.613,-1.282 -9.78,-4.449 -12.5,-9.5 -0.93,-16.59 -9.43,-26.756 -25.5,-30.5 -7,-0.667 -14,-0.667 -21,0 -6.353,2.18 -12.687,4.347 -19,6.5 -1,-0.167 -2,-0.333 -3,-0.5 -5.908,-7.617 -13.575,-12.117 -23,-13.5 z m 240,-191 c 5.48,-0.674 10.48,0.492 15,3.5 5.57,7.316 9.41,15.482 11.5,24.5 0.68,9.443 2.01,18.777 4,28 3.98,5.977 8.65,11.31 14,16 0.39,7.02 0.06,14.02 -1,21 -5.3,4.926 -8.8,10.926 -10.5,18 -14.67,13.169 -26.51,28.502 -35.5,46 -0.67,4 -0.67,8 0,12 3.22,6.93 5.72,14.096 7.5,21.5 -2.22,5.913 -5.72,11.08 -10.5,15.5 -1.61,2.882 -2.94,5.882 -4,9 2.23,25.847 -3.77,49.514 -18,71 -10.917,14.255 -22.584,27.922 -35,41 -10.806,13.4 -17.139,28.734 -19,46 -0.778,13.407 -1.778,26.741 -3,40 -5.649,1.547 -11.149,1.047 -16.5,-1.5 -6.139,-7.547 -14.139,-11.214 -24,-11 -0.731,-6.133 -1.564,-12.299 -2.5,-18.5 -2.944,-8.062 -8.777,-11.396 -17.5,-10 -10.788,-0.906 -19.954,2.427 -27.5,10 -3.779,5.223 -6.779,10.89 -9,17 -4.719,5.222 -9.885,9.888 -15.5,14 -7.144,17.117 -4.311,32.45 8.5,46 3.353,3.804 3.187,7.304 -0.5,10.5 -8.716,2.859 -17.049,6.526 -25,11 -1,0.667 -2,0.667 -3,0 -2.724,-11.28 -7.224,-21.78 -13.5,-31.5 -3.968,-4.483 -8.802,-7.483 -14.5,-9 0.409,-10.486 3.909,-19.819 10.5,-28 2.126,-7.631 4.126,-15.297 6,-23 5.044,-8.051 11.211,-15.217 18.5,-21.5 8.288,-5.953 16.288,-12.286 24,-19 11.357,-8.678 24.024,-14.678 38,-18 9.56,-0.712 19.06,-0.212 28.5,1.5 4.219,0.143 8.052,-1.024 11.5,-3.5 5.167,-4.5 10.333,-9 15.5,-13.5 12.792,-17.29 8.958,-29.124 -11.5,-35.5 -0.833,-0.833 -1.667,-1.667 -2.5,-2.5 -1.91,-9.554 -4.577,-18.887 -8,-28 -1.8,-1.817 -3.966,-2.984 -6.5,-3.5 -9.739,-0.349 -18.739,-3.016 -27,-8 -2.117,-1.731 -3.617,-3.898 -4.5,-6.5 -1.079,-6.319 -3.079,-12.319 -6,-18 -6.677,-7.582 -15.177,-11.248 -25.5,-11 -10.367,1.232 -20.367,3.899 -30,8 -2.985,-0.493 -5.652,-1.66 -8,-3.5 -8.358,-9.77 -19.025,-13.77 -32,-12 -0.522,-0.561 -0.855,-1.228 -1,-2 2.987,-5.654 7.321,-9.987 13,-13 2.333,-0.667 4.667,-0.667 7,0 6.394,2.934 13.06,4.267 20,4 11.645,-3.903 22.145,-9.736 31.5,-17.5 1.975,-3.554 2.808,-7.387 2.5,-11.5 -0.37,-6.863 -1.036,-13.697 -2,-20.5 0.348,-5.878 2.181,-11.212 5.5,-16 5.044,-5.376 9.711,-11.042 14,-17 0.977,-2.741 1.477,-5.575 1.5,-8.5 -3.908,-12.061 -0.741,-21.561 9.5,-28.5 1.919,-3.59 3.086,-7.423 3.5,-11.5 -2.117,-10.118 -2.451,-20.284 -1,-30.5 5.972,-0.974 11.972,-1.141 18,-0.5 7.338,2.168 14.338,5.168 21,9 3.747,1.216 7.58,2.049 11.5,2.5 5.109,-1.122 10.276,-1.789 15.5,-2 4.241,-0.247 8.241,0.587 12,2.5 4,0.667 8,0.667 12,0 1.829,-0.273 3.329,-1.107 4.5,-2.5 -0.108,-3.657 -0.108,-7.323 0,-11 3.187,-4.063 7.353,-5.563 12.5,-4.5 1.99,2.293 3.99,4.626 6,7 7.491,1.636 14.491,0.303 21,-4 5.24,-6.372 10.58,-12.539 16,-18.5 z" />
  </g>
  <g
     id="g5" />
  <g
     id="g6">
    <path
       id="path6"
       style="opacity:1"
       d="m 630.5,273.5 c 1.517,0.011 2.684,0.677 3.5,2 1.667,2.667 3.333,5.333 5,8 5.254,10.766 9.921,21.766 14,33 4.233,3.907 8.733,7.407 13.5,10.5 -1.03,2.56 -2.197,5.06 -3.5,7.5 -6.667,8 -13.333,16 -20,24 -3.836,6.805 -5.503,14.138 -5,22 -7.129,5.142 -11.962,11.975 -14.5,20.5 -9.733,1.199 -17.733,5.532 -24,13 -11.514,1.436 -22.847,3.769 -34,7 -8.212,4.273 -16.545,8.273 -25,12 -6.667,0.667 -13.333,0.667 -20,0 -11.069,-1.514 -22.069,-3.348 -33,-5.5 -2,0.167 -4,0.333 -6,0.5 -2.723,3.057 -5.056,6.39 -7,10 -14.253,1.956 -25.087,-3.21 -32.5,-15.5 -2.576,-12.536 -4.243,-25.202 -5,-38 -3.703,-9.203 -10.203,-15.536 -19.5,-19 -9.638,1.116 -19.305,1.283 -29,0.5 -7.28,0.052 -13.447,-2.448 -18.5,-7.5 -0.167,-1 -0.333,-2 -0.5,-3 1.464,-6.654 2.797,-13.321 4,-20 18.67,-0.167 37.336,0 56,0.5 12.082,2.393 24.249,4.226 36.5,5.5 8.098,-0.649 15.931,-2.483 23.5,-5.5 11,-0.667 22,-0.667 33,0 3.302,1.651 6.636,3.318 10,5 3.333,0.667 6.667,0.667 10,0 4.143,-5.763 6.31,-12.263 6.5,-19.5 5.5,-6.167 11,-12.333 16.5,-18.5 4.174,-2.588 8.507,-4.921 13,-7 10.674,-2.667 21.341,-5.334 32,-8 7.968,-3.149 14.635,-7.982 20,-14.5 z m 0,-6 c 1.478,-0.262 2.811,0.071 4,1 2.695,3.53 5.195,7.196 7.5,11 5.341,12.034 10.675,24.034 16,36 3.417,2.961 7.25,5.294 11.5,7 1.196,1.059 1.863,2.393 2,4 -1.123,4.88 -3.29,9.213 -6.5,13 -6.333,7.667 -12.667,15.333 -19,23 -2.864,6.336 -4.197,13.002 -4,20 -3,3 -6,6 -9,9 -1.862,3.919 -3.529,7.919 -5,12 -0.903,1.201 -2.069,2.035 -3.5,2.5 -9.06,0.863 -16.393,4.863 -22,12 -19.33,1.662 -37.33,7.328 -54,17 -8.409,3.161 -17.076,4.161 -26,3 -12.636,-2.529 -25.303,-4.529 -38,-6 -2.907,3.151 -5.574,6.484 -8,10 -23.597,2.809 -37.431,-7.358 -41.5,-30.5 -0.722,-7.662 -1.388,-15.329 -2,-23 -3.86,-13.766 -12.86,-19.433 -27,-17 -9.916,-0.505 -19.749,-1.672 -29.5,-3.5 -5.34,-1.41 -9.173,-4.577 -11.5,-9.5 0.855,-8.431 2.521,-16.764 5,-25 2.133,-1.638 4.633,-2.471 7.5,-2.5 30.437,-1.259 60.603,0.908 90.5,6.5 6.663,-1.22 13.163,-3.054 19.5,-5.5 12.333,-0.667 24.667,-0.667 37,0 3.517,1.924 7.184,3.591 11,5 1.667,0.667 3.333,0.667 5,0 2.523,-5.925 4.19,-12.091 5,-18.5 5.754,-7.258 12.087,-14.092 19,-20.5 4.885,-3.297 10.218,-5.631 16,-7 10.14,-2.161 20.14,-4.828 30,-8 7.71,-3.883 14.377,-9.05 20,-15.5 z" />
  </g>
  <g
     id="g7" />
  <g
     id="g8">
    <path
       id="path8"
       style="opacity:1"
       d="m 1261.5,316.5 c 10.42,-1.934 17.92,1.733 22.5,11 0.16,5.416 0.83,10.75 2,16 2.16,3.624 5.33,4.791 9.5,3.5 6.72,-4.266 10.22,-10.433 10.5,-18.5 0.41,-1.91 1.57,-2.91 3.5,-3 2.11,0.554 4.11,1.388 6,2.5 11.75,13.764 25.75,24.431 42,32 11.89,2.406 23.89,3.073 36,2 14.12,-3.684 28.46,-5.018 43,-4 6.8,2.898 13.46,6.065 20,9.5 -0.85,1.345 -2.01,2.345 -3.5,3 -0.33,10.677 0,21.344 1,32 7.43,7.81 15.93,14.31 25.5,19.5 2.17,2.167 4.33,4.333 6.5,6.5 0.58,8.2 -1.76,15.533 -7,22 -10.09,12.264 -21.59,22.931 -34.5,32 -7.79,12.751 -15.46,25.584 -23,38.5 -7,0.333 -14,0.667 -21,1 -5.98,1.403 -11.14,4.237 -15.5,8.5 -2.74,5.083 -5.91,9.916 -9.5,14.5 -7,0.667 -14,0.667 -21,0 -4,-3 -8,-6 -12,-9 -1.67,-0.667 -3.33,-0.667 -5,0 -5.5,11.167 -10.33,22.667 -14.5,34.5 -7.69,5.86 -15.53,11.527 -23.5,17 -2.05,-1.427 -3.05,-3.427 -3,-6 3.24,-16.927 -3.76,-24.427 -21,-22.5 -2.29,1.29 -4.29,2.957 -6,5 -12.76,-1.967 -23.59,-7.8 -32.5,-17.5 -0.67,-1.333 -0.67,-2.667 0,-4 2.27,-4.214 4.27,-8.547 6,-13 2.1,-10.052 -1.07,-17.885 -9.5,-23.5 -6.29,-2.598 -12.63,-5.098 -19,-7.5 -1.14,-1.921 -1.31,-3.921 -0.5,-6 8.99,-14.014 8.66,-27.681 -1,-41 -5.63,-4.633 -10.97,-9.633 -16,-15 -1.08,-10.616 -2.08,-21.283 -3,-32 -3.7,-10.04 -10.03,-18.04 -19,-24 -1.41,-11.67 0.59,-22.67 6,-33 5.69,-7.523 13.02,-10.19 22,-8 5.95,11.949 14.12,22.116 24.5,30.5 7.64,4.995 15.98,6.995 25,6 4.53,-1.7 6.86,-5.033 7,-10 -3,-11.67 -6,-23.337 -9,-35 0.45,-7.284 4.12,-12.117 11,-14.5 z m 3,-5 c 11.07,-0.557 18.9,4.11 23.5,14 0.02,5.682 0.86,11.182 2.5,16.5 3,0.755 5.5,-0.078 7.5,-2.5 1.63,-5.797 3.63,-11.463 6,-17 3.35,-2.473 6.85,-2.64 10.5,-0.5 9.63,7.962 18.96,16.296 28,25 14.53,9.907 30.53,13.573 48,11 12.11,-2.213 24.28,-4.046 36.5,-5.5 4.92,0.37 9.76,1.203 14.5,2.5 6.88,3.606 13.88,6.939 21,10 1.02,1.049 1.18,2.216 0.5,3.5 -1.67,1.333 -3.33,2.667 -5,4 -0.67,9.333 -0.67,18.667 0,28 8.03,7.599 16.87,14.099 26.5,19.5 5.72,4.884 7.55,11.05 5.5,18.5 -4.72,12.406 -12.22,22.906 -22.5,31.5 -6.5,5.167 -13,10.333 -19.5,15.5 -7.83,13.167 -15.67,26.333 -23.5,39.5 -6,0.333 -12,0.667 -18,1 -4.95,0.403 -9.61,1.736 -14,4 -4.97,6.309 -9.97,12.642 -15,19 -8.33,0.667 -16.67,0.667 -25,0 -4.14,-2.639 -8.14,-5.472 -12,-8.5 -5.03,10.742 -9.53,21.742 -13.5,33 -9.34,6.681 -18.68,13.348 -28,20 -2.65,-1.321 -4.65,-3.321 -6,-6 -0.2,-5.679 -0.2,-11.345 0,-17 -1.97,-5.243 -5.81,-7.91 -11.5,-8 -4.92,1.795 -9.59,4.129 -14,7 -12.72,-3.609 -23.88,-9.942 -33.5,-19 -0.98,-1.866 -1.48,-3.866 -1.5,-6 2.04,-7.081 4.37,-14.081 7,-21 -0.91,-4.987 -3.24,-9.154 -7,-12.5 -6.8,-3.381 -13.8,-6.381 -21,-9 -2.6,-2.317 -3.43,-5.15 -2.5,-8.5 2.61,-5.553 4.94,-11.219 7,-17 1.41,-7.442 -0.26,-14.109 -5,-20 -6.28,-5.789 -12.28,-11.789 -18,-18 -1.28,-8.899 -1.94,-17.899 -2,-27 -2.82,-12.142 -9.49,-21.475 -20,-28 -2.81,-15.617 0.35,-29.783 9.5,-42.5 7.28,-6.57 15.61,-8.57 25,-6 6.04,12.726 14.71,23.393 26,32 6.63,4.082 13.63,5.415 21,4 2.02,-3.183 2.52,-6.683 1.5,-10.5 -2.47,-8.406 -5.14,-16.739 -8,-25 -1.49,-13.998 4.67,-21.998 18.5,-24 z" />
  </g>
  <g
     id="g9" />
  <g
     id="g10">
    <path
       id="path10"
       style="opacity:1"
       d="m 1095.5,343.5 c 3.32,1.158 5.49,3.492 6.5,7 1.01,19.656 10.85,32.156 29.5,37.5 10,1.52 20,1.853 30,1 8.89,4.556 15.39,11.39 19.5,20.5 0.08,10.073 0.74,20.073 2,30 5.25,8.582 11.91,15.915 20,22 3.29,4.482 4.29,9.482 3,15 -1.73,4.453 -3.73,8.786 -6,13 -2.26,8.438 -0.1,15.271 6.5,20.5 7,3 14,6 21,9 1.22,1.438 1.89,3.105 2,5 -2.3,5.432 -4.46,10.932 -6.5,16.5 -0.81,4.164 -0.31,8.164 1.5,12 -3.07,1.772 -6.41,2.939 -10,3.5 -7.33,0.667 -14.67,0.667 -22,0 -6.73,-2.133 -13.4,-4.466 -20,-7 -14.43,-3.238 -23.59,2.262 -27.5,16.5 0.49,10.987 0.83,21.987 1,33 -1.38,2.254 -2.88,4.42 -4.5,6.5 -5.05,3.194 -10.39,5.861 -16,8 -7.67,4.331 -12.17,10.831 -13.5,19.5 0.13,8.849 -0.87,17.516 -3,26 -6,5.672 -11.67,11.672 -17,18 -2.51,7.345 -1.85,14.345 2,21 3.14,3.234 6.48,6.234 10,9 1.81,11.26 -1.69,20.76 -10.5,28.5 -2.87,1.457 -5.87,1.79 -9,1 -7.87,-6.292 -16.87,-9.625 -27,-10 -11.39,-12.721 -23.39,-24.721 -36,-36 -10.94,-5.628 -22.609,-8.295 -35,-8 -0.916,-0.374 -1.75,-0.874 -2.5,-1.5 -1.199,-9.733 -5.532,-17.733 -13,-24 0.086,-11.015 0.419,-22.015 1,-33 -1.173,-3.837 -3.173,-7.171 -6,-10 -0.189,-4.751 -0.855,-9.417 -2,-14 -3.264,-6.202 -6.764,-12.202 -10.5,-18 1.979,-4.623 4.479,-8.956 7.5,-13 15.849,-16.507 30.182,-34.174 43,-53 11.42,-20.173 16.09,-41.839 14,-65 4.67,-7.333 9.33,-14.667 14,-22 0.69,-5.391 0.36,-10.725 -1,-16 -2.86,-5.416 -5.03,-11.083 -6.5,-17 6.19,-13.872 14.53,-26.372 25,-37.5 2.55,1.138 5.22,2.471 8,4 8.49,1.257 16.16,-0.743 23,-6 4.9,-4.408 9.9,-8.574 15,-12.5 z m 0,-5 c 3.46,0.936 6.29,2.936 8.5,6 2.74,6.766 4.74,13.766 6,21 5.5,10.825 14.34,16.991 26.5,18.5 9.04,0.547 18.04,0.547 27,0 18.36,10.063 25.7,25.396 22,46 0.61,5.822 2.77,10.989 6.5,15.5 5.63,4.633 10.97,9.633 16,15 3.71,6.012 4.38,12.345 2,19 -2.56,4.445 -4.56,9.111 -6,14 -1.4,7.273 1.43,12.107 8.5,14.5 7.28,1.726 13.78,4.892 19.5,9.5 0.93,1.959 1.76,3.959 2.5,6 -1.88,5.437 -4.05,10.77 -6.5,16 -0.85,4.991 -0.35,9.824 1.5,14.5 -0.25,1.326 -0.92,2.326 -2,3 -9.67,3.763 -19.67,5.096 -30,4 -10.78,-2.565 -21.45,-5.398 -32,-8.5 -7.13,-0.017 -11.96,3.316 -14.5,10 -2.59,6.577 -2.92,13.244 -1,20 0.67,6 0.67,12 0,18 -1.74,3.741 -4.24,6.908 -7.5,9.5 -5.3,2.66 -10.63,5.327 -16,8 -5.05,2.72 -8.22,6.887 -9.5,12.5 0.15,10.223 -1.19,20.223 -4,30 -1,1.667 -2,3.333 -3,5 -4,3.333 -8,6.667 -12,10 -5.8,10.943 -3.3,19.443 7.5,25.5 3.78,4.861 4.95,10.361 3.5,16.5 -2.22,9.283 -7.05,16.783 -14.5,22.5 -4,2 -8,2 -12,0 -7.87,-6.292 -16.87,-9.625 -27,-10 -11.33,-12.667 -23.33,-24.667 -36,-36 -3.55,-1.941 -7.21,-3.607 -11,-5 -7.66,-1.055 -15.323,-2.055 -23,-3 -2.019,-0.45 -3.852,-1.283 -5.5,-2.5 -1.378,-5.891 -3.378,-11.558 -6,-17 -2.333,-2.667 -4.667,-5.333 -7,-8 -0.105,-11.67 -0.105,-23.336 0,-35 -1.271,-2.933 -2.938,-5.599 -5,-8 -0.202,-5.489 -1.202,-10.822 -3,-16 -3.163,-6.134 -6.663,-11.967 -10.5,-17.5 2.673,-7.18 6.507,-13.68 11.5,-19.5 11.04,-12.038 21.707,-24.371 32,-37 17.11,-22.764 24.44,-48.431 22,-77 0.72,-2.449 1.72,-4.783 3,-7 4.05,-4.38 7.71,-9.046 11,-14 0.67,-2.667 0.67,-5.333 0,-8 -2.05,-6.432 -4.38,-12.766 -7,-19 -0.67,-3.333 -0.67,-6.667 0,-10 7.43,-15.249 17.6,-28.249 30.5,-39 2.12,1.621 4.12,3.454 6,5.5 6.37,1.729 12.37,0.729 18,-3 6.19,-5.912 12.86,-11.079 20,-15.5 z" />
  </g>
  <g
     id="g11" />
  <g
     id="g12">
    <path
       style="opacity:1"
       fill="#ababab"
       d="M 771.5,421.5 C 773.833,422.167 776.167,422.833 778.5,423.5C 775.753,423.813 773.086,423.48 770.5,422.5C 770.624,421.893 770.957,421.56 771.5,421.5 Z"
       id="path12" />
  </g>
  <g
     id="g13">
    <path
       id="path13"
       style="opacity:1"
       d="m 612.5,424.5 c 28.984,-0.835 57.318,2.998 85,11.5 7.476,3.152 14.142,7.486 20,13 2.809,1.741 5.809,2.908 9,3.5 -0.067,9.362 0.433,18.696 1.5,28 0.627,4.052 2.127,7.718 4.5,11 -15.895,7.776 -19.729,19.443 -11.5,35 5.92,7.875 13.42,13.709 22.5,17.5 7.611,1.218 15.111,2.718 22.5,4.5 0.667,1 0.667,2 0,3 -5.88,11.092 -11.213,22.425 -16,34 -5.379,23.783 3.788,38.45 27.5,44 -0.047,3.068 -0.547,6.068 -1.5,9 -5.214,8.091 -9.047,16.757 -11.5,26 -8.066,-1.366 -15.066,-4.866 -21,-10.5 -16.294,-19.296 -32.961,-38.296 -50,-57 -9.205,-5.47 -19.205,-8.47 -30,-9 -5.066,-3.606 -8.566,-8.44 -10.5,-14.5 -1.873,-2.209 -4.04,-4.042 -6.5,-5.5 -8.882,-2.79 -17.216,-1.79 -25,3 -5.698,6.032 -11.698,11.699 -18,17 -5.731,2.68 -11.731,3.68 -18,3 -3.882,-4.183 -8.049,-8.016 -12.5,-11.5 -1,-1.667 -2,-3.333 -3,-5 -1.415,-6.997 -3.748,-13.664 -7,-20 0.957,-13.688 -2.043,-26.354 -9,-38 -2.739,-2.618 -5.573,-5.118 -8.5,-7.5 -10.837,-6.586 -21.837,-12.919 -33,-19 -5.121,-3.453 -9.954,-7.286 -14.5,-11.5 -3.534,-7.178 -3.034,-14.012 1.5,-20.5 22.338,-0.294 44.671,-0.294 67,0 10.914,-5.526 21.914,-10.859 33,-16 3.142,-4.704 5.309,-9.871 6.5,-15.5 2.277,-0.617 4.444,-1.284 6.5,-2 z m 10,-5 c 22.992,0.764 45.659,3.931 68,9.5 10.798,2.397 20.131,7.397 28,15 3.788,1.978 7.621,3.811 11.5,5.5 0.962,9.311 1.628,18.645 2,28 0.809,5.942 2.976,11.276 6.5,16 -0.333,0.667 -0.667,1.333 -1,2 -16.499,5.312 -20.332,15.312 -11.5,30 3.867,4.202 8.033,8.035 12.5,11.5 10.814,3.035 21.647,5.868 32.5,8.5 0.667,2 0.667,4 0,6 -4.632,9.314 -9.299,18.647 -14,28 -4.635,9.8 -5.301,19.8 -2,30 6.83,9.337 15.996,15.004 27.5,17 -0.205,5.858 -1.372,11.525 -3.5,17 -5.567,7.471 -9.234,15.804 -11,25 -9.174,0.516 -17.341,-2.317 -24.5,-8.5 -17.039,-18.704 -33.706,-37.704 -50,-57 -3.159,-3.082 -6.825,-5.416 -11,-7 -7.707,-1.482 -15.373,-3.149 -23,-5 -4.929,-4.676 -8.763,-10.176 -11.5,-16.5 -8.208,-5.316 -16.374,-5.149 -24.5,0.5 -5.698,6.032 -11.698,11.699 -18,17 -7.018,3.127 -14.351,4.46 -22,4 -4.833,-4.833 -9.667,-9.667 -14.5,-14.5 -3.756,-9.182 -7.59,-18.348 -11.5,-27.5 3.372,-20.591 -3.962,-35.924 -22,-46 -15.802,-7.149 -29.969,-16.649 -42.5,-28.5 -2.314,-8.236 -1.647,-16.236 2,-24 1.067,-0.691 2.234,-1.191 3.5,-1.5 22.009,-0.453 44.009,-0.453 66,0 10.211,-5.272 20.544,-10.272 31,-15 1.549,-1.214 2.715,-2.714 3.5,-4.5 1.252,-4.178 2.418,-8.344 3.5,-12.5 6.819,-0.812 13.485,-1.646 20,-2.5 z" />
  </g>
  <g
     id="g14" />
  <g
     id="g15">
    <path
       id="path15"
       style="opacity:1"
       d="m 759.5,437.5 c 7.008,-0.166 14.008,0 21,0.5 5.721,4.721 11.721,9.054 18,13 3.667,0.667 7.333,0.667 11,0 5.333,-2 10.667,-4 16,-6 6,-0.667 12,-0.667 18,0 8.54,3.557 12.707,10.057 12.5,19.5 4.502,11.165 12.669,17.999 24.5,20.5 5.55,1.118 11.05,2.284 16.5,3.5 1.751,5.916 3.084,11.916 4,18 0.942,3.493 2.275,6.826 4,10 5.781,3.707 11.781,7.04 18,10 0.965,4.282 0.298,8.282 -2,12 -5.571,6.242 -11.738,11.742 -18.5,16.5 -10.206,-1.863 -20.539,-2.529 -31,-2 -8.038,1.124 -15.704,3.457 -23,7 -21.205,12.531 -40.705,27.364 -58.5,44.5 -2.641,4.302 -5.641,8.302 -9,12 -7.574,-1.777 -13.574,-5.777 -18,-12 -0.961,-6.836 -0.295,-13.503 2,-20 6.134,-10.602 11.468,-21.602 16,-33 1.021,-9.34 -3.145,-15.173 -12.5,-17.5 -8.512,-0.937 -16.845,-2.603 -25,-5 -6.22,-3.878 -10.553,-9.212 -13,-16 0.334,-2.175 1.334,-4.008 3,-5.5 16.539,-4.529 19.373,-13.529 8.5,-27 -0.417,-7.339 -0.917,-14.673 -1.5,-22 0.333,-2 0.667,-4 1,-6 7.847,-2.853 13.847,-7.853 18,-15 z m 1,-5 c 7.406,-0.348 14.739,0.152 22,1.5 4.954,3.285 9.62,6.952 14,11 2.509,1.336 5.176,2.17 8,2.5 5.572,-1.135 10.906,-2.969 16,-5.5 11.466,-3.953 22.466,-2.953 33,3 4.091,5.84 6.591,12.34 7.5,19.5 2.5,6.5 7,11 13.5,13.5 8.386,2.808 16.886,4.975 25.5,6.5 2.667,9.333 5.333,18.667 8,28 4.637,3.736 9.804,6.57 15.5,8.5 3.862,2.92 5.362,6.753 4.5,11.5 -0.856,4.044 -2.522,7.711 -5,11 -5.924,5.928 -12.424,11.094 -19.5,15.5 -11.282,-1.137 -22.616,-1.47 -34,-1 -9.266,1.756 -17.933,5.089 -26,10 -18.324,12.316 -35.49,26.149 -51.5,41.5 -2.624,3.748 -5.124,7.581 -7.5,11.5 -8.426,-0.813 -15.926,-3.98 -22.5,-9.5 -4.556,-10.218 -4.556,-20.551 0,-31 4.333,-8.667 8.667,-17.333 13,-26 4.155,-6.189 2.989,-11.023 -3.5,-14.5 -10.787,-2.3 -21.454,-4.967 -32,-8 -6.209,-4.867 -10.876,-10.867 -14,-18 1.434,-8.432 6.434,-13.099 15,-14 1.914,-1.413 3.247,-3.247 4,-5.5 -1.964,-4.456 -4.131,-8.789 -6.5,-13 -1.332,-10.646 -1.999,-21.313 -2,-32 8.63,-2.452 15.463,-7.452 20.5,-15 1.449,-0.672 2.782,-1.339 4,-2 z" />
  </g>
  <g
     id="g16" />
  <g
     id="g17">
    <path
       id="path17"
       style="opacity:1"
       d="m 463.5,526.5 c 17.389,-0.237 34.389,2.263 51,7.5 12.288,5.141 23.622,11.807 34,20 3.331,10.58 7.164,21.08 11.5,31.5 5.137,5.891 10.47,11.557 16,17 1,5.667 2,11.333 3,17 2.45,4.784 5.95,8.617 10.5,11.5 -2.333,0.667 -4.667,0.667 -7,0 -7.877,-4.053 -16.21,-5.72 -25,-5 -5.223,2.388 -8.889,6.222 -11,11.5 -15.511,-8.692 -26.177,-4.858 -32,11.5 -17.505,-2.994 -28.339,4.173 -32.5,21.5 -0.22,20.822 -3.386,41.155 -9.5,61 -8.34,0.166 -16.673,0 -25,-0.5 -5.41,-5.597 -12.076,-8.93 -20,-10 -19.89,-2.893 -39.89,-4.059 -60,-3.5 -17.34,0.359 -34.674,0.525 -52,0.5 -6.433,-4.765 -10.933,-10.932 -13.5,-18.5 -2.4,-7.767 -4.567,-15.6 -6.5,-23.5 7.753,-19.752 21.086,-34.419 40,-44 7.312,-1.131 14.645,-2.131 22,-3 20.929,-11.58 39.429,-26.414 55.5,-44.5 14.489,-21.326 31.322,-40.659 50.5,-58 z m -3,-4 c 23.676,-1.164 46.342,3.002 68,12.5 8.333,5.667 16.667,11.333 25,17 1.267,1.796 1.267,3.629 0,5.5 3.466,7.842 6.632,15.842 9.5,24 4.967,5.969 10.301,11.635 16,17 1.732,6.966 3.399,13.966 5,21 3,3 6,6 9,9 1.453,4.449 -0.381,7.115 -5.5,8 -7.876,-2.736 -15.876,-5.069 -24,-7 -3.33,0.412 -6.33,1.578 -9,3.5 -1.859,3.246 -3.525,6.579 -5,10 -1,0.667 -2,0.667 -3,0 -15.044,-10.1 -24.711,-6.433 -29,11 -4.105,0.48 -8.105,-0.02 -12,-1.5 -8.636,1.133 -14.469,5.8 -17.5,14 -1.791,13.641 -3.457,27.307 -5,41 -1.721,9.217 -4.221,18.217 -7.5,27 -9.489,1.71 -18.989,2.377 -28.5,2 -2.382,-1.244 -4.215,-3.077 -5.5,-5.5 -9.751,-4.818 -20.085,-7.485 -31,-8 -31.567,-1.822 -63.067,-1.656 -94.5,0.5 -7.776,-4.443 -13.443,-10.776 -17,-19 -3.621,-9.03 -6.121,-18.363 -7.5,-28 7.187,-24.022 22.52,-40.522 46,-49.5 7.084,-0.441 14.084,-1.441 21,-3 17.282,-10.939 33.115,-23.772 47.5,-38.5 8.667,-11.333 17.333,-22.667 26,-34 9.702,-9.535 19.202,-19.202 28.5,-29 z" />
  </g>
  <g
     id="g18" />
  <g
     id="g19">
    <path
       id="path19"
       style="opacity:1"
       d="m 1162.5,561.5 c 8.24,1.614 16.24,4.114 24,7.5 9.96,1.462 19.96,1.795 30,1 6.54,-1.179 12.71,-3.346 18.5,-6.5 6.42,4.794 13.25,8.961 20.5,12.5 6.22,2.789 12.55,3.123 19,1 2.79,-2.06 5.79,-3.56 9,-4.5 -2.21,8.641 -0.87,16.641 4,24 -8.74,6.788 -17.58,13.455 -26.5,20 -13.81,45.081 -27.81,90.081 -42,135 -7,12.667 -14,25.333 -21,38 -0.17,7.024 -0.67,14.024 -1.5,21 -7.06,1.962 -13.72,4.795 -20,8.5 -8,5.499 -10.83,12.999 -8.5,22.5 2.12,6.236 4.78,12.236 8,18 0.67,3.333 0.67,6.667 0,10 -4.29,2.205 -8.79,4.039 -13.5,5.5 -2.61,1.938 -4.44,4.438 -5.5,7.5 -0.19,4.751 -0.86,9.417 -2,14 -6.53,0.923 -12.19,-1.077 -17,-6 -1.27,-8.231 -1.94,-16.564 -2,-25 -3.87,-10.753 -9.54,-20.419 -17,-29 -13.95,-13.627 -28.79,-26.127 -44.5,-37.5 -7.96,-5.157 -16.63,-7.157 -26,-6 -5.69,3.513 -11.02,7.513 -16,12 -5.54,1.892 -9.04,0.059 -10.5,-5.5 -4.62,-15.912 -2.62,-30.912 6,-45 9.33,-12 21.49,-16.5 36.5,-13.5 5.67,3 11.33,6 17,9 7.59,1.457 14.59,0.123 21,-4 14.52,-13.204 19.02,-29.037 13.5,-47.5 -3.37,-3.703 -7.03,-7.036 -11,-10 -0.67,-2 -0.67,-4 0,-6 3.98,-4.312 8.31,-8.312 13,-12 3.5,-5.16 5.83,-10.826 7,-17 0.1,-7.744 0.77,-15.411 2,-23 4.95,-4.897 10.79,-8.397 17.5,-10.5 11.04,-6.413 16.38,-16.079 16,-29 -0.98,-7.826 -1.48,-15.659 -1.5,-23.5 1.39,-1.888 2.56,-3.888 3.5,-6 z m -1,-4 c 4.08,-0.156 8.08,0.344 12,1.5 20.67,10.162 41.17,9.995 61.5,-0.5 6.07,3.952 12.23,7.785 18.5,11.5 6.75,4.454 13.75,5.12 21,2 3.47,-4.694 7.64,-5.528 12.5,-2.5 1.58,4.482 1.42,8.982 -0.5,13.5 1.05,5.363 3.38,10.03 7,14 -9.13,7.834 -18.63,15.334 -28.5,22.5 -13.8,45.061 -27.8,90.061 -42,135 -7,12.667 -14,25.333 -21,38 -0.81,6.582 -0.64,13.082 0.5,19.5 -0.5,1.158 -1.33,1.991 -2.5,2.5 -7.63,1.655 -14.8,4.488 -21.5,8.5 -5.72,4.884 -7.55,11.05 -5.5,18.5 2.67,6.677 5.34,13.343 8,20 1.29,5.465 -0.21,9.965 -4.5,13.5 -3.62,1.487 -7.28,2.82 -11,4 -1.17,1.167 -2.33,2.333 -3.5,3.5 -1.07,5.646 -2.07,11.313 -3,17 -3.67,3.45 -7.83,3.95 -12.5,1.5 -4.08,-1.787 -7.91,-3.954 -11.5,-6.5 -0.86,-1.587 -1.53,-3.254 -2,-5 1.46,-13.276 -1.21,-25.61 -8,-37 -15.16,-20.149 -33.33,-36.982 -54.5,-50.5 -4.82,-2.829 -9.99,-4.662 -15.5,-5.5 -3.41,0.452 -6.58,1.619 -9.5,3.5 -4.05,3.716 -8.38,7.05 -13,10 -6.86,1.277 -11.69,-1.223 -14.5,-7.5 -5.43,-18.854 -2.77,-36.521 8,-53 12.1,-12.953 26.6,-16.786 43.5,-11.5 15.12,12.842 27.95,11.008 38.5,-5.5 5.53,-8.237 7.53,-17.237 6,-27 -2.36,-5.846 -6.36,-10.179 -12,-13 -3.33,-4.667 -3.33,-9.333 0,-14 6.38,-4.709 11.71,-10.375 16,-17 2.88,-9.775 4.21,-19.775 4,-30 0.7,-3.566 2.53,-6.4 5.5,-8.5 6.12,-2.815 12.12,-5.815 18,-9 6.97,-5.446 10.64,-12.613 11,-21.5 -1.67,-8.607 -2.17,-17.273 -1.5,-26 0.87,-4.025 3.04,-7.025 6.5,-9 z" />
  </g>
  <g
     id="g20" />
  <g
     id="g21">
    <path
       id="path21"
       style="opacity:1"
       d="m 631.5,580.5 c 3.018,-0.165 6.018,0.002 9,0.5 6.479,16.121 18.479,23.787 36,23 6.952,2.94 12.786,7.44 17.5,13.5 14.481,17.812 29.647,34.978 45.5,51.5 4.555,3.445 9.555,6.112 15,8 7.171,1.39 14.171,3.39 21,6 14.911,14.015 18.578,30.348 11,49 0.346,5.688 2.346,10.688 6,15 -0.145,0.772 -0.478,1.439 -1,2 -3.773,0.012 -7.106,1.179 -10,3.5 -2.416,3.163 -4.582,6.496 -6.5,10 -2.489,11.883 -1.823,23.55 2,35 3.573,4.291 7.906,7.624 13,10 0.49,1.293 0.657,2.627 0.5,4 -4.346,-0.166 -8.679,10e-4 -13,0.5 -2.57,2.067 -4.57,4.567 -6,7.5 -4.015,-4.185 -7.682,-8.685 -11,-13.5 -5.645,-2.911 -11.645,-4.578 -18,-5 -2.873,-3.577 -5.373,-7.411 -7.5,-11.5 -1.255,-0.711 -2.421,-1.544 -3.5,-2.5 -7.324,-0.057 -14.657,0.109 -22,0.5 -0.903,-10.063 -5.903,-17.23 -15,-21.5 -3.428,-0.701 -6.762,-0.368 -10,1 -8.667,4 -17.333,8 -26,12 -9.651,6.114 -15.151,14.948 -16.5,26.5 -0.168,9.018 -0.668,18.018 -1.5,27 -5.404,2.534 -11.071,4.201 -17,5 -4.874,-2.697 -9.874,-5.197 -15,-7.5 -3,-0.667 -6,-0.667 -9,0 -9.005,3.92 -17.505,8.753 -25.5,14.5 -4.25,-6.165 -8.25,-12.498 -12,-19 -0.956,-1.394 -2.289,-2.061 -4,-2 -9.178,6.683 -18.678,13.016 -28.5,19 -5.892,-6.77 -11.059,-14.103 -15.5,-22 -0.667,-4.667 -0.667,-9.333 0,-14 4.393,-10.512 8.393,-21.178 12,-32 4.314,-28.036 -7.852,-42.536 -36.5,-43.5 -1.016,-0.519 -1.682,-1.353 -2,-2.5 2.554,-7.494 4.387,-15.161 5.5,-23 1.214,-12.027 2.548,-24.027 4,-36 0.883,-2.602 2.383,-4.769 4.5,-6.5 4.705,-0.162 9.372,0.338 14,1.5 4.595,-0.097 8.095,-2.097 10.5,-6 1.577,-3.491 3.077,-6.991 4.5,-10.5 2,-0.667 4,-0.667 6,0 12.523,9.583 20.857,6.916 25,-8 6.629,0.242 12.963,1.908 19,5 9.958,2.247 17.458,-0.92 22.5,-9.5 1.187,-8.841 -2.147,-15.508 -10,-20 -1.316,-3.188 -1.816,-6.522 -1.5,-10 10.413,-0.634 19.413,-4.467 27,-11.5 4.473,-4.521 8.806,-9.021 13,-13.5 z m 1,-5 c 3.773,-0.237 7.44,0.263 11,1.5 2.546,3.59 4.713,7.423 6.5,11.5 2.537,2.872 5.37,5.372 8.5,7.5 6.547,1.888 13.214,3.222 20,4 3.612,1.139 6.946,2.806 10,5 16.628,19.63 33.628,38.963 51,58 4.503,3.755 9.503,6.755 15,9 7.817,1.87 15.483,4.204 23,7 8.639,6.758 14.139,15.591 16.5,26.5 0.893,2.933 1.393,5.933 1.5,9 -0.641,6.448 -2.308,12.614 -5,18.5 2.333,5 4.667,10 7,15 0.061,1.711 -0.606,3.044 -2,4 -3.284,1.125 -6.617,2.125 -10,3 -7.262,8.548 -9.762,18.381 -7.5,29.5 0.321,9.659 5.154,15.826 14.5,18.5 5.006,6.501 3.672,11.001 -4,13.5 -7.84,-2.672 -12.174,0.161 -13,8.5 -3.202,-0.086 -6.202,-1.086 -9,-3 -3.333,-4.333 -6.667,-8.667 -10,-13 -5.128,-2.093 -10.462,-3.426 -16,-4 -3.818,-3.973 -7.151,-8.306 -10,-13 -1.373,-0.875 -2.873,-1.375 -4.5,-1.5 -6.14,1.061 -12.306,1.227 -18.5,0.5 -2.205,-4.29 -4.039,-8.79 -5.5,-13.5 -2.67,-4.022 -6.337,-6.355 -11,-7 -9.64,3.401 -19.14,7.234 -28.5,11.5 -8.462,4.744 -13.628,11.911 -15.5,21.5 -0.664,4.649 -1.164,9.316 -1.5,14 0.767,5.327 0.934,10.66 0.5,16 -11.961,9.598 -24.128,10.098 -36.5,1.5 -1.855,-0.422 -3.689,-0.922 -5.5,-1.5 -10.927,4.629 -21.261,10.296 -31,17 -5.413,-7.158 -10.579,-14.491 -15.5,-22 -5.667,4.5 -11.333,9 -17,13.5 -3.548,1.941 -7.214,3.607 -11,5 -1.444,0.781 -2.777,0.614 -4,-0.5 -4.009,-6.685 -8.509,-13.018 -13.5,-19 -4.064,-8.525 -4.398,-17.192 -1,-26 4.236,-9.803 7.903,-19.803 11,-30 2.976,-15.885 -2.858,-27.052 -17.5,-33.5 -6.878,-1.823 -13.878,-2.823 -21,-3 -0.928,-0.388 -1.595,-1.055 -2,-2 6.468,-19.975 9.968,-40.475 10.5,-61.5 0.73,-5.636 3.564,-9.803 8.5,-12.5 6.337,-0.066 12.67,-0.066 19,0 3.189,-5.241 6.189,-10.575 9,-16 2.333,-0.667 4.667,-0.667 7,0 4.789,1.969 9.456,4.136 14,6.5 1.883,-0.376 3.383,-1.376 4.5,-3 1.309,-3.599 2.809,-7.099 4.5,-10.5 3.667,-0.667 7.333,-0.667 11,0 5.507,2.336 11.174,4.169 17,5.5 6.683,-0.357 11.017,-3.69 13,-10 -2.459,-5.971 -6.292,-10.971 -11.5,-15 -1.25,-4.92 -1.75,-9.92 -1.5,-15 7.732,-0.266 15.065,-2.1 22,-5.5 6.302,-5.301 12.302,-10.968 18,-17 1.932,-1.459 3.932,-2.625 6,-3.5 z" />
  </g>
  <g
     id="g22" />
  <g
     id="g23">
    <path
       id="path23"
       style="opacity:1"
       d="m 947.5,599.5 c 1.636,1.249 2.803,2.916 3.5,5 -1.183,8.299 1.151,15.299 7,21 0.229,8.032 -0.271,16.032 -1.5,24 -0.932,9.133 2.235,16.466 9.5,22 1.685,5.761 3.685,11.428 6,17 2.559,3.031 5.726,5.198 9.5,6.5 7.979,1.094 15.979,2.094 24,3 3.12,1.059 6.12,2.392 9,4 8.46,8.294 16.79,16.794 25,25.5 -20.9,11.44 -32.57,29.107 -35,53 -13.286,-2.273 -22.786,2.727 -28.5,15 -1.111,5.111 -0.111,9.778 3,14 3.175,3.508 6.675,6.675 10.5,9.5 -5.857,3.187 -8.023,8.021 -6.5,14.5 1.738,3.741 4.238,6.908 7.5,9.5 -12.676,1.846 -22.676,8.013 -30,18.5 -19.325,1.166 -38.658,1.333 -58,0.5 -12.802,-13.833 -27.469,-16.166 -44,-7 -6.021,5.023 -11.688,10.356 -17,16 -6.797,3.949 -12.63,2.783 -17.5,-3.5 -5,-8.333 -10,-16.667 -15,-25 -5.677,-7.018 -12.511,-12.518 -20.5,-16.5 12.7,-2.218 17.867,-9.718 15.5,-22.5 -1.252,-1.501 -2.252,-3.168 -3,-5 -4.108,-3.297 -8.275,-6.464 -12.5,-9.5 -1.112,-6.795 -1.278,-13.629 -0.5,-20.5 1.93,-5.163 5.763,-7.663 11.5,-7.5 3.228,-1.563 5.395,-4.063 6.5,-7.5 0.667,-4 0.667,-8 0,-12 -1.849,-3.038 -3.682,-6.038 -5.5,-9 1.185,-2.211 2.185,-4.545 3,-7 9.36,-6.963 19.693,-12.13 31,-15.5 6.861,-4.549 9.028,-10.716 6.5,-18.5 -3.422,-5.178 -7.089,-10.178 -11,-15 -2.482,-7.793 -3.149,-15.793 -2,-24 4.667,-4 9.333,-8 14,-12 3.793,-7.371 7.959,-14.538 12.5,-21.5 4.935,-3.914 10.602,-5.414 17,-4.5 3.333,0.333 6.667,0.667 10,1 0.691,6.666 1.525,13.332 2.5,20 0.792,2.087 1.959,3.921 3.5,5.5 5.442,2.222 11.108,3.556 17,4 8.106,9.537 18.439,13.204 31,11 4.167,-1.5 7,-4.333 8.5,-8.5 0.022,-16.111 1.188,-32.111 3.5,-48 z m -3,-8 c 3.67,-0.173 6.17,1.493 7.5,5 3.394,6.575 5.06,13.575 5,21 1.912,2.157 3.579,4.491 5,7 -0.003,10.355 -0.336,20.688 -1,31 1.06,5.062 3.727,9.062 8,12 2.622,5.442 4.622,11.109 6,17 2.341,3.335 5.507,5.502 9.5,6.5 7.667,1 15.333,2 23,3 3.12,1.059 6.12,2.392 9,4 10.5,9.167 20.33,19 29.5,29.5 0.78,1.444 0.61,2.777 -0.5,4 -16.73,5.228 -27.56,16.228 -32.5,33 -1.9,6.881 -3.07,13.881 -3.5,21 -8.01,-1.972 -15.674,-1.139 -23,2.5 -6.424,5.558 -7.591,12.058 -3.5,19.5 3.973,3.818 8.306,7.151 13,10 0.751,4.095 -1.082,6.262 -5.5,6.5 -1.713,1.378 -3.047,3.045 -4,5 2.632,5.418 6.132,10.251 10.5,14.5 0.667,1.333 0.667,2.667 0,4 -14.749,0.077 -26.249,6.243 -34.5,18.5 -19.343,0.526 -38.677,0.86 -58,1 -5.038,-1.026 -9.038,-3.693 -12,-8 -9.798,-6.828 -19.798,-7.162 -30,-1 -6.333,5.667 -12.667,11.333 -19,17 -9.889,4.596 -18.056,2.429 -24.5,-6.5 -4.748,-8.499 -9.748,-16.832 -15,-25 -5.723,-6.388 -12.557,-11.221 -20.5,-14.5 -2.534,-2.747 -2.534,-5.413 0,-8 11.176,1.485 16.676,-3.348 16.5,-14.5 -0.667,-1.333 -1.333,-2.667 -2,-4 -3.973,-3.818 -8.306,-7.151 -13,-10 -3.912,-11.02 -3.245,-21.686 2,-32 3.778,-1.45 7.611,-2.95 11.5,-4.5 3.63,-3.05 4.797,-6.883 3.5,-11.5 -2.583,-3.587 -4.75,-7.42 -6.5,-11.5 1.315,-4.968 3.648,-9.301 7,-13 9.25,-6.198 19.25,-10.865 30,-14 4.163,-2.821 5.663,-6.655 4.5,-11.5 -2.557,-5.223 -5.891,-9.89 -10,-14 -4.856,-10.453 -5.523,-21.12 -2,-32 10.647,-6.313 17.981,-15.313 22,-27 6.39,-9.086 15.223,-13.086 26.5,-12 4.282,-0.433 8.115,0.567 11.5,3 1.273,6.919 2.273,13.919 3,21 0.465,1.431 1.299,2.597 2.5,3.5 5.511,1.9 11.178,3.233 17,4 6.962,9.096 15.962,12.429 27,10 2.928,-1.26 4.761,-3.427 5.5,-6.5 0.012,-17.811 1.512,-35.477 4.5,-53 z" />
  </g>
  <g
     id="g24" />
  <g
     id="g25">
    <path
       id="path25"
       style="opacity:1"
       d="m 477.5,744.5 c 10.522,-0.858 20.522,0.975 30,5.5 3.908,3.819 5.908,8.485 6,14 -2.039,11.783 -5.872,22.95 -11.5,33.5 -4.977,15.054 -2.811,28.887 6.5,41.5 -7.363,-0.999 -14.697,-0.665 -22,1 -10.052,4.735 -13.885,12.569 -11.5,23.5 5.357,9.178 9.523,18.845 12.5,29 -0.077,1.799 -0.577,3.466 -1.5,5 -5,4.667 -10,9.333 -15,14 -1,2 -2,4 -3,6 -0.33,7.54 0.17,15.04 1.5,22.5 -0.085,1.107 -0.419,2.107 -1,3 -9.933,6.55 -20.1,12.717 -30.5,18.5 -6.578,-2.706 -13.412,-4.372 -20.5,-5 -6.25,0.756 -11.084,3.756 -14.5,9 -3.194,6.583 -6.194,13.25 -9,20 -6.858,5.71 -14.358,6.544 -22.5,2.5 -3.848,-6.027 -8.182,-11.693 -13,-17 -9.161,-2.851 -16.661,-0.351 -22.5,7.5 -2,4 -4,8 -6,12 -3.256,1.929 -6.756,2.429 -10.5,1.5 -10.931,-2.418 -21.098,-6.585 -30.5,-12.5 -0.333,-10.333 -0.667,-20.667 -1,-31 -4.769,-8.205 -8.436,-16.872 -11,-26 -3.118,-6.106 -6.618,-11.939 -10.5,-17.5 3.779,-7.726 7.946,-15.226 12.5,-22.5 4.022,-18.802 -3.478,-26.969 -22.5,-24.5 -3.012,0.78 -5.845,1.947 -8.5,3.5 10.428,-14.128 20.428,-28.795 30,-44 12.417,-19.419 28.917,-34.252 49.5,-44.5 2.288,-0.822 4.622,-1.489 7,-2 14.016,-0.779 28.016,-1.779 42,-3 12.482,-4.606 24.816,-9.606 37,-15 3.211,-1.348 6.544,-2.182 10,-2.5 11.961,2.819 23.628,6.485 35,11 -0.757,-5.439 -2.424,-10.606 -5,-15.5 8.177,-0.171 16.177,-0.671 24,-1.5 z m -28,-4 c 14.965,0.281 29.965,0.447 45,0.5 17.728,2.058 25.228,11.892 22.5,29.5 -3.068,10.203 -6.735,20.203 -11,30 -4.788,15.403 -1.454,28.736 10,40 0.494,1.634 0.66,3.301 0.5,5 -8.921,-1.77 -17.921,-2.27 -27,-1.5 -7.972,3.106 -11.472,8.939 -10.5,17.5 5.354,8.394 9.354,17.394 12,27 1.007,4.611 0.34,8.945 -2,13 -3.557,3.525 -7.39,6.691 -11.5,9.5 -3.182,3.198 -5.182,7.031 -6,11.5 0.776,7.145 1.943,14.145 3.5,21 -10.562,7.559 -21.395,14.726 -32.5,21.5 -2.333,0.667 -4.667,0.667 -7,0 -5.81,-1.744 -11.643,-3.244 -17.5,-4.5 -5.41,1.072 -9.41,4.072 -12,9 -2.814,6.785 -5.814,13.452 -9,20 -9.482,6.069 -19.315,6.569 -29.5,1.5 -3.208,-4.247 -6.042,-8.747 -8.5,-13.5 -1.779,-2.264 -4.113,-3.597 -7,-4 -3.5,0.834 -6.667,2.334 -9.5,4.5 -3.477,4.455 -6.311,9.288 -8.5,14.5 -1.214,1.549 -2.714,2.715 -4.5,3.5 -16.153,-0.05 -30.986,-4.55 -44.5,-13.5 -0.333,-10.333 -0.667,-20.667 -1,-31 -5.37,-9.112 -9.37,-18.779 -12,-29 -2.22,-4.884 -5.22,-9.218 -9,-13 -0.667,-2.667 -0.667,-5.333 0,-8 4.65,-8.468 9.15,-16.968 13.5,-25.5 0.039,-8.619 -4.127,-13.452 -12.5,-14.5 -8.323,1.331 -16.323,3.664 -24,7 -1.158,-0.498 -1.991,-1.331 -2.5,-2.5 4.443,-6.114 9.276,-11.947 14.5,-17.5 10.506,-16.348 21.506,-32.348 33,-48 10.877,-13.877 24.377,-24.377 40.5,-31.5 2.601,-0.92 5.268,-1.587 8,-2 12.986,-1.14 25.986,-2.14 39,-3 10.855,-2.592 21.188,-6.592 31,-12 8.519,-4.381 17.519,-6.048 27,-5 6.86,2.009 13.527,4.509 20,7.5 0.333,-0.5 0.667,-1 1,-1.5 -1.338,-3.35 -2.671,-6.684 -4,-10 0.881,-0.708 1.547,-1.542 2,-2.5 z" />
  </g>
  <g
     id="g26" />
  <g
     id="g27">
    <path
       id="path27"
       style="opacity:1"
       d="m 689.5,779.5 c 1.871,0.359 3.371,1.359 4.5,3 0.963,6.232 3.463,11.732 7.5,16.5 7.34,2.623 14.84,3.123 22.5,1.5 3.143,3.813 6.309,7.647 9.5,11.5 2.217,1.275 4.551,2.275 7,3 3.787,0.16 7.454,0.826 11,2 2.365,5.055 5.698,9.388 10,13 9.588,3.753 18.921,8.086 28,13 3.167,3.167 6.333,6.333 9.5,9.5 4.245,8.831 9.245,17.164 15,25 10.945,11.411 23.112,12.911 36.5,4.5 4.979,-5.311 10.313,-10.311 16,-15 10.598,-5.698 19.598,-3.698 27,6 2,1 4,2 6,3 16.677,0.167 33.343,0.667 50,1.5 -4.333,10.498 -8.166,21.165 -11.5,32 -10.126,11.645 -22.959,17.812 -38.5,18.5 -1.5,1.5 -3,3 -4.5,4.5 -1.447,4.27 -2.947,8.437 -4.5,12.5 -5,0.333 -10,0.667 -15,1 -0.828,0.915 -1.828,1.581 -3,2 -3.285,6.019 -6.285,12.186 -9,18.5 -7.764,4.965 -15.264,10.298 -22.5,16 -3.52,4.735 -5.52,10.068 -6,16 -6.273,10.94 -15.106,19.11 -26.5,24.5 -11.703,5.52 -23.369,11.02 -35,16.5 -1.438,-0.22 -2.771,-0.72 -4,-1.5 -5.578,-7.16 -10.911,-14.49 -16,-22 -7.466,-4.14 -15.466,-6.81 -24,-8 -7.448,-3.72 -8.948,-9.218 -4.5,-16.5 6.333,-5.333 12.667,-10.667 19,-16 3.162,-5.277 4.162,-10.943 3,-17 -3.605,-6.6 -7.605,-12.934 -12,-19 -1.606,-3.372 -2.772,-6.872 -3.5,-10.5 0.167,-1.167 0.333,-2.333 0.5,-3.5 8.173,-11.015 13.007,-23.348 14.5,-37 -1.466,-13.31 -7.466,-24.143 -18,-32.5 -8.445,-3.458 -16.778,-3.124 -25,1 -6.492,2.743 -12.492,6.243 -18,10.5 -5.43,14.71 -10.097,29.71 -14,45 1.548,4.099 3.382,8.099 5.5,12 1.221,5.47 -0.946,8.97 -6.5,10.5 -10.488,2.548 -20.488,1.215 -30,-4 -8.11,-6.142 -15.943,-12.642 -23.5,-19.5 -0.333,-12.333 -0.667,-24.667 -1,-37 -0.36,-2.108 -1.027,-4.108 -2,-6 -9.453,-4.976 -18.953,-9.81 -28.5,-14.5 5.663,-4.317 11.83,-7.817 18.5,-10.5 4.355,1.761 8.522,3.928 12.5,6.5 12.032,1.496 23.365,-0.838 34,-7 2.394,-1.952 3.894,-4.452 4.5,-7.5 0.333,-10 0.667,-20 1,-30 0.962,-5.774 3.795,-10.274 8.5,-13.5 8.516,-4.097 16.85,-8.263 25,-12.5 z m -2,-4 c 2.027,-0.162 4.027,0.005 6,0.5 4.742,3.649 7.242,8.482 7.5,14.5 0.785,1.786 1.951,3.286 3.5,4.5 7.638,1.665 15.305,1.999 23,1 2.365,5.055 5.698,9.388 10,13 5.729,1.288 11.396,2.788 17,4.5 2.419,4.585 5.419,8.752 9,12.5 11.503,3.752 22.17,9.085 32,16 1.833,1.833 3.667,3.667 5.5,5.5 4.748,8.499 9.748,16.832 15,25 9.921,11.951 21.087,13.451 33.5,4.5 5.032,-5.367 10.365,-10.367 16,-15 8.185,-3.6 16.185,-3.267 24,1 3.725,4.526 8.392,7.526 14,9 17.333,0.333 34.667,0.667 52,1 0.457,0.414 0.791,0.914 1,1.5 -1.833,3.667 -3.667,7.333 -5.5,11 -2.389,8.897 -5.389,17.564 -9,26 -4.263,6.265 -9.763,11.098 -16.5,14.5 -8.249,2.652 -16.582,4.985 -25,7 -1.201,0.903 -2.035,2.069 -2.5,3.5 -0.165,4.161 -1.332,7.994 -3.5,11.5 -6,1 -12,2 -18,3 -0.833,0.833 -1.667,1.667 -2.5,2.5 -1.25,7.782 -4.75,14.282 -10.5,19.5 -7.623,3.727 -14.456,8.561 -20.5,14.5 -2.264,4.387 -3.597,9.054 -4,14 -6.544,9.54 -14.711,17.38 -24.5,23.5 -10.698,5.35 -21.364,10.68 -32,16 -5.726,3.16 -11.393,3.16 -17,0 -4.619,-5.29 -8.453,-11.13 -11.5,-17.5 -1.833,-1.83 -3.667,-3.67 -5.5,-5.5 -7.869,-2.71 -15.869,-5.04 -24,-7 -2.881,-1.25 -4.714,-3.42 -5.5,-6.5 -1.068,-5.268 -0.401,-10.268 2,-15 6.615,-5.943 13.282,-11.943 20,-18 3.232,-4.968 3.232,-9.968 0,-15 -4.25,-6.165 -8.25,-12.498 -12,-19 -1.14,-2.919 -1.973,-5.919 -2.5,-9 3.28,-7.893 7.113,-15.56 11.5,-23 5.536,-10.41 5.536,-20.743 0,-31 -4.557,-8.068 -11.057,-13.734 -19.5,-17 -10.873,2.021 -20.707,6.354 -29.5,13 -4.506,14.183 -9.006,28.35 -13.5,42.5 6.338,6.714 7.505,14.214 3.5,22.5 -4.977,3.83 -10.643,5.496 -17,5 -9.019,-0.117 -17.519,-2.284 -25.5,-6.5 -7.833,-6.5 -15.667,-13 -23.5,-19.5 -0.333,-10.333 -0.667,-20.667 -1,-31 -0.143,-4.119 -0.81,-8.119 -2,-12 -10.333,-5 -20.667,-10 -31,-15 -0.781,-1.444 -0.614,-2.777 0.5,-4 6.669,-4.67 13.669,-8.837 21,-12.5 2.667,-0.667 5.333,-0.667 8,0 7.636,6.61 16.302,8.277 26,5 6.948,-1.381 12.448,-4.881 16.5,-10.5 0.333,-10 0.667,-20 1,-30 0.962,-7.766 4.795,-13.599 11.5,-17.5 8.487,-3.079 16.487,-6.912 24,-11.5 z" />
  </g>
  <g
     id="g28" />
  <g
     id="g29">
    <path
       id="path29"
       style="opacity:1"
       d="m 995.5,793.5 c 3.554,-0.35 6.89,0.316 10,2 1.86,5.392 4.02,10.726 6.5,16 6.96,7.963 15.46,10.13 25.5,6.5 5.53,-2.934 10.53,-6.6 15,-11 4.68,-0.665 9.01,0.335 13,3 15.89,10.382 30.39,22.549 43.5,36.5 5.13,6.47 9.46,13.47 13,21 0.33,7.333 0.67,14.667 1,22 3.32,11.985 11.16,19.151 23.5,21.5 9.66,2.918 16.82,0.084 21.5,-8.5 1.23,-5.267 2.07,-10.6 2.5,-16 16.41,-2.79 22.91,-12.457 19.5,-29 -2.67,-6 -5.33,-12 -8,-18 -1.29,-4.127 -0.13,-7.294 3.5,-9.5 4.23,-2.531 8.73,-4.364 13.5,-5.5 4.28,5.28 8.94,10.28 14,15 5.6,9.143 8.27,19.143 8,30 0.33,15.333 0.67,30.667 1,46 0.72,2.449 1.72,4.783 3,7 5.82,5.49 10.49,11.823 14,19 2.64,11.086 -0.53,20.252 -9.5,27.5 -9.95,3.79 -19.95,7.457 -30,11 -8.21,5.575 -12.37,13.408 -12.5,23.5 -2.09,19.03 -4.42,38.03 -7,57 -2.58,5.49 -5.41,10.83 -8.5,16 -10.58,-12.78 -19.41,-26.78 -26.5,-42 -4.22,-8.56 -10.72,-14.72 -19.5,-18.5 -9.62,-2.82 -19.29,-5.49 -29,-8 -6.56,-5.78 -14.22,-9.11 -23,-10 -12.08,-3.315 -21.92,-0.148 -29.5,9.5 -7.7,13.37 -17.86,24.53 -30.5,33.5 -1.17,0.17 -2.33,0.33 -3.5,0.5 -15.255,-4.09 -30.422,-3.93 -45.5,0.5 -9.474,1.06 -18.807,0.39 -28,-2 -17.62,-7.54 -35.286,-14.87 -53,-22 -8.606,-2.16 -17.106,-1.99 -25.5,0.5 -1.898,-6.37 -4.565,-12.37 -8,-18 -1.163,-4.845 0.337,-8.679 4.5,-11.5 8.654,-3.912 16.154,-9.412 22.5,-16.5 1.995,-3.817 3.495,-7.817 4.5,-12 15.043,1.004 23.709,-5.83 26,-20.5 29.506,-3.503 46.672,-20.003 51.5,-49.5 4.75,-11 11.583,-20.5 20.5,-28.5 2.388,-1.861 5.054,-3.194 8,-4 22.91,-0.311 26.91,-9.145 12,-26.5 10.22,-7.034 10.55,-14.534 1,-22.5 -4.481,-2.32 -8.147,-5.487 -11,-9.5 1.715,-2.382 3.715,-4.382 6,-6 z m -1,-4 c 4.436,-0.29 8.77,0.21 13,1.5 1.55,1.214 2.72,2.714 3.5,4.5 1.71,15.076 9.87,21.243 24.5,18.5 4.62,-2.95 8.95,-6.284 13,-10 4.12,-2.955 8.45,-3.289 13,-1 5.93,2.935 11.59,6.268 17,10 15.52,11.851 29.35,25.351 41.5,40.5 6.79,11.341 9.46,23.674 8,37 0.92,4.688 3.42,8.188 7.5,10.5 4.43,2.551 9.1,4.551 14,6 6.53,1.493 11.37,-0.673 14.5,-6.5 0.84,-5.759 2.01,-11.425 3.5,-17 13.5,-1.985 19.67,-9.652 18.5,-23 -1.78,-5.557 -4.11,-10.891 -7,-16 -1.39,-4.595 -1.73,-9.261 -1,-14 6.6,-5.797 14.26,-9.464 23,-11 5.6,6.27 11.26,12.604 17,19 4.57,8.402 6.9,17.402 7,27 0.33,15.667 0.67,31.333 1,47 1.3,6.31 4.63,11.31 10,15 12.54,16.705 11.04,31.872 -4.5,45.5 -9.11,3.945 -18.44,7.278 -28,10 -7,4.152 -10.83,10.319 -11.5,18.5 -2.33,19.33 -4.67,38.67 -7,58 -3.51,8.53 -7.68,16.69 -12.5,24.5 -1.5,0.51 -2.66,0.01 -3.5,-1.5 -11.25,-14.61 -20.92,-30.27 -29,-47 -4.28,-7.61 -10.44,-13.11 -18.5,-16.5 -13.86,-1.62 -26.53,-6.29 -38,-14 -9.18,-2.44 -18.51,-3.1 -28,-2 -8.24,7.91 -15.41,16.75 -21.5,26.5 -6.5,6.9 -13.83,12.56 -22,17 -15.146,-4.97 -30.313,-5.13 -45.5,-0.5 -10.8,1.07 -21.466,0.4 -32,-2 -17.839,-7.72 -35.839,-15.06 -54,-22 -8.16,-2.22 -16.16,-1.72 -24,1.5 -0.942,-0.11 -1.775,-0.44 -2.5,-1 -1.652,-7.63 -4.652,-14.63 -9,-21 -0.916,-7.005 1.584,-12.505 7.5,-16.5 7.11,-3.637 13.61,-8.137 19.5,-13.5 2.884,-5.314 5.384,-10.814 7.5,-16.5 14.287,2.38 22.287,-3.62 24,-18 15.561,-1.181 28.728,-7.348 39.5,-18.5 2.838,-3.672 5.171,-7.672 7,-12 3.324,-18.153 11.491,-33.653 24.5,-46.5 7.293,-5.75 15.627,-8.083 25,-7 4.29,-2.531 5.12,-6.031 2.5,-10.5 -3.565,-3.894 -6.731,-8.06 -9.5,-12.5 3.05,-2.28 6.217,-4.447 9.5,-6.5 1.03,-3.68 0.19,-6.847 -2.5,-9.5 -4.616,-2.56 -8.782,-5.727 -12.5,-9.5 -2.834,-7.666 -0.334,-12.666 7.5,-15 z" />
  </g>
</svg>
